<?xml version="1.0" standalone="no"?>
<!DOCTYPE svg PUBLIC "-//W3C//DTD SVG 1.1//EN" "http://www.w3.org/Graphics/SVG/1.1/DTD/svg11.dtd" >
<svg xmlns="http://www.w3.org/2000/svg" xmlns:xlink="http://www.w3.org/1999/xlink" version="1.1">
<metadata></metadata>
<defs>
<font id="inknut_antiquabold" horiz-adv-x="1966" >
<font-face units-per-em="2048" ascent="1638" descent="-410" />
<missing-glyph horiz-adv-x="520" />
<glyph unicode="&#xfb01;" horiz-adv-x="1669" d="M51 907v135h217v158q0 162 95.5 302t237.5 223t273 83t284 -19.5t210 -47.5q51 -27 80 -74t29 -104q0 -59 -41 -110.5t-102.5 -82.5t-119.5 -31q-102 0 -182 111q-49 78 -101 102.5t-159 24.5q-74 0 -115 -63.5t-41 -184.5v-287h342l365 101h129v-948l184 -62l-67 -133 h-465v774l-170 133h-318v-692l314 -82l-68 -133h-776v115l182 153v639h-217z" />
<glyph unicode="&#xfb02;" horiz-adv-x="1669" d="M51 907v135h217v158q0 162 99.5 302t250 223t287.5 83q102 0 235.5 -6t207.5 -14h104v-1593l186 -62l-67 -133h-465v1419q-55 74 -140 116t-169 42q-80 0 -130.5 -64.5t-50.5 -183.5v-287h345v-135h-345v-692l314 -82l-68 -133h-776v115l182 153v639h-217z" />
<glyph horiz-adv-x="0" />
<glyph horiz-adv-x="682" />
<glyph unicode=" "  horiz-adv-x="520" />
<glyph unicode="&#x09;" horiz-adv-x="520" />
<glyph unicode="&#xa0;" horiz-adv-x="520" />
<glyph unicode="!" horiz-adv-x="702" d="M100 1358v115l351 137h129l-121 -1043h-213zM127 176q0 59 41 111.5t101.5 83t117.5 30.5q88 0 144.5 -57t56.5 -141q0 -59 -41 -110.5t-102.5 -82t-118.5 -30.5q-86 0 -142.5 56t-56.5 140z" />
<glyph unicode="&#x22;" horiz-adv-x="1347" d="M123 1348v114l356 148h129l-73 -824l-164 -2zM739 1348v114l356 148h129l-73 -824l-164 -2z" />
<glyph unicode="#" horiz-adv-x="1597" d="M47 266l82 144h315l160 276h-315l84 143h313l170 293l90 -55l-137 -238h303l170 293l90 -55l-137 -238h317l-84 -143h-317l-160 -276h316l-82 -144h-318l-164 -284l-90 55l133 229h-303l-164 -284l-90 55l133 229h-315zM565 410h303l160 276h-303z" />
<glyph unicode="$" horiz-adv-x="1433" d="M104 53v449h193q90 -166 209 -258t239 -92q94 0 151.5 54t57.5 132q0 61 -48 116.5t-121.5 102.5t-196.5 115q-152 84 -247 147.5t-160.5 147.5t-65.5 184q0 94 79.5 202.5t201.5 190.5t235 103v374h178v-374q133 -10 269 -37t202 -56v-448h-193q-86 166 -189 258 t-218 92q-82 0 -129 -52t-47 -132q0 -66 50 -124t125 -106.5t202 -117.5q150 -82 241.5 -143.5t155 -143.5t63.5 -180h2q0 -92 -82.5 -198.5t-208.5 -188.5t-243 -105v-375h-178v371q-143 10 -298 37t-229 55z" />
<glyph unicode="%" horiz-adv-x="2285" d="M90 1356q0 121 94 225.5t235.5 166t272.5 61.5q141 0 252.5 -53.5t173 -145.5t61.5 -205q0 -121 -94 -226.5t-236.5 -166.5t-273.5 -61q-141 0 -251.5 53t-172 145t-61.5 207zM162 -123l1886 1935l99 -90l-1888 -1938zM391 1424q0 -127 71.5 -211t206.5 -84 q209 0 209 209q0 127 -72.5 211t-209.5 84q-205 0 -205 -209zM1108 155q0 121 94 225.5t235.5 166t272.5 61.5q141 0 252.5 -53.5t173 -145.5t61.5 -204q0 -121 -94 -226.5t-236.5 -167t-273.5 -61.5q-141 0 -251.5 53t-172 145.5t-61.5 206.5zM1409 223q0 -127 71.5 -211 t206.5 -84q209 0 209 209q0 127 -72.5 211t-209.5 84q-205 0 -205 -209z" />
<glyph unicode="&#x26;" horiz-adv-x="2631" d="M119 557q0 174 110.5 323.5t276.5 237.5t321 88q145 0 236.5 -68.5t120.5 -166.5q92 102 197.5 168.5t203.5 66.5q74 0 136.5 -18.5t142.5 -54.5q82 -37 134 -53.5t116 -16.5q86 0 143 39t57 100q0 72 -92 134.5t-256 113.5v115l344 94q72 -78 141.5 -194.5t69.5 -200.5 q0 -115 -89 -237t-210 -205t-201 -83q-53 0 -110 11q-66 -55 -94.5 -120t-28.5 -155q0 -111 59.5 -177.5t165.5 -66.5q142 0 408 129l61 -116l-293 -234q-127 -31 -295 -30q-135 0 -243.5 50t-170 135t-61.5 187l-430 -342q-106 -31 -256 -30q-176 0 -316.5 75.5t-219 207.5 t-78.5 294zM487 655q0 -119 41 -215t117 -152.5t180 -56.5q109 0 239 54.5t259 156.5l170 133q86 132 256 228l-66 31q-90 43 -147 62t-123 19q-119 0 -225 -81q-27 -127 -156 -223.5t-364 -204.5l-70 133q139 66 189.5 132t50.5 144q0 59 -38 106.5t-95 47.5 q-111 0 -164.5 -78t-53.5 -236z" />
<glyph unicode="'" horiz-adv-x="731" d="M123 1348v114l356 148h129l-73 -824l-164 -2z" />
<glyph unicode="(" horiz-adv-x="1046" d="M119 727q0 727 794 1225l86 -131q-245 -168 -373 -406.5t-128 -589.5q0 -360 120.5 -658t378.5 -466l-92 -131q-238 84 -415 249t-274 397.5t-97 510.5z" />
<glyph unicode=")" horiz-adv-x="1046" d="M48 -299q245 168 373 406.5t128 589.5q0 360 -120.5 658t-378.5 466l92 131q238 -84 415 -249t274 -397.5t97 -510.5q0 -727 -794 -1225z" />
<glyph unicode="*" horiz-adv-x="1429" d="M61 1030l113 248h115l53 -180h330v-41l-391 -178zM270 709l56 100l184 -45l164 285l35 -19l-39 -428l-242 -115zM328 1352l20 266l273 27l57 -101l-129 -135l164 -285l-35 -20zM717 1026l35 21l350 -248l-21 -267l-272 -26l-57 100l129 137zM721 1122l41 428l239 115 l158 -223l-55 -101l-184 45l-164 -284zM758 1053v41l391 178l219 -150l-113 -250h-114l-54 181h-329z" />
<glyph unicode="+" horiz-adv-x="1116" d="M82 571v136h410v409h135v-409h407v-136h-409v-407h-136v407h-407z" />
<glyph unicode="," horiz-adv-x="757" d="M76 -440q94 111 139 192.5t59 171.5l-178 113v115l428 178l125 -371l-444 -500z" />
<glyph unicode="-" horiz-adv-x="1050" d="M125 530v113l82 105h719v-113l-82 -105h-719z" />
<glyph unicode="." horiz-adv-x="675" d="M109 176q0 59 40.5 111.5t101 83t118.5 30.5q88 0 144 -57t56 -141q0 -59 -41 -110.5t-102 -82t-119 -30.5q-86 0 -142 56t-56 140z" />
<glyph unicode="/" horiz-adv-x="727" d="M16 -260l539 2197l158 -32l-543 -2198z" />
<glyph unicode="0" horiz-adv-x="1597" d="M119 557q0 174 117.5 323.5t294 237.5t339.5 88q177 0 316 -75.5t216 -207.5t77 -294q0 -174 -118 -323.5t-295 -237.5t-341 -88q-174 0 -312.5 75.5t-216 207.5t-77.5 294zM494 655q0 -195 91 -323.5t259 -128.5q260 0 260 329q0 195 -91 323t-261 128 q-129 0 -193.5 -83t-64.5 -245z" />
<glyph unicode="1" horiz-adv-x="1038" d="M113 1053l67 133h711v-115l-199 -156v-718l234 -66l-68 -133h-713v115l199 155v721z" />
<glyph unicode="2" horiz-adv-x="1337" d="M80 946l285 230q88 31 208 30q162 0 283 -40t187.5 -111.5t66.5 -165.5q0 -82 -115.5 -219.5t-357.5 -319.5h420l73 178l113 -32v-533l-164 37h-989v115q256 203 390 321.5t187.5 194.5t53.5 141q0 80 -57.5 131t-147.5 51q-141 0 -375 -125z" />
<glyph unicode="3" horiz-adv-x="1146" d="M41 961l287 229q59 16 110 16q145 0 267 -43t194 -116.5t72 -159.5q-8 -90 -81 -176t-220 -191v2q204 -82 295.5 -162.5t91.5 -187.5q0 -219 -228.5 -389t-730.5 -324l-43 150q254 90 384 156.5t183.5 138t53.5 172.5q0 88 -63.5 155.5t-211.5 137.5v102 q104 90 146.5 155.5t42.5 143.5q0 88 -49 143.5t-127 55.5q-98 0 -312 -125z" />
<glyph unicode="4" horiz-adv-x="1480" d="M61 100v115l758 909l348 121v-948h314l-72 -197h-242v-417l-348 -121v538h-758zM362 297h457v555z" />
<glyph unicode="5" horiz-adv-x="1282" d="M80 -391q274 88 411.5 154.5t186.5 131t49 156.5q0 74 -45 130.5t-173 120t-380 149.5l150 735h600l73 178l113 -33v-532l-164 37h-555l-20 -107q311 -106 481 -196.5t235.5 -180.5t65.5 -205q0 -176 -141.5 -306t-349 -215t-492.5 -167z" />
<glyph unicode="6" horiz-adv-x="1564" d="M160 627q0 209 90 400.5t318.5 389t627.5 391.5l74 -135q-398 -252 -566.5 -482t-168.5 -486q0 -135 37.5 -250t112.5 -183.5t179 -68.5q100 0 152.5 71.5t52.5 210.5q0 186 -98.5 310.5t-251.5 185.5l88 143q172 0 318.5 -70.5t233.5 -191.5t87 -264q0 -154 -103.5 -297 t-267.5 -232t-336 -89q-166 0 -298 82.5t-206.5 230t-74.5 334.5z" />
<glyph unicode="7" horiz-adv-x="1347" d="M131 696v527l164 -37h993v-129l-858 -1598l-141 64l708 1313h-680l-73 -172z" />
<glyph unicode="8" horiz-adv-x="1568" d="M119 467q0 102 94 204.5t313 250.5q-141 92 -221 188t-80 217q0 98 96.5 211t234.5 190.5t253 77.5q152 0 270.5 -50t184 -135t65.5 -185q-8 -88 -74.5 -183.5t-242.5 -246.5q141 -82 229 -146.5t148.5 -149.5t60.5 -190q0 -111 -102.5 -237.5t-250 -214.5t-266.5 -88 q-207 0 -368.5 64.5t-252.5 176t-91 246.5zM494 567q0 -102 48 -192t129 -144.5t171 -54.5q104 0 168.5 75t64.5 177q0 78 -52 145.5t-129 122t-208 131.5l-45 27q-90 -92 -118.5 -153.5t-28.5 -133.5zM598 1425q0 -100 75 -180t216 -166q63 94 80.5 145.5t17.5 116.5 q0 117 -57.5 195t-143.5 78v2q-84 0 -136 -54.5t-52 -136.5z" />
<glyph unicode="9" horiz-adv-x="1564" d="M119 586q0 154 102.5 298t267 233t334.5 89q166 0 299 -81t208 -223t75 -320q0 -203 -88 -384.5t-313.5 -366.5t-622.5 -372l-74 135q391 240 556 454t165 456q0 127 -37 236.5t-110.5 176t-180.5 66.5q-207 0 -206 -285q0 -186 97 -309t247 -184l-88 -144 q-170 0 -314.5 71t-230.5 190.5t-86 263.5z" />
<glyph unicode=":" horiz-adv-x="675" d="M109 176q0 59 40.5 111.5t101 83t118.5 30.5q88 0 144 -57t56 -141q0 -59 -41 -110.5t-102 -82t-119 -30.5q-86 0 -142 56t-56 140zM109 899q0 59 40.5 111.5t101 83t118.5 30.5q88 0 144 -57t56 -141q0 -59 -41 -110.5t-102 -82t-119 -30.5q-86 0 -142 56t-56 140z" />
<glyph unicode=";" horiz-adv-x="757" d="M76 -440q94 111 139 192.5t59 171.5l-178 113v115l428 178l125 -371l-444 -500zM109 899q0 59 40.5 111.5t101 83t118.5 30.5q88 0 144 -57t56 -141q0 -59 -41 -110.5t-102 -82t-119 -30.5q-86 0 -142 56t-56 140z" />
<glyph unicode="&#x3c;" horiz-adv-x="993" d="M61 641l758 510l80 -92l-504 -340l537 -404l-244 -145z" />
<glyph unicode="=" horiz-adv-x="1116" d="M82 387v136h952v-136h-952zM82 755v136h952v-136h-952z" />
<glyph unicode="&#x3e;" horiz-adv-x="993" d="M61 965l244 147l627 -471l-758 -510l-78 92l506 340z" />
<glyph unicode="?" horiz-adv-x="1064" d="M8 1434l252 200q86 16 209 17q98 0 212 -52.5t190.5 -130t76.5 -149.5q0 -66 -54 -121t-157 -127q-72 -51 -106.5 -83t-34.5 -62q0 -53 111 -107v-114l-261 -158q-100 55 -156.5 111.5t-56.5 125.5q0 66 52.5 123.5t146.5 128.5q72 55 105.5 90t33.5 68q0 37 -37.5 83 t-95 77.5t-114.5 31.5q-94 0 -254 -67zM240 176q0 59 41 111.5t101 83t118 30.5q88 0 144 -57t56 -141q0 -59 -41 -110.5t-102 -82t-119 -30.5q-86 0 -142 56t-56 140z" />
<glyph unicode="@" horiz-adv-x="2912" d="M119 510q0 332 229.5 602t574.5 423t666 153v4q357 0 630 -121t423.5 -336t150.5 -485q0 -193 -123.5 -356t-310 -266t-362.5 -124h-348v148l-191 -152q-66 -16 -158 -16q-135 0 -242.5 70.5t-168 191.5t-60.5 266q0 164 96.5 306.5t241 226t279.5 83.5q178 0 311 -104 l111 109h129v-957q211 53 315.5 173t104.5 300q0 223 -102.5 407.5t-315.5 296t-529 111.5q-281 0 -504 -109.5t-347.5 -305t-124.5 -441.5q0 -252 98 -468t303 -363.5t508 -184.5l-68 -133q-397 -2 -670.5 128t-409.5 366.5t-136 556.5zM1198 610q0 -150 61.5 -250 t172.5 -100q115 0 217 55v385q-12 84 -81 137.5t-190 53.5q-88 0 -134 -73t-46 -208z" />
<glyph unicode="A" horiz-adv-x="1875" d="M-2 0v115l221 166l524 1263l355 105l581 -1411l209 -105l-67 -133h-762v115l223 133l-125 305h-633l-112 -274l313 -146l-66 -133h-661zM590 711h504l-250 614z" />
<glyph unicode="B" horiz-adv-x="1628" d="M63 1479l68 133h277q186 0 366 12q139 8 205 8q152 0 267.5 -53t179 -144.5t63.5 -203.5q0 -100 -64.5 -192.5t-171.5 -164.5v3q148 -56 233 -163.5t85 -240.5q0 -129 -111.5 -242.5t-277.5 -181t-318 -67.5q-102 0 -200 10q-164 10 -254 10h-312v115l193 151v1151z M662 229q117 -45 260 -45h2q118 0 187 61.5t69 168.5q0 139 -77 228t-229 97h-40h-172v-510zM662 889h229q100 0 152.5 59.5t52.5 173.5q0 148 -70 238t-207 90q-84 0 -157 -35v-526z" />
<glyph unicode="C" horiz-adv-x="1714" d="M119 768q0 240 147.5 443.5t366.5 321.5t418 118q118 0 277 -31t233 -66v-436h-195q-158 297 -434 297q-113 0 -207 -71.5t-148.5 -196.5t-54.5 -281q0 -176 54.5 -322.5t165 -233.5t274.5 -87q186 0 530 205l82 -131l-377 -293q-90 -27 -173 -36t-177 -9 q-229 0 -407.5 104.5t-276.5 288t-98 416.5z" />
<glyph unicode="D" horiz-adv-x="1884" d="M63 1477l68 133h289q188 0 368 12q139 8 201 8q230 0 407 -101.5t274 -281.5t97 -407q0 -233 -146 -431t-363.5 -313.5t-413.5 -115.5q-94 0 -187 10q-154 10 -235 10h-324v115l193 151v1141zM662 209q104 -39 239 -39h2q129 0 234.5 73.5t166 205t60.5 294.5 q0 197 -58.5 355.5t-178 254t-296.5 95.5q-92 0 -169 -49v-1190z" />
<glyph unicode="E" horiz-adv-x="1679" d="M63 1477l68 133h1241l148 37v-523l-113 -45l-252 375h-493v-553h243l150 229h114v-595l-133 -68l-133 276h-241v-587h477l288 417l113 -47v-565l-147 37h-1295v115l193 151v1145z" />
<glyph unicode="F" horiz-adv-x="1597" d="M63 1477l68 133h1241l148 35v-523l-113 -45l-260 375h-485v-553h243l150 229h114v-600l-133 -65l-133 278h-241v-532l356 -78l-68 -133h-852v115l193 151v1145z" />
<glyph unicode="G" horiz-adv-x="1927" d="M121 768q0 240 155.5 443.5t388 321.5t441.5 118q127 0 299 -31t252 -66v-487h-193q-180 348 -477 348q-129 0 -234.5 -71.5t-167 -196.5t-61.5 -281q0 -182 60.5 -334.5t183.5 -243.5t303 -91h75.5t149.5 12v409l-329 80l67 133h828v-114l-193 -164v-195l55 -122 l-376 -232q-100 -27 -192.5 -36t-199.5 -9q-246 0 -436 104.5t-294.5 288t-104.5 416.5z" />
<glyph unicode="H" horiz-adv-x="2017" d="M63 1479l68 133h725v-115l-194 -164v-450h694v530l-228 66l68 133h725v-115l-195 -164v-1134l228 -64l-66 -133h-725v115l193 162v446h-694v-524l227 -66l-66 -133h-725v115l193 162v1134z" />
<glyph unicode="I" horiz-adv-x="952" d="M63 1479l68 133h725v-115l-194 -164v-1134l227 -64l-66 -133h-725v115l193 162v1134z" />
<glyph unicode="J" horiz-adv-x="894" d="M-2 1477l65 133h766v-115l-194 -152v-1140q0 -82 5 -150.5t13 -93.5l-463 -500l-129 101q119 145 161 247.5t42 253.5v1350z" />
<glyph unicode="K" horiz-adv-x="1851" d="M63 1477l68 133h725v-115l-194 -164v-1132l227 -66l-66 -133h-725v115l193 161v1135zM741 807l592 520l-239 150l67 133h615v-115l-668 -588l496 -669l223 -105l-68 -133h-434z" />
<glyph unicode="L" horiz-adv-x="1632" d="M63 1477l68 133h725v-115l-194 -152v-1187h460l318 458l112 -47v-604l-147 37h-1307v115l193 151v1151z" />
<glyph unicode="M" horiz-adv-x="2332" d="M63 1475l68 133h576l467 -1139l462 1139h598v-115l-194 -152v-1148l227 -68l-65 -133h-725v114l192 152v983l-508 -1247h-178l-516 1257v-1032l227 -90l-65 -133h-531v115l193 151v1116z" />
<glyph unicode="N" horiz-adv-x="1841" d="M63 1477l68 133h361l935 -1065v825l-290 107l67 133h594v-115l-194 -164v-1331h-177l-960 1096v-854l291 -109l-66 -133h-594v115l193 161v1076z" />
<glyph unicode="O" d="M119 768q0 240 148.5 443.5t369.5 321.5t420 118q235 0 415.5 -104.5t278.5 -289t98 -417.5q0 -240 -149.5 -442.5t-369.5 -320.5t-419 -118q-236 0 -415 103.5t-278 288t-99 417.5zM522 866q0 -184 56.5 -336.5t170 -243.5t281.5 -91q113 0 208 71.5t150.5 196.5 t55.5 280q0 186 -55.5 338t-169 243t-281.5 91q-115 0 -210 -71.5t-150.5 -196.5t-55.5 -281z" />
<glyph unicode="P" horiz-adv-x="1622" d="M63 1477l68 133h340q182 0 358 12q131 8 193 8q160 0 282.5 -62.5t190.5 -171t68 -241.5q0 -147 -113 -276t-285 -203q-155 -67 -304 -67q-16 0 -32 1l-90 56l68 133h115v2q108 0 171.5 75.5t63.5 208.5q0 162 -78 263.5t-229 101.5q-100 0 -188 -61v-1178l356 -78 l-68 -133h-852v115l193 151v1141z" />
<glyph unicode="Q" d="M119 768q0 240 148.5 443.5t369.5 321.5t420 118q236 0 416 -104.5t278 -289t98 -417.5q0 -238 -145 -438.5t-367 -321.5q178 -129 330 -227.5t182 -98.5h277l67 -143q-387 -152 -530 -152q-70 0 -216.5 150.5t-338.5 378.5q-104 -29 -197 -29q-236 0 -415 103.5 t-278 288t-99 417.5zM522 866q0 -184 56.5 -336.5t170 -243.5t281.5 -91q113 0 208 71.5t150.5 196.5t55.5 280q0 186 -55.5 338t-169 243t-281.5 91q-115 0 -210 -71.5t-150.5 -196.5t-55.5 -281z" />
<glyph unicode="R" horiz-adv-x="1734" d="M66 1475l67 133h340q178 0 350 12q123 8 185 8q158 0 279.5 -56t188 -152.5t66.5 -215.5q0 -143 -127 -266t-309 -184l164 -47l266 -476l213 -98l-66 -133h-444l-395 709l-90 55l51 100h94q111 0 174.5 67.5t63.5 190.5q0 143 -77 234.5t-224 91.5q-92 0 -172 -57v-1194 l227 -66l-66 -133h-725v115l193 161v1137z" />
<glyph unicode="S" horiz-adv-x="1433" d="M102 53v449h193q90 -166 209 -258t239 -92q94 0 151.5 54t57.5 132q0 61 -48 116.5t-121.5 102.5t-196.5 115q-152 84 -247 147.5t-160.5 147.5t-65.5 184q0 102 94 220t230 199t251 81q137 0 321.5 -31t270.5 -66v-448h-193q-86 166 -189 258t-218 92q-82 0 -129 -52 t-47 -132q0 -66 50 -124t125 -106.5t202 -117.5q150 -82 241.5 -143.5t155 -143.5t63.5 -180q0 -102 -100 -220t-244.5 -199t-263.5 -81q-143 0 -343 30.5t-288 65.5z" />
<glyph unicode="T" horiz-adv-x="1730" d="M92 1083v564l148 -37h1251l147 37v-564l-112 -45l-289 416h-190v-1261l229 -60l-68 -133h-725v115l193 151v1188h-182l-289 -416z" />
<glyph unicode="U" horiz-adv-x="1839" d="M18 1477l66 133h725v-115l-195 -152v-686q0 -219 113 -340.5t340 -121.5q86 0 170 52t139.5 152.5t55.5 237.5v747l-238 93l66 133h544v-115l-194 -152v-708q0 -215 -107.5 -368.5t-266.5 -230.5t-308 -77q-197 0 -353.5 81t-243.5 223.5t-87 320.5v833z" />
<glyph unicode="V" horiz-adv-x="1878" d="M-14 1477l65 133h764v-115l-223 -133l440 -1077l432 1044l-313 148l66 133h661l-2 -115l-223 -168l-525 -1261l-352 -105l-581 1411z" />
<glyph unicode="W" horiz-adv-x="2623" d="M-10 1479l65 133h664v-115l-144 -106l408 -1084l240 748l-115 323l-186 99l65 133h717v-115l-205 -127l363 -1063l358 1020l-324 152l68 133h659l3 -113l-207 -158l-457 -1271l-352 -105l-291 823l-229 -718l-355 -105l-542 1415z" />
<glyph unicode="X" horiz-adv-x="1814" d="M12 2v115l244 164l461 475l-527 620l-172 101l68 133h713v-115l-168 -98l336 -400l313 351l-252 129l66 133h661v-115l-229 -154l-436 -483l548 -647l148 -78l-66 -133h-712v115l161 106l-335 400l-345 -359l250 -127l-67 -133h-660z" />
<glyph unicode="Y" horiz-adv-x="1734" d="M-12 1475l41 133h698v-115l-154 -119l367 -571l367 530l-299 144l65 133h662v-115l-203 -147l-485 -711v-444l227 -62l-66 -133h-712v115l192 151v273l-551 862z" />
<glyph unicode="Z" horiz-adv-x="1617" d="M90 0v156l989 1298h-561l-252 -395l-112 45v543l147 -37h1217v-156l-990 -1298h578l278 438l113 -47v-584l-147 37h-1260z" />
<glyph unicode="[" horiz-adv-x="890" d="M195 -430v2384h645v-144h-297v-2097h297v-143h-645z" />
<glyph unicode="\" horiz-adv-x="727" d="M14 1905l543 -2198l154 33l-539 2197z" />
<glyph unicode="]" horiz-adv-x="890" d="M51 -286h297v2097h-297v143h645v-2384h-645v144z" />
<glyph unicode="^" horiz-adv-x="1314" d="M90 596v123l373 678l354 104l408 -776v-129h-336l-328 608l-336 -608h-135z" />
<glyph unicode="_" horiz-adv-x="1071" d="M82 -166h907v-135h-907v135z" />
<glyph unicode="`" horiz-adv-x="778" d="M59 1688l52 100l376 39l220 -402l-117 -55z" />
<glyph unicode="a" horiz-adv-x="1361" d="M98 307q0 80 49.5 157t141.5 142h514v35q0 113 -61.5 166t-163.5 53q-143 0 -375 -112l-62 116l285 230q101 30 235 30h9q229 0 355 -104.5t126 -302.5v-512l184 -72l-65 -133h-467v178l-232 -182q-41 -16 -102 -16q-197 0 -284 96t-87 231zM442 377q0 -51 36 -86t95 -35 v-2q105 0 230 86v131h-330q-16 -25 -23.5 -46.5t-7.5 -47.5z" />
<glyph unicode="b" horiz-adv-x="1495" d="M27 1509v115l401 164h129v-862l227 182q66 16 154 16q125 0 226.5 -70.5t157.5 -193.5t56 -272q0 -162 -104.5 -302.5t-261 -223t-301.5 -82.5q-82 0 -153 31.5t-126 88.5l-94 -100h-129v1389zM557 440q0 -96 70.5 -160.5t201.5 -64.5h-2q88 0 134.5 69.5t46.5 204.5 q0 162 -51.5 266.5t-147.5 104.5q-68 0 -128 -16.5t-124 -59.5v-344z" />
<glyph unicode="c" horiz-adv-x="1306" d="M119 516q0 162 97 302t244.5 223t284.5 83q97 0 224 -23.5t184 -51.5v-381h-129q-78 104 -176 161.5t-205 57.5q-76 0 -116 -71t-40 -202q0 -166 71 -274.5t202 -108.5q133 0 383 129l61 -116l-295 -234q-113 -30 -259 -30h-9q-150 0 -269.5 70.5t-186 193.5t-66.5 272z " />
<glyph unicode="d" horiz-adv-x="1495" d="M119 516q0 162 104.5 302t261 223t301.5 83q82 0 152 -41v306l-182 120v115l401 164h129v-1593l184 -62l-67 -133h-465v152l-197 -156q-66 -16 -151 -16q-135 0 -242.5 70.5t-168 193.5t-60.5 272zM487 612q0 -156 58.5 -257t169.5 -101q121 0 223 59v392q-12 80 -82 131 t-188 51q-180 0 -181 -275z" />
<glyph unicode="e" horiz-adv-x="1353" d="M119 516q0 162 104.5 302t261 223t301.5 83q215 0 333 -164q114 -158 114 -435v-19h-737q20 -125 87.5 -200t176.5 -75q143 0 411 144l62 -117l-311 -248q-117 -30 -271 -30h-10q-150 0 -269.5 70.5t-186 193.5t-66.5 272zM489 641h392q-16 127 -60.5 186.5t-148.5 59.5 h2q-90 0 -135 -60.5t-50 -185.5z" />
<glyph unicode="f" horiz-adv-x="999" d="M51 907v135h219v158q0 162 94.5 302t236.5 223t273 83q72 0 164 -18t133 -41v-367h-129q-49 90 -121.5 142.5t-146.5 52.5q-76 0 -116 -63.5t-40 -184.5v-287h345v-135h-345v-692l312 -82l-66 -133h-776v115l182 153v639h-219z" />
<glyph unicode="g" horiz-adv-x="1310" d="M80 -57h129q100 -135 203.5 -206t234.5 -71q68 0 114 30t46 62q0 47 -54.5 83t-166.5 87q-121 53 -182.5 95.5t-61.5 97.5q0 49 75 100t179 90q-41 -4 -61 -4q-125 0 -228.5 49.5t-163 132t-59.5 177.5q0 117 86 223t223 170.5t281 64.5q164 0 289 -82h337l3 -137h-211 q34 -64 34 -135q0 -129 -105.5 -244.5t-260.5 -175.5q-53 -61 -53 -123q0 -29 45 -56.5t141 -70.5q141 -61 217 -113.5t76 -121.5q0 -66 -82 -163t-204 -170t-236 -73q-125 0 -297 39t-287 78v367zM422 764q0 -98 64.5 -160.5t168.5 -62.5q66 0 102 31.5t36 95.5 q0 100 -64.5 158.5t-171.5 58.5q-135 0 -135 -121z" />
<glyph unicode="h" horiz-adv-x="1482" d="M47 0v115l182 153v1121l-182 120v115l402 164h129v-864l229 184q55 16 125 16q156 0 249 -85t93 -230v-614l184 -62l-67 -133h-465v655q0 96 -30 136t-103 40q-109 0 -215 -69v-567l184 -62l-68 -133h-647z" />
<glyph unicode="i" horiz-adv-x="835" d="M88 0v115l182 153v475l-182 121v115l401 164h129v-948l185 -62l-68 -133h-647zM183 1536q0 59 40.5 110.5t101 82t118.5 30.5q88 0 144 -56t56 -140q0 -59 -41 -110.5t-102 -82.5t-119 -31q-86 0 -142 56.5t-56 140.5z" />
<glyph unicode="j" horiz-adv-x="790" d="M33 -440q123 145 165 247.5t42 253.5v709l-183 127v115l402 131h129v-940q0 -82 5 -150.5t13 -93.5l-444 -500zM152 1520q0 59 40.5 110.5t101 82t118.5 30.5q88 0 144 -56t56 -140q0 -59 -41 -110.5t-102 -82.5t-119 -31q-86 0 -142 56.5t-56 140.5z" />
<glyph unicode="k" horiz-adv-x="1501" d="M47 0v115l182 153v1121l-182 120v115l402 164h129v-1593l184 -62l-68 -133h-647zM657 551l361 287l-250 135l66 133h591v-115l-424 -348l277 -430l203 -78l-66 -133h-424z" />
<glyph unicode="l" horiz-adv-x="794" d="M47 0v115l182 153v1121l-182 120v115l402 164h129v-1593l184 -62l-68 -133h-647z" />
<glyph unicode="m" horiz-adv-x="2154" d="M86 0v115l182 153v465l-182 115v115l426 180l80 -238l246 203q49 16 112 16q121 0 204 -56t112 -155l237 195q49 16 113 16q150 0 239 -85t89 -230v-614l182 -62l-66 -133h-467v680q0 84 -25.5 117.5t-92.5 33.5q-100 0 -197 -69v-572l172 -57l-66 -133h-454v680 q0 84 -25.5 117.5t-93.5 33.5q-100 0 -195 -69v-572l170 -57l-65 -133h-635z" />
<glyph unicode="n" horiz-adv-x="1523" d="M88 0v115l182 153v465l-182 115v115l426 180l80 -238l254 203q55 16 125 16q156 0 249 -85t93 -230v-614l184 -62l-67 -133h-465v655q0 96 -30 136t-103 40q-109 0 -216 -69v-567l185 -62l-68 -133h-647z" />
<glyph unicode="o" horiz-adv-x="1425" d="M119 516q0 162 104.5 302t261 223t301.5 83q152 0 271 -70.5t185.5 -193.5t66.5 -272q0 -162 -104.5 -302.5t-261.5 -223t-302 -82.5q-150 0 -269.5 70.5t-186 193.5t-66.5 272zM494 614q0 -172 69.5 -285.5t196.5 -113.5q84 0 128 70.5t44 206.5q0 172 -69.5 283.5 t-194.5 111.5q-86 0 -130 -68.5t-44 -204.5z" />
<glyph unicode="p" horiz-adv-x="1556" d="M88 -406l182 154v985l-182 115v115l426 180l80 -240l256 205q66 16 149 16q125 0 226.5 -70.5t158 -193.5t56.5 -272q0 -162 -104.5 -302.5t-261 -223t-302.5 -82.5h-2q-84 0 -152 43v-328l312 -82l-66 -133h-776v114zM616 440q0 -96 71 -160.5t202 -64.5q88 0 134 69.5 t46 204.5q0 154 -51 252.5t-148 98.5h-2q-67 0 -127.5 -16.5t-124.5 -59.5v-324z" />
<glyph unicode="q" horiz-adv-x="1495" d="M121 508q0 164 96 306t240.5 226t279.5 84q178 0 312 -104l108 108h129v-1462l199 -51l-68 -133h-788v115l311 141v409l-190 -151q-66 -16 -158 -16q-135 0 -242.5 70.5t-168 191t-60.5 266.5zM489 608q0 -150 60.5 -250t171.5 -100v-2q115 0 219 57v383 q-12 84 -82 138.5t-188 54.5q-90 0 -135.5 -72t-45.5 -209z" />
<glyph unicode="r" horiz-adv-x="1165" d="M88 0v115l182 153v465l-182 115v115l426 180l78 -228l186 193q43 16 101 16q106 0 183 -49t107 -135l-196 -246h-129q-2 74 -20.5 105.5t-57.5 31.5v3q-74 0 -148 -66v-553l312 -82l-66 -133h-776z" />
<glyph unicode="s" horiz-adv-x="1144" d="M123 55v355h129q61 -109 151.5 -169.5t178.5 -60.5q45 0 72.5 23.5t27.5 56.5q0 39 -53.5 79t-163.5 101q-109 61 -174.5 105.5t-113.5 100.5t-48 122q0 74 70.5 158t173 141t188.5 57q104 0 244.5 -23.5t204.5 -51.5v-342h-129q-55 102 -132 159.5t-159 57.5 q-41 0 -65.5 -23.5t-24.5 -56.5q0 -43 54 -84t173 -109q158 -86 243 -155.5t85 -159.5q0 -76 -73 -159t-178.5 -140t-193.5 -57q-113 0 -267.5 23.5t-219.5 51.5z" />
<glyph unicode="t" horiz-adv-x="1009" d="M12 907v109l441 479h129v-453h368v-135h-368v-549q0 -141 159 -141q41 0 81 13.5t102 45.5l61 -116l-207 -164q-70 -16 -166 -16q-197 0 -288 89t-91 275v563h-221z" />
<glyph unicode="u" horiz-adv-x="1470" d="M35 838v114l401 178h129v-684q0 -98 29 -137t102 -39q106 0 209 70v393l-182 105v114l401 178h129v-935l185 -62l-66 -133h-467v176l-221 -182q-55 -16 -125 -17q-158 0 -250 85t-92 231v440z" />
<glyph unicode="v" horiz-adv-x="1333" d="M-8 856v115l452 172l78 -309l223 -545l248 483l-293 199l66 133h512v-115l-524 -989h-258l-306 741z" />
<glyph unicode="w" horiz-adv-x="1955" d="M-8 856v115l452 172l78 -309l223 -543l166 332l-47 116l-200 117v115l452 172l78 -309l221 -533l213 465l-305 205l68 133h512v-115l-478 -989h-258l-180 440l-233 -440h-258l-306 741z" />
<glyph unicode="x" horiz-adv-x="1355" d="M25 969l65 133h395l295 -393l172 159l-184 103l66 133h475v-115l-449 -401l252 -328l215 -131l-67 -133h-394l-288 401l-181 -166l185 -102l-68 -133h-473v115l451 403l-271 352z" />
<glyph unicode="y" horiz-adv-x="1333" d="M-8 856v115l452 172l78 -309l223 -545l248 483l-293 199l66 133l512 2v-115l-524 -989l-482 -541l-129 101q152 182 213.5 312t69.5 298l-236 569z" />
<glyph unicode="z" horiz-adv-x="1320" d="M129 0v129l629 627h-416l-78 -162l-112 35v512l163 -37h877v-129l-629 -627h410l84 180l112 -32v-533l-163 37h-877z" />
<glyph unicode="{" horiz-adv-x="1015" d="M82 668v188h137q92 0 141.5 81t49.5 237v262q0 160 105.5 298t272.5 220l74 -131q-104 -51 -104 -258v-293q0 -160 -100.5 -296t-251.5 -214q152 -78 252 -214t100 -296v-293q0 -207 104 -258l-74 -131q-168 82 -273 220t-105 298v262q0 156 -49.5 237t-141.5 81h-137z " />
<glyph unicode="|" horiz-adv-x="763" d="M293 -410v2429h178v-2429h-178z" />
<glyph unicode="}" horiz-adv-x="1015" d="M154 -299q104 51 104 258v293q0 160 100.5 296t251.5 214q-152 78 -252 214t-100 296v293q0 207 -104 258l74 131q168 -82 273 -220t105 -298v-262q0 -156 49.5 -237t141.5 -81h137v-188h-137q-92 0 -141.5 -81t-49.5 -237v-262q0 -160 -105.5 -298t-272.5 -220z" />
<glyph unicode="~" horiz-adv-x="1337" d="M63 553q59 152 155.5 260.5t187.5 108.5q75 0 147 -33t176 -98q86 -53 140.5 -80t103.5 -27q45 0 93 38t93 99l113 -92q-59 -152 -155.5 -259.5t-186.5 -107.5q-74 0 -146.5 34t-173.5 98q-84 53 -140 79.5t-105 26.5q-45 0 -95.5 -38t-93.5 -99z" />
<glyph unicode="&#xa1;" horiz-adv-x="692" d="M113 -520l123 1057h213l145 -805v-115l-352 -137h-129zM117 899q0 59 41 111.5t102.5 83t118.5 30.5q88 0 144.5 -57t56.5 -141q0 -59 -41 -110.5t-102.5 -82.5t-119.5 -31q-86 0 -143 56.5t-57 140.5z" />
<glyph unicode="&#xa2;" horiz-adv-x="1306" d="M119 520q0 137 71.5 260t185 209t238.5 119v428h177v-412q96 -6 203.5 -28.5t158.5 -46.5v-381h-129q-78 104 -176 161.5t-205 57.5q-76 0 -116 -71t-40 -202q0 -166 71 -274.5t202 -108.5q133 0 383 129l61 -116l-297 -232q-53 -14 -116 -20v-398h-177v390 q-143 6 -255.5 77.5t-176 192.5t-63.5 266z" />
<glyph unicode="&#xa3;" horiz-adv-x="1476" d="M8 690l68 135h209v215q0 162 97 302.5t244.5 223.5t284.5 83q96 0 223.5 -23.5t184.5 -52.5v-379h-129q-76 102 -175.5 160.5t-205.5 58.5q-84 0 -130 -70.5t-46 -203.5v-314h362l-67 -135h-297q-6 -84 -48 -175t-110 -167h703l75 180l113 -34v-533l-164 37h-1114v129 l199 209v354h-277z" />
<glyph unicode="&#xa4;" horiz-adv-x="1824" d="M121 1499l100 100l336 -337q102 68 215 105.5t213 37.5q193 0 338 -90l283 282l100 -100l-274 -272q70 -76 106.5 -174.5t36.5 -210.5l4 4q0 -111 -52 -213.5t-143 -188.5l328 -327l-100 -101l-338 338q-100 -68 -215 -105.5t-215 -37.5q-193 0 -338 90l-283 -285 l-100 101l272 272q-70 74 -106.5 172t-36.5 211t52 215t142 189zM551 870q0 -190 105.5 -314t304.5 -124q86 0 158.5 42t115.5 115t43 159q0 190 -104.5 314t-305.5 124q-86 0 -158.5 -42t-115.5 -115t-43 -159z" />
<glyph unicode="&#xa5;" horiz-adv-x="1734" d="M-12 1475l41 133h698v-115l-154 -119l367 -571l367 530l-299 144l65 133h662v-115l-205 -149l-400 -584h465l-67 -135h-484v-176h551l-67 -136h-484v-122l228 -62l-66 -133h-712v115l192 151v51h-561l68 136h493v86l-57 90h-504l68 135h350l-406 637z" />
<glyph unicode="&#xa6;" horiz-adv-x="763" d="M293 -410v949h178v-949h-178zM293 1071v948h178v-948h-178z" />
<glyph unicode="&#xa7;" horiz-adv-x="1511" d="M133 1151q0 102 96.5 220t235.5 199t256 81q143 0 335.5 -31t282.5 -66v-407h-129q-25 102 -61.5 154.5t-77.5 52.5q-27 0 -41 -38t-14 -95q0 -92 42 -177.5t130 -218.5q98 -147 149.5 -256.5t51.5 -234.5q0 -100 -101.5 -218t-249 -200t-272.5 -82q-143 0 -343 31 t-288 65v408h129q29 -94 71 -150.5t83 -56.5q39 0 63.5 38t24.5 97q0 86 -42 171t-126 210q-100 156 -152.5 266.5t-52.5 237.5zM438 1176q0 -104 50.5 -209t150.5 -265q92 -145 137 -238t45 -181q0 -78 -49 -140.5t-166 -122.5q57 -16 166 -16q59 0 131 48t121 120t49 137 q0 104 -48 205.5t-146 255.5q-92 139 -140.5 238.5t-48.5 195.5q0 78 50.5 139.5t166.5 120.5q-57 16 -168 17q-63 0 -133.5 -48.5t-119 -120t-48.5 -136.5z" />
<glyph unicode="&#xa8;" horiz-adv-x="1222" d="M113 1555q0 54 35 102t87.5 76t103.5 28q76 0 124.5 -52t48.5 -130q0 -54 -35.5 -101t-88.5 -75t-103 -28q-75 0 -123.5 51.5t-48.5 128.5zM718 1555q0 54 35 102t87.5 76t103.5 28q76 0 124.5 -52t48.5 -130q0 -54 -35.5 -101t-88.5 -75t-103 -28q-75 0 -123.5 51.5 t-48.5 128.5z" />
<glyph unicode="&#xa9;" horiz-adv-x="2156" d="M143 768q0 240 160 443.5t397.5 321.5t450.5 118q256 0 451.5 -104.5t303 -289t107.5 -417.5q0 -240 -160.5 -442.5t-397 -320.5t-449.5 -118q-254 0 -451 103.5t-304.5 288t-107.5 417.5zM442 866q0 -188 75 -342.5t228.5 -248t378.5 -93.5q160 0 295 73t215 202t80 286 q0 190 -74.5 345t-228.5 247t-379 92q-160 0 -295 -72.5t-215 -201.5t-80 -287zM608 778q0 127 78 237.5t198 177.5t232 67q74 0 172 -24t139 -52v-330h-129q-49 90 -118.5 142.5t-141.5 52.5q-47 0 -72.5 -44t-25.5 -128q0 -121 50 -201t140 -80q104 0 287 82l62 -117 l-199 -160q-113 -31 -268 -30q-115 0 -207 54t-144.5 147.5t-52.5 205.5z" />
<glyph unicode="&#xaa;" horiz-adv-x="1175" d="M97 1080q0 60 42 118t121 106h437v27q0 85 -52.5 124.5t-139.5 39.5q-121 0 -318 -84l-53 87l242 172q88 24 207 23q195 0 302 -78.5t107 -226.5v-384l157 -54l-56 -100h-396v134l-198 -137q-35 -12 -86 -12q-168 0 -242 72t-74 173zM390 1133q0 -39 30.5 -65t80.5 -26 v-2q89 0 196 65v98h-281q-14 -19 -20 -35t-6 -35z" />
<glyph unicode="&#xab;" horiz-adv-x="1511" d="M78 555l590 510l116 -96l-254 -371l254 -457l-116 -96zM739 555l420 360l117 -94l-113 -225l113 -307l-117 -96z" />
<glyph unicode="&#xac;" horiz-adv-x="1183" d="M82 571v136h952v-533h-135v397h-817z" />
<glyph unicode="&#xad;" horiz-adv-x="1050" d="M125 530v113l82 105h719v-113l-82 -105h-719z" />
<glyph unicode="&#xae;" horiz-adv-x="2105" d="M119 768q0 240 159.5 443.5t396 321.5t449.5 118q256 0 452 -104.5t303.5 -289t107.5 -417.5q0 -240 -160 -442.5t-397.5 -320.5t-450.5 -118q-254 0 -449.5 103.5t-303 288t-107.5 417.5zM418 866q0 -186 74.5 -341.5t227 -249t378.5 -93.5q159 0 294.5 73t215.5 202 t80 286q0 190 -75 345t-227.5 247t-379.5 92q-160 0 -295.5 -72.5t-214 -201.5t-78.5 -287zM594 1120l41 119h227q82 0 205 10q51 6 104 6q86 0 154 -27.5t105.5 -74.5t37.5 -102q0 -84 -87 -161t-224 -108l211 -49l57 -155l105 -54l-41 -121h-311l-95 267 q-16 45 -37.5 67.5t-56.5 30.5v-365h-375v103l107 104v459zM987 872q35 -10 74 -10q98 0 98 125q0 55 -36 92t-101 37q-18 0 -35 -10v-234z" />
<glyph unicode="&#xaf;" horiz-adv-x="1228" d="M143 1513v140h959v-140h-959z" />
<glyph unicode="&#xb0;" horiz-adv-x="882" d="M57 1440q0 98 65.5 183t167 135t199.5 50q86 0 155 -38.5t105.5 -106.5t36.5 -147q0 -98 -66.5 -183.5t-167.5 -135.5t-200 -50q-86 0 -153.5 39t-104.5 106.5t-37 147.5zM272 1513q0 -88 46.5 -149t123.5 -61q57 0 93 37.5t36 103.5q0 86 -46 147.5t-126 61.5 q-59 0 -93 -36t-34 -104z" />
<glyph unicode="&#xb1;" horiz-adv-x="1116" d="M82 -57h952v-136h-952v136zM82 571v136h410v409h135v-409h407v-136h-409v-407h-136v407h-407z" />
<glyph unicode="&#xb2;" horiz-adv-x="1103" d="M80 1513l229 160q66 20 166 21q195 0 312.5 -60.5t117.5 -160.5q0 -57 -99 -152.5t-306 -224.5h334l63 133l113 -33v-373l-154 27h-768v113q195 131 297 208.5t142 127t40 92.5q0 41 -39 67.5t-98 26.5q-113 0 -301 -86z" />
<glyph unicode="&#xb3;" horiz-adv-x="944" d="M39 1522l229 159q43 12 88 13q117 0 214.5 -30t154.5 -81t57 -113q-6 -63 -63 -123.5t-176 -132.5q164 -55 236.5 -111t72.5 -132q0 -154 -183.5 -272.5t-584.5 -227.5l-35 127q203 57 308.5 101t147.5 91.5t42 112.5q0 57 -50.5 98t-168.5 86v93q84 63 116.5 109 t32.5 100q0 53 -39 85.5t-100 32.5q-82 0 -250 -86z" />
<glyph unicode="&#xb4;" horiz-adv-x="778" d="M154 1425l219 402l377 -39l51 -100l-529 -318z" />
<glyph unicode="&#xb5;" horiz-adv-x="1437" d="M80 989l338 141h129v-684q0 -98 28.5 -137t102.5 -39q106 0 209 70v399q0 55 -33 123t-86 127l338 141h129v-759q0 -56 32.5 -123.5t86.5 -126.5l-338 -141h-129v196l-221 -182q-55 -16 -119 -17v-106q-2 -53 31.5 -121.5t87.5 -128.5l-338 -141h-129v1259q0 55 -33 123 t-86 127z" />
<glyph unicode="&#xb6;" horiz-adv-x="1734" d="M51 1085q0 145 93.5 270.5t232.5 200t266 74.5l-2 2q82 0 164 -10q137 -10 209 -10h90v-2130h-393v115l215 178v856q-74 -2 -248 -13q-123 -8 -180 -8q-131 0 -232.5 62.5t-158 171t-56.5 241.5zM1264 -518v2130h372v-115l-194 -164v-1652l227 -66l-67 -133h-338z" />
<glyph unicode="&#xb7;" horiz-adv-x="675" d="M109 537q0 59 40.5 111t101 83t118.5 31q88 0 144 -57.5t56 -139.5q0 -59 -41 -111.5t-102 -83t-119 -30.5q-86 0 -142 56.5t-56 140.5z" />
<glyph unicode="&#xb8;" horiz-adv-x="1228" d="M438 -426q74 25 107 56.5t33 76.5q0 41 -26 74t-95 78q125 104 219 186t170 166l117 -72l-2 -2q-50 -57 -110 -113.5t-153 -136.5q106 -63 145.5 -112t39.5 -111q0 -94 -109.5 -144t-335.5 -61v115z" />
<glyph unicode="&#xb9;" horiz-adv-x="874" d="M113 1567l53 112h569v-100l-157 -109v-462l184 -43l-53 -115h-570v102l160 109v461z" />
<glyph unicode="&#xba;" horiz-adv-x="1247" d="M117 1237q0 121 89 226t222 167.5t256 62.5q129 0 230.5 -53t158 -145t56.5 -204q0 -121 -89 -226.5t-222.5 -167.5t-256.5 -62q-128 0 -229.5 53t-158 145t-56.5 204zM436 1310q0 -128 59 -213.5t167 -85.5q71 0 108.5 53t37.5 155q0 129 -59 212.5t-165 83.5 q-73 0 -110.5 -51.5t-37.5 -153.5z" />
<glyph unicode="&#xbb;" horiz-adv-x="1511" d="M236 287l112 225l-112 307l116 94l420 -360l-420 -363zM727 139l254 371l-254 459l117 94l592 -510l-592 -510z" />
<glyph unicode="&#xbc;" horiz-adv-x="2168" d="M113 1567l53 112h569v-100l-157 -109v-462l184 -43l-53 -115h-570v102l160 109v461zM423 -344l1272 2394l121 -59l-1274 -2397zM1034 -12l607 637l278 84v-664h250l-57 -158h-193v-270l-278 -86v356h-607v101zM1297 45h344v367z" />
<glyph unicode="&#xbd;" horiz-adv-x="2416" d="M113 1567l53 112h569v-100l-157 -109v-462l184 -43l-53 -115h-570v102l160 109v461zM423 -344l1272 2394l121 -59l-1274 -2397zM1393 502l229 160q66 20 166 20q195 0 312.5 -60.5t117.5 -160.5q0 -57 -99 -152.5t-306 -224.5h334l63 133l113 -33v-372l-154 26h-768v113 q195 131 297 209t142 127t40 92q0 41 -39 67.5t-98 26.5q-113 0 -301 -86z" />
<glyph unicode="&#xbe;" horiz-adv-x="2238" d="M39 1522l229 159q43 12 88 13q117 0 214.5 -30t154.5 -81t57 -113q-6 -63 -63 -123.5t-176 -132.5q164 -55 236.5 -111t72.5 -132q0 -154 -183.5 -272.5t-584.5 -227.5l-35 127q203 57 308.5 101t147.5 91.5t42 112.5q0 57 -50.5 98t-168.5 86v93q84 63 116.5 109 t32.5 100q0 53 -39 85.5t-100 32.5q-82 0 -250 -86zM493 -344l1272 2394l121 -59l-1274 -2397zM1103 -12l607 637l278 84v-664h250l-57 -158h-193v-270l-278 -86v356h-607v101zM1366 45h344v367z" />
<glyph unicode="&#xbf;" horiz-adv-x="901" d="M-27 -209q0 66 54.5 121t156.5 127q72 51 107 83t35 62q0 53 -111 107v115l260 157q98 -53 156.5 -110.5t58.5 -124.5q0 -66 -51 -122t-147 -132q-72 -53 -107 -89t-35 -69q0 -37 38 -83t96.5 -77.5t113.5 -31.5q96 0 256 67l61 -115l-251 -200q-88 -16 -209 -17 q-98 0 -212 52.5t-192 130t-78 149.5zM225 899q0 59 41 111.5t102.5 83t118.5 30.5q88 0 144.5 -57t56.5 -141q0 -59 -41 -110.5t-102.5 -82.5t-118.5 -31q-86 0 -143.5 56.5t-57.5 140.5z" />
<glyph unicode="&#xc0;" horiz-adv-x="1875" d="M-2 0v115l221 166l524 1263l355 105l581 -1411l209 -105l-67 -133h-762v115l223 133l-125 305h-633l-112 -274l313 -146l-66 -133h-661zM458 2196l52 100l376 39l220 -402l-117 -55zM590 711h504l-250 614z" />
<glyph unicode="&#xc1;" horiz-adv-x="1875" d="M-2 0v115l221 166l524 1263l355 105l581 -1411l209 -105l-67 -133h-762v115l223 133l-125 305h-633l-112 -274l313 -146l-66 -133h-661zM590 711h504l-250 614zM756 1933l219 402l377 -39l51 -100l-529 -318z" />
<glyph unicode="&#xc2;" horiz-adv-x="1875" d="M-2 0v115l221 166l524 1263l355 105l581 -1411l209 -105l-67 -133h-762v115l223 133l-125 305h-633l-112 -274l313 -146l-66 -133h-661zM424 1989l493 334l535 -322l-51 -100l-369 -39l-168 248l-360 -244zM590 711h504l-250 614z" />
<glyph unicode="&#xc3;" horiz-adv-x="1875" d="M-2 0v115l221 166l524 1263l355 105l581 -1411l209 -105l-67 -133h-762v115l223 133l-125 305h-633l-112 -274l313 -146l-66 -133h-661zM430 2060l447 295q88 -90 151.5 -131t116.5 -41q47 0 94 31l105 68l80 -123l-447 -295q-92 92 -154.5 133t-113.5 41q-45 0 -96 -35 l-103 -65zM590 711h504l-250 614z" />
<glyph unicode="&#xc4;" horiz-adv-x="1875" d="M-2 0v115l221 166l524 1263l355 105l581 -1411l209 -105l-67 -133h-762v115l223 133l-125 305h-633l-112 -274l313 -146l-66 -133h-661zM365 2060q0 57 36.5 106.5t92 79t106.5 29.5q78 0 129 -54t51 -134q0 -55 -36.5 -104.5t-92 -78t-106.5 -28.5q-76 0 -128 53 t-52 131zM590 711h504l-250 614zM1077 2060q0 57 37 106.5t92.5 79t106.5 29.5q78 0 129 -54t51 -134q0 -55 -37 -104.5t-92 -78t-107 -28.5q-75 0 -127.5 53t-52.5 131z" />
<glyph unicode="&#xc5;" horiz-adv-x="1875" d="M-2 0v115l221 166l524 1263l355 105l581 -1411l209 -105l-67 -133h-762v115l223 133l-125 305h-633l-112 -274l313 -146l-66 -133h-661zM580 2044q0 74 65.5 140.5t163.5 105.5t193 39q118 0 197 -61.5t79 -151.5q0 -74 -65.5 -140.5t-164 -105.5t-192.5 -39 q-117 0 -196.5 61.5t-79.5 151.5zM590 711h504l-250 614zM801 2130q0 -74 46 -122t128 -48q41 0 62.5 18.5t21.5 53.5q0 74 -46 122t-130 48q-39 0 -60.5 -18.5t-21.5 -53.5z" />
<glyph unicode="&#xc6;" horiz-adv-x="2291" d="M0 2v115l217 164l549 1120l-256 76l68 133h1407l147 37v-523l-113 -45l-252 375h-419v-553h170l149 229h115v-595l-133 -68l-133 276h-168v-587h403l289 417l112 -47l2 -561l-147 37h-1221v115l193 151v477h-328l-233 -477l235 -133l-67 -133h-586zM729 903h250v510z" />
<glyph unicode="&#xc7;" horiz-adv-x="1714" d="M119 768q0 240 147.5 443.5t366.5 321.5t418 118q119 0 277.5 -31t232.5 -66v-436h-195q-158 297 -434 297q-113 0 -207 -71.5t-148.5 -196.5t-54.5 -281q0 -176 54.5 -322.5t165 -233.5t274.5 -87q186 0 530 205l82 -131l-377 -293v-4q-82 -25 -174 -35q-61 -53 -92 -78 q106 -63 145 -112t39 -111q0 -94 -109.5 -144t-334.5 -61v115q74 25 106.5 56.5t32.5 76.5q0 41 -25.5 74t-95.5 78l121 102q-219 8 -389 113.5t-263 286t-93 407.5z" />
<glyph unicode="&#xc8;" horiz-adv-x="1679" d="M63 1477l68 133h1241l148 37v-523l-113 -45l-252 375h-493v-553h243l150 229h114v-595l-133 -68l-133 276h-241v-587h477l288 417l113 -47v-565l-147 37h-1295v115l193 151v1145zM389 2196l52 100l376 39l220 -402l-117 -55z" />
<glyph unicode="&#xc9;" horiz-adv-x="1679" d="M63 1477l68 133h1241l148 37v-523l-113 -45l-252 375h-493v-553h243l150 229h114v-595l-133 -68l-133 276h-241v-587h477l288 417l113 -47v-565l-147 37h-1295v115l193 151v1145zM686 1933l219 402l377 -39l51 -100l-529 -318z" />
<glyph unicode="&#xca;" horiz-adv-x="1679" d="M63 1477l68 133h1241l148 37v-523l-113 -45l-252 375h-493v-553h243l150 229h114v-595l-133 -68l-133 276h-241v-587h477l288 417l113 -47v-565l-147 37h-1295v115l193 151v1145zM355 1989l493 334l535 -322l-51 -100l-369 -39l-168 248l-360 -244z" />
<glyph unicode="&#xcb;" horiz-adv-x="1679" d="M63 1477l68 133h1241l148 37v-523l-113 -45l-252 375h-493v-553h243l150 229h114v-595l-133 -68l-133 276h-241v-587h477l288 417l113 -47v-565l-147 37h-1295v115l193 151v1145zM295 2060q0 57 37 106.5t92 79t106 29.5q78 0 129.5 -54t51.5 -134q0 -55 -37 -104.5 t-92.5 -78t-106.5 -28.5q-76 0 -128 53t-52 131zM1008 2060q0 57 36.5 106.5t92 79t106.5 29.5q78 0 129 -54t51 -134q0 -55 -36.5 -104.5t-92 -78t-106.5 -28.5q-76 0 -128 53t-52 131z" />
<glyph unicode="&#xcc;" horiz-adv-x="952" d="M6 2196l52 100l376 39l220 -402l-117 -55zM63 1479l68 133h725v-115l-194 -164v-1134l227 -64l-66 -133h-725v115l193 162v1134z" />
<glyph unicode="&#xcd;" horiz-adv-x="952" d="M63 1479l68 133h725v-115l-194 -164v-1134l227 -64l-66 -133h-725v115l193 162v1134zM304 1933l219 402l377 -39l51 -100l-529 -318z" />
<glyph unicode="&#xce;" horiz-adv-x="952" d="M-28 1989l493 334l535 -322l-51 -100l-369 -39l-168 248l-360 -244zM63 1479l68 133h725v-115l-194 -164v-1134l227 -64l-66 -133h-725v115l193 162v1134z" />
<glyph unicode="&#xcf;" horiz-adv-x="952" d="M-22 2063q0 54 35 102t87.5 76t103.5 28q76 0 124.5 -52t48.5 -130q0 -54 -35.5 -101t-88.5 -75t-103 -28q-75 0 -123.5 51.5t-48.5 128.5zM63 1479l68 133h725v-115l-194 -164v-1134l227 -64l-66 -133h-725v115l193 162v1134zM582 2063q0 54 35 102t87.5 76t103.5 28 q76 0 124.5 -52t48.5 -130q0 -54 -35.5 -101t-88.5 -75t-103 -28q-75 0 -123.5 51.5t-48.5 128.5z" />
<glyph unicode="&#xd0;" horiz-adv-x="1884" d="M63 1477l68 133h289q188 0 368 12q139 8 201 8q230 0 407 -101.5t274 -281.5t97 -407q0 -233 -146 -431t-363.5 -313.5t-413.5 -115.5q-94 0 -187 10q-154 10 -235 10h-324v115l193 151v510h-80v96h80v535zM662 209q104 -39 239 -39h2q129 0 234.5 73.5t166 205 t60.5 294.5q0 197 -58.5 355.5t-178 254t-296.5 95.5q-92 0 -169 -49v-527h200v-96h-200v-567z" />
<glyph unicode="&#xd1;" horiz-adv-x="1841" d="M63 1477l68 133h361l935 -1065v825l-290 107l67 133h594v-115l-194 -164v-1331h-177l-960 1096v-854l291 -109l-66 -133h-594v115l193 161v1076zM428 2060l447 295q88 -90 151.5 -131t116.5 -41q47 0 94 31l105 68l80 -123l-447 -295q-92 92 -154.5 133t-113.5 41 q-45 0 -96 -35l-103 -65z" />
<glyph unicode="&#xd2;" d="M119 768q0 240 148.5 443.5t369.5 321.5t420 118q235 0 415.5 -104.5t278.5 -289t98 -417.5q0 -240 -149.5 -442.5t-369.5 -320.5t-419 -118q-236 0 -415 103.5t-278 288t-99 417.5zM514 2196l52 100l376 39l220 -402l-117 -55zM522 866q0 -184 56.5 -336.5t170 -243.5 t281.5 -91q113 0 208 71.5t150.5 196.5t55.5 280q0 186 -55.5 338t-169 243t-281.5 91q-115 0 -210 -71.5t-150.5 -196.5t-55.5 -281z" />
<glyph unicode="&#xd3;" d="M119 768q0 240 148.5 443.5t369.5 321.5t420 118q235 0 415.5 -104.5t278.5 -289t98 -417.5q0 -240 -149.5 -442.5t-369.5 -320.5t-419 -118q-236 0 -415 103.5t-278 288t-99 417.5zM522 866q0 -184 56.5 -336.5t170 -243.5t281.5 -91q113 0 208 71.5t150.5 196.5 t55.5 280q0 186 -55.5 338t-169 243t-281.5 91q-115 0 -210 -71.5t-150.5 -196.5t-55.5 -281zM811 1933l219 402l377 -39l51 -100l-529 -318z" />
<glyph unicode="&#xd4;" d="M119 768q0 240 148.5 443.5t369.5 321.5t420 118q235 0 415.5 -104.5t278.5 -289t98 -417.5q0 -240 -149.5 -442.5t-369.5 -320.5t-419 -118q-236 0 -415 103.5t-278 288t-99 417.5zM479 1989l493 334l535 -322l-51 -100l-369 -39l-168 248l-360 -244zM522 866 q0 -184 56.5 -336.5t170 -243.5t281.5 -91q113 0 208 71.5t150.5 196.5t55.5 280q0 186 -55.5 338t-169 243t-281.5 91q-115 0 -210 -71.5t-150.5 -196.5t-55.5 -281z" />
<glyph unicode="&#xd5;" d="M119 768q0 240 148.5 443.5t369.5 321.5t420 118q235 0 415.5 -104.5t278.5 -289t98 -417.5q0 -240 -149.5 -442.5t-369.5 -320.5t-419 -118q-236 0 -415 103.5t-278 288t-99 417.5zM485 2060l447 295q88 -90 151.5 -131t116.5 -41q47 0 94 31l105 68l80 -123l-447 -295 q-92 92 -154.5 133t-113.5 41q-45 0 -96 -35l-103 -65zM522 866q0 -184 56.5 -336.5t170 -243.5t281.5 -91q113 0 208 71.5t150.5 196.5t55.5 280q0 186 -55.5 338t-169 243t-281.5 91q-115 0 -210 -71.5t-150.5 -196.5t-55.5 -281z" />
<glyph unicode="&#xd6;" d="M119 768q0 240 148.5 443.5t369.5 321.5t420 118q235 0 415.5 -104.5t278.5 -289t98 -417.5q0 -240 -149.5 -442.5t-369.5 -320.5t-419 -118q-236 0 -415 103.5t-278 288t-99 417.5zM420 2060q0 57 37 106.5t92 79t106 29.5q78 0 129.5 -54t51.5 -134q0 -55 -37 -104.5 t-92.5 -78t-106.5 -28.5q-76 0 -128 53t-52 131zM522 866q0 -184 56.5 -336.5t170 -243.5t281.5 -91q113 0 208 71.5t150.5 196.5t55.5 280q0 186 -55.5 338t-169 243t-281.5 91q-115 0 -210 -71.5t-150.5 -196.5t-55.5 -281zM1133 2060q0 57 36.5 106.5t92 79t106.5 29.5 q78 0 129 -54t51 -134q0 -55 -36.5 -104.5t-92 -78t-106.5 -28.5q-76 0 -128 53t-52 131z" />
<glyph unicode="&#xd7;" horiz-adv-x="1081" d="M82 279l362 360l-362 362l96 97l363 -363l362 363l96 -97l-362 -362l362 -360l-96 -99l-362 363l-363 -363z" />
<glyph unicode="&#xd8;" d="M117 770q0 240 148.5 443.5t369.5 321.5t420 118q164 0 305 -54l190 328l123 -69l-184 -322l-2 2q172 -102 266 -284.5t94 -411.5q0 -240 -149.5 -442.5t-369.5 -320.5t-419 -118q-162 0 -303 51l-190 -329l-123 69l186 322q-172 104 -267 285.5t-95 410.5zM520 868l2 2 q0 -143 34 -269t101 -218l549 952q-113 80 -270 80q-115 0 -210 -70.5t-150.5 -195.5t-55.5 -281zM762 281q115 -82 268 -82v2q115 0 209 71.5t149.5 196.5t55.5 281q0 143 -34 268t-99 215z" />
<glyph unicode="&#xd9;" horiz-adv-x="1839" d="M18 1477l66 133h725v-115l-195 -152v-686q0 -219 113 -340.5t340 -121.5q86 0 170 52t139.5 152.5t55.5 237.5v747l-238 93l66 133h544v-115l-194 -152v-708q0 -215 -107.5 -368.5t-266.5 -230.5t-308 -77q-197 0 -353.5 81t-243.5 223.5t-87 320.5v833zM475 2196l52 100 l376 39l220 -402l-117 -55z" />
<glyph unicode="&#xda;" horiz-adv-x="1839" d="M18 1477l66 133h725v-115l-195 -152v-686q0 -219 113 -340.5t340 -121.5q86 0 170 52t139.5 152.5t55.5 237.5v747l-238 93l66 133h544v-115l-194 -152v-708q0 -215 -107.5 -368.5t-266.5 -230.5t-308 -77q-197 0 -353.5 81t-243.5 223.5t-87 320.5v833zM772 1933 l219 402l377 -39l51 -100l-529 -318z" />
<glyph unicode="&#xdb;" horiz-adv-x="1839" d="M18 1477l66 133h725v-115l-195 -152v-686q0 -219 113 -340.5t340 -121.5q86 0 170 52t139.5 152.5t55.5 237.5v747l-238 93l66 133h544v-115l-194 -152v-708q0 -215 -107.5 -368.5t-266.5 -230.5t-308 -77q-197 0 -353.5 81t-243.5 223.5t-87 320.5v833zM441 1989 l493 334l535 -322l-51 -100l-369 -39l-168 248l-360 -244z" />
<glyph unicode="&#xdc;" horiz-adv-x="1839" d="M18 1477l66 133h725v-115l-195 -152v-686q0 -219 113 -340.5t340 -121.5q86 0 170 52t139.5 152.5t55.5 237.5v747l-238 93l66 133h544v-115l-194 -152v-708q0 -215 -107.5 -368.5t-266.5 -230.5t-308 -77q-197 0 -353.5 81t-243.5 223.5t-87 320.5v833zM381 2060 q0 57 37 106.5t92 79t106 29.5q78 0 129.5 -54t51.5 -134q0 -55 -37 -104.5t-92.5 -78t-106.5 -28.5q-76 0 -128 53t-52 131zM1094 2060q0 57 36.5 106.5t92 79t106.5 29.5q78 0 129 -54t51 -134q0 -55 -36.5 -104.5t-92 -78t-106.5 -28.5q-76 0 -128 53t-52 131z" />
<glyph unicode="&#xdd;" horiz-adv-x="1734" d="M-12 1475l41 133h698v-115l-154 -119l367 -571l367 530l-299 144l65 133h662v-115l-203 -147l-485 -711v-444l227 -62l-66 -133h-712v115l192 151v273l-551 862zM701 1933l219 402l377 -39l51 -100l-529 -318z" />
<glyph unicode="&#xde;" horiz-adv-x="1595" d="M61 1477l68 133h725v-115l-195 -164v-106q72 2 168 10q131 8 195 8q152 0 268.5 -53t181 -145.5t64.5 -202.5q0 -125 -108.5 -237.5t-274.5 -177.5t-324 -56l-90 57l68 133h113q98 0 154 55.5t56 153.5q0 127 -72.5 209t-209.5 82q-100 0 -189 -62v-800l228 -66l-66 -133 h-725v115l193 161v1135z" />
<glyph unicode="&#xdf;" horiz-adv-x="1673" d="M51 907v135h242v166q0 158 102.5 296t257 221t297.5 83q80 0 189.5 -52t188.5 -132t79 -160q0 -76 -39 -134t-115 -136q-66 -66 -98.5 -112t-32.5 -101q0 -72 52.5 -129t158.5 -135q82 -61 131 -105.5t84 -103.5t35 -131q0 -82 -70.5 -176.5t-173 -157.5t-186.5 -63 q-88 0 -207 17t-168 38v354h129q47 -98 118 -153.5t138 -55.5q39 0 62.5 28t23.5 66q0 45 -44 88.5t-136 112.5q-88 66 -141.5 113t-92 109.5t-38.5 133.5q0 72 34.5 130.5t102.5 136.5q57 68 83.5 110.5t26.5 89.5q0 51 -35.5 120t-91 118t-110.5 49q-166 0 -166 -278 v-1307h-530v115l182 143v649h-242z" />
<glyph unicode="&#xe0;" horiz-adv-x="1361" d="M98 307q0 80 49.5 157t141.5 142h514v35q0 113 -61.5 166t-163.5 53q-143 0 -375 -112l-62 116l285 230q104 31 244 30q229 0 355 -104.5t126 -302.5v-512l184 -72l-65 -133h-467v178l-232 -182q-41 -16 -102 -16q-197 0 -284 96t-87 231zM174 1688l52 100l376 39 l220 -402l-117 -55zM442 377q0 -51 36 -86t95 -35v-2q105 0 230 86v131h-330q-16 -25 -23.5 -46.5t-7.5 -47.5z" />
<glyph unicode="&#xe1;" horiz-adv-x="1361" d="M98 307q0 80 49.5 157t141.5 142h514v35q0 113 -61.5 166t-163.5 53q-143 0 -375 -112l-62 116l285 230q104 31 244 30q229 0 355 -104.5t126 -302.5v-512l184 -72l-65 -133h-467v178l-232 -182q-41 -16 -102 -16q-197 0 -284 96t-87 231zM442 377q0 -51 36 -86t95 -35 v-2q105 0 230 86v131h-330q-16 -25 -23.5 -46.5t-7.5 -47.5zM471 1425l219 402l377 -39l51 -100l-529 -318z" />
<glyph unicode="&#xe2;" horiz-adv-x="1361" d="M98 307q0 80 49.5 157t141.5 142h514v35q0 113 -61.5 166t-163.5 53q-143 0 -375 -112l-62 116l285 230q104 31 244 30q229 0 355 -104.5t126 -302.5v-512l184 -72l-65 -133h-467v178l-232 -182q-41 -16 -102 -16q-197 0 -284 96t-87 231zM139 1481l493 334l535 -322 l-51 -100l-369 -39l-168 248l-360 -244zM442 377q0 -51 36 -86t95 -35v-2q105 0 230 86v131h-330q-16 -25 -23.5 -46.5t-7.5 -47.5z" />
<glyph unicode="&#xe3;" horiz-adv-x="1361" d="M98 307q0 80 49.5 157t141.5 142h514v35q0 113 -61.5 166t-163.5 53q-143 0 -375 -112l-62 116l285 230q104 31 244 30q229 0 355 -104.5t126 -302.5v-512l184 -72l-65 -133h-467v178l-232 -182q-41 -16 -102 -16q-197 0 -284 96t-87 231zM145 1552l447 295 q88 -90 151.5 -131t116.5 -41q47 0 94 31l105 68l80 -123l-447 -295q-92 92 -154.5 133t-113.5 41q-45 0 -96 -35l-103 -65zM442 377q0 -51 36 -86t95 -35v-2q105 0 230 86v131h-330q-16 -25 -23.5 -46.5t-7.5 -47.5z" />
<glyph unicode="&#xe4;" horiz-adv-x="1361" d="M98 307q0 80 49.5 157t141.5 142h514v35q0 113 -61.5 166t-163.5 53q-143 0 -375 -112l-62 116l285 230q104 31 244 30q229 0 355 -104.5t126 -302.5v-512l184 -72l-65 -133h-467v178l-232 -182q-41 -16 -102 -16q-197 0 -284 96t-87 231zM147 1554q0 55 35 102.5 t88.5 76t102.5 28.5q78 0 126 -52t48 -130q0 -53 -35 -100t-88 -76t-102 -29q-74 0 -124.5 52.5t-50.5 127.5zM442 377q0 -51 36 -86t95 -35v-2q105 0 230 86v131h-330q-16 -25 -23.5 -46.5t-7.5 -47.5zM752 1554q0 55 34.5 102.5t88 76t102.5 28.5q78 0 126 -52t48 -130 q0 -53 -35 -100t-88 -76t-102 -29q-74 0 -124 52.5t-50 127.5z" />
<glyph unicode="&#xe5;" horiz-adv-x="1361" d="M98 307q0 80 49.5 157t141.5 142h514v35q0 113 -61.5 166t-163.5 53q-143 0 -375 -112l-62 116l285 230q104 31 244 30q229 0 355 -104.5t126 -302.5v-512l184 -72l-65 -133h-467v178l-232 -182q-41 -16 -102 -16q-197 0 -284 96t-87 231zM295 1536q0 74 65.5 140.5 t163.5 105.5t193 39q118 0 197 -61.5t79 -151.5q0 -74 -65.5 -140.5t-164 -105.5t-192.5 -39q-117 0 -196.5 61.5t-79.5 151.5zM442 377q0 -51 36 -86t95 -35v-2q105 0 230 86v131h-330q-16 -25 -23.5 -46.5t-7.5 -47.5zM516 1622q0 -74 46 -122t128 -48q41 0 62.5 18.5 t21.5 53.5q0 74 -46 122t-130 48q-39 0 -60.5 -18.5t-21.5 -53.5z" />
<glyph unicode="&#xe6;" horiz-adv-x="1939" d="M100 307q0 80 49.5 156t141.5 141h481v37q0 113 -56.5 166t-148.5 53q-139 0 -362 -112l-62 116l285 230q98 31 231 30q252 0 365 -141q88 66 187.5 103.5t191.5 37.5v-2q203 0 313.5 -163.5t106.5 -454.5h-690q18 -125 80.5 -200t160.5 -75q133 0 385 133l62 -116 l-295 -238q-117 -31 -271 -31q-117 0 -214 51.5t-162 141.5l-217 -174q-76 -16 -191 -16q-197 0 -284 96t-87 231zM442 375q0 -63 41 -104.5t111 -41.5q100 1 217 60q-35 86 -41 180h-297q-16 -25 -23.5 -46.5t-7.5 -47.5zM1126 639h342q-14 127 -52 186.5t-128 59.5 q-156 0 -162 -246z" />
<glyph unicode="&#xe7;" horiz-adv-x="1306" d="M119 514q0 162 97 302t244.5 223t284.5 83q96 0 223.5 -23.5t184.5 -51.5v-381h-129q-78 104 -176 161.5t-205 57.5q-76 0 -116 -71t-40 -202q0 -166 71 -274.5t202 -108.5q133 0 383 129l61 -116l-270 -213l-115 -103q2 2 -45 -39v-4q107 -63 145.5 -112.5t38.5 -110.5 q0 -94 -109.5 -144.5t-334.5 -60.5v115q74 25 106.5 56.5t32.5 76.5q0 41 -25.5 74t-95.5 78q88 74 146 122h-37q-150 0 -269.5 71t-186 194t-66.5 272z" />
<glyph unicode="&#xe8;" horiz-adv-x="1353" d="M119 516q0 162 104.5 302t261 223t301.5 83q215 0 333 -163.5t114 -454.5h-737q20 -125 87.5 -200t176.5 -75q143 0 411 144l62 -117l-311 -248q-121 -31 -281 -30q-150 0 -269.5 70.5t-186 193.5t-66.5 272zM215 1688l52 100l376 39l220 -402l-117 -55zM489 641h392 q-16 127 -60.5 186.5t-148.5 59.5h2q-90 0 -135 -60.5t-50 -185.5z" />
<glyph unicode="&#xe9;" horiz-adv-x="1353" d="M119 516q0 162 104.5 302t261 223t301.5 83q215 0 333 -163.5t114 -454.5h-737q20 -125 87.5 -200t176.5 -75q143 0 411 144l62 -117l-311 -248q-121 -31 -281 -30q-150 0 -269.5 70.5t-186 193.5t-66.5 272zM489 641h392q-16 127 -60.5 186.5t-148.5 59.5h2 q-90 0 -135 -60.5t-50 -185.5zM512 1425l219 402l377 -39l51 -100l-529 -318z" />
<glyph unicode="&#xea;" horiz-adv-x="1353" d="M119 516q0 162 104.5 302t261 223t301.5 83q215 0 333 -163.5t114 -454.5h-737q20 -125 87.5 -200t176.5 -75q143 0 411 144l62 -117l-311 -248q-121 -31 -281 -30q-150 0 -269.5 70.5t-186 193.5t-66.5 272zM180 1481l493 334l535 -322l-51 -100l-369 -39l-168 248 l-360 -244zM489 641h392q-16 127 -60.5 186.5t-148.5 59.5h2q-90 0 -135 -60.5t-50 -185.5z" />
<glyph unicode="&#xeb;" horiz-adv-x="1353" d="M119 516q0 162 104.5 302t261 223t301.5 83q215 0 333 -163.5t114 -454.5h-737q20 -125 87.5 -200t176.5 -75q143 0 411 144l62 -117l-311 -248q-121 -31 -281 -30q-150 0 -269.5 70.5t-186 193.5t-66.5 272zM186 1554q0 55 35 102.5t88 76t103 28.5q78 0 126 -52 t48 -130q0 -53 -35 -100t-88 -76t-103 -29q-73 0 -123.5 52.5t-50.5 127.5zM489 641h392q-16 127 -60.5 186.5t-148.5 59.5h2q-90 0 -135 -60.5t-50 -185.5zM791 1554q0 55 34.5 102.5t88 76t102.5 28.5q78 0 126 -52t48 -130q0 -53 -35 -100t-88 -76t-102 -29 q-74 0 -124 52.5t-50 127.5z" />
<glyph unicode="&#xec;" horiz-adv-x="835" d="M-58 1688l52 100l376 39l220 -402l-117 -55zM88 0v115l182 153v475l-182 121v115l401 164h129v-948l185 -62l-68 -133h-647z" />
<glyph unicode="&#xed;" horiz-adv-x="835" d="M88 0v115l182 153v475l-182 121v115l401 164h129v-948l185 -62l-68 -133h-647zM242 1425l219 402l377 -39l51 -100l-529 -318z" />
<glyph unicode="&#xee;" horiz-adv-x="835" d="M-92 1481l493 334l535 -322l-51 -100l-369 -39l-168 248l-360 -244zM88 0v115l182 153v475l-182 121v115l401 164h129v-948l185 -62l-68 -133h-647z" />
<glyph unicode="&#xef;" horiz-adv-x="835" d="M-84 1554q0 55 35 102.5t88 76t102 28.5q78 0 126 -52t48 -130q0 -53 -34.5 -100t-88 -76t-102.5 -29q-74 0 -124 52.5t-50 127.5zM88 0v115l182 153v475l-182 121v115l401 164h129v-948l185 -62l-68 -133h-647zM520 1554q0 55 35 102.5t88 76t102 28.5q78 0 126.5 -52 t48.5 -130q0 -53 -35 -100t-88.5 -76t-102.5 -29q-74 0 -124 52.5t-50 127.5z" />
<glyph unicode="&#xf0;" horiz-adv-x="1374" d="M74 1602v114l342 92q205 -76 387 -219l391 219l43 -75l-365 -203l-2 4q195 -174 309.5 -394t114.5 -435q0 -188 -95 -355.5t-253 -267.5t-334 -100q-150 0 -270.5 69.5t-190 192.5t-69.5 274q0 145 99.5 287.5t256 231.5t320.5 89h6q-82 127 -205 232l-395 -219l-41 73 l362 203q-180 127 -411 187zM459 618q0 -182 73.5 -290.5t198.5 -108.5l2 2q101 0 146 88t45 283q0 154 -47 299h-238q-88 0 -134 -69.5t-46 -203.5z" />
<glyph unicode="&#xf1;" horiz-adv-x="1523" d="M88 0v115l182 153v465l-182 115v115l426 180l80 -238l254 203q55 16 125 16q156 0 249 -85t93 -230v-614l184 -62l-67 -133h-465v655q0 96 -30 136t-103 40q-109 0 -216 -69v-567l185 -62l-68 -133h-647zM243 1552l447 295q88 -90 151.5 -131t116.5 -41q47 0 94 31 l105 68l80 -123l-447 -295q-92 92 -154.5 133t-113.5 41q-45 0 -96 -35l-103 -65z" />
<glyph unicode="&#xf2;" horiz-adv-x="1425" d="M119 516q0 162 104.5 302t261 223t301.5 83q152 0 271 -70.5t185.5 -193.5t66.5 -272q0 -162 -104.5 -302.5t-261.5 -223t-302 -82.5q-150 0 -269.5 70.5t-186 193.5t-66.5 272zM243 1688l52 100l376 39l220 -402l-117 -55zM494 614q0 -172 69.5 -285.5t196.5 -113.5 q84 0 128 70.5t44 206.5q0 172 -69.5 283.5t-194.5 111.5q-86 0 -130 -68.5t-44 -204.5z" />
<glyph unicode="&#xf3;" horiz-adv-x="1425" d="M119 516q0 162 104.5 302t261 223t301.5 83q152 0 271 -70.5t185.5 -193.5t66.5 -272q0 -162 -104.5 -302.5t-261.5 -223t-302 -82.5q-150 0 -269.5 70.5t-186 193.5t-66.5 272zM494 614q0 -172 69.5 -285.5t196.5 -113.5q84 0 128 70.5t44 206.5q0 172 -69.5 283.5 t-194.5 111.5q-86 0 -130 -68.5t-44 -204.5zM541 1425l219 402l377 -39l51 -100l-529 -318z" />
<glyph unicode="&#xf4;" horiz-adv-x="1425" d="M119 516q0 162 104.5 302t261 223t301.5 83q152 0 271 -70.5t185.5 -193.5t66.5 -272q0 -162 -104.5 -302.5t-261.5 -223t-302 -82.5q-150 0 -269.5 70.5t-186 193.5t-66.5 272zM209 1481l493 334l535 -322l-51 -100l-369 -39l-168 248l-360 -244zM494 614 q0 -172 69.5 -285.5t196.5 -113.5q84 0 128 70.5t44 206.5q0 172 -69.5 283.5t-194.5 111.5q-86 0 -130 -68.5t-44 -204.5z" />
<glyph unicode="&#xf5;" horiz-adv-x="1425" d="M119 516q0 162 104.5 302t261 223t301.5 83q152 0 271 -70.5t185.5 -193.5t66.5 -272q0 -162 -104.5 -302.5t-261.5 -223t-302 -82.5q-150 0 -269.5 70.5t-186 193.5t-66.5 272zM215 1552l447 295q88 -90 151.5 -131t116.5 -41q47 0 94 31l105 68l80 -123l-447 -295 q-92 92 -154.5 133t-113.5 41q-45 0 -96 -35l-103 -65zM494 614q0 -172 69.5 -285.5t196.5 -113.5q84 0 128 70.5t44 206.5q0 172 -69.5 283.5t-194.5 111.5q-86 0 -130 -68.5t-44 -204.5z" />
<glyph unicode="&#xf6;" horiz-adv-x="1425" d="M119 516q0 162 104.5 302t261 223t301.5 83q152 0 271 -70.5t185.5 -193.5t66.5 -272q0 -162 -104.5 -302.5t-261.5 -223t-302 -82.5q-150 0 -269.5 70.5t-186 193.5t-66.5 272zM215 1554q0 55 35 102.5t88 76t102 28.5q78 0 126 -52t48 -130q0 -53 -34.5 -100t-88 -76 t-102.5 -29q-74 0 -124 52.5t-50 127.5zM494 614q0 -172 69.5 -285.5t196.5 -113.5q84 0 128 70.5t44 206.5q0 172 -69.5 283.5t-194.5 111.5q-86 0 -130 -68.5t-44 -204.5zM819 1554q0 55 35 102.5t88 76t102 28.5q78 0 126.5 -52t48.5 -130q0 -53 -35 -100t-88.5 -76 t-102.5 -29q-74 0 -124 52.5t-50 127.5z" />
<glyph unicode="&#xf7;" horiz-adv-x="1116" d="M82 571v136h952v-136h-952zM328 209q0 59 40.5 111.5t101 83t118.5 30.5q88 0 144 -57t56 -141q0 -59 -41 -110.5t-102 -82t-119 -30.5q-86 0 -142 56t-56 140zM328 1042q0 59 40.5 111.5t101 83t118.5 30.5q88 0 144 -57t56 -141q0 -59 -41 -110.5t-102 -82t-119 -30.5 q-86 0 -142 56t-56 140z" />
<glyph unicode="&#xf8;" horiz-adv-x="1425" d="M119 516q0 162 104.5 302t261 223t301.5 83q88 0 164 -24l183 317l118 -67l-178 -308l-2 -2q111 -71 173.5 -190t62.5 -264q0 -162 -104.5 -302.5t-261.5 -223.5t-302 -83q-88 0 -166 25l-184 -317l-117 67l178 309q-109 72 -170 191t-61 264zM492 610q0 -133 43 -231 l266 461q-57 45 -135 45q-86 0 -130 -68.5t-44 -204.5v-2zM623 256q57 -45 135 -45h2q84 0 128 70.5t44 205.5q0 133 -43 232z" />
<glyph unicode="&#xf9;" horiz-adv-x="1470" d="M35 838v114l401 178h129v-684q0 -98 29 -137t102 -39q106 0 209 70v393l-182 105v114l401 178h129v-935l185 -62l-66 -133h-467v176l-221 -182q-55 -16 -125 -17q-158 0 -250 85t-92 231v440zM282 1688l52 100l376 39l220 -402l-117 -55z" />
<glyph unicode="&#xfa;" horiz-adv-x="1470" d="M35 838v114l401 178h129v-684q0 -98 29 -137t102 -39q106 0 209 70v393l-182 105v114l401 178h129v-935l185 -62l-66 -133h-467v176l-221 -182q-55 -16 -125 -17q-158 0 -250 85t-92 231v440zM580 1425l219 402l377 -39l51 -100l-529 -318z" />
<glyph unicode="&#xfb;" horiz-adv-x="1470" d="M35 838v114l401 178h129v-684q0 -98 29 -137t102 -39q106 0 209 70v393l-182 105v114l401 178h129v-935l185 -62l-66 -133h-467v176l-221 -182q-55 -16 -125 -17q-158 0 -250 85t-92 231v440zM248 1481l493 334l535 -322l-51 -100l-369 -39l-168 248l-360 -244z" />
<glyph unicode="&#xfc;" horiz-adv-x="1470" d="M35 838v114l401 178h129v-684q0 -98 29 -137t102 -39q106 0 209 70v393l-182 105v114l401 178h129v-935l185 -62l-66 -133h-467v176l-221 -182q-55 -16 -125 -17q-158 0 -250 85t-92 231v440zM254 1554q0 55 35 102.5t88 76t102 28.5q78 0 126 -52t48 -130 q0 -53 -34.5 -100t-88 -76t-102.5 -29q-74 0 -124 52.5t-50 127.5zM858 1554q0 55 35 102.5t88 76t102 28.5q78 0 126 -52t48 -130q0 -53 -34.5 -100t-88 -76t-102.5 -29q-74 0 -124 52.5t-50 127.5z" />
<glyph unicode="&#xfd;" horiz-adv-x="1333" d="M-8 856v115l452 172l78 -309l223 -545l248 483l-293 199l66 133l512 2v-115l-524 -989l-482 -541l-129 101q152 182 213.5 312t69.5 298l-236 569zM480 1425l219 402l377 -39l51 -100l-529 -318z" />
<glyph unicode="&#xfe;" horiz-adv-x="1515" d="M47 -406l182 154v1641l-182 120v115l402 164h129v-862l227 182q66 16 151 16q127 0 227.5 -70.5t157 -193.5t56.5 -272q0 -162 -104.5 -302.5t-261.5 -223t-302 -82.5v2q-81 0 -151 41v-328l311 -82l-66 -133h-776v114zM578 412q12 -84 81.5 -139.5t188.5 -55.5 q180 0 180 275q0 156 -50 257t-147 101h-2q-67 0 -127.5 -16.5t-123.5 -59.5v-362z" />
<glyph unicode="&#xff;" horiz-adv-x="1333" d="M-8 856v115l452 172l78 -309l223 -545l248 483l-293 199l66 133l512 2v-115l-524 -989l-482 -541l-129 101q152 182 213.5 312t69.5 298l-236 569zM154 1554q0 55 34.5 102.5t88 76t102.5 28.5q78 0 126 -52t48 -130q0 -53 -35 -100t-88 -76t-102 -29q-74 0 -124 52.5 t-50 127.5zM758 1554q0 55 34.5 102.5t88 76t102.5 28.5q78 0 126 -52t48 -130q0 -53 -35 -100t-88 -76t-102 -29q-74 0 -124 52.5t-50 127.5z" />
<glyph unicode="&#x152;" horiz-adv-x="2539" d="M119 770q0 233 143.5 431t357.5 313.5t406 115.5q94 0 186 -10q154 -10 236 -10h782l148 37v-523l-113 -45l-252 375h-434v-553h190l158 229h115v-595l-133 -68l-144 276h-186v-587h418l289 417l112 -47v-563l-147 37h-801q-190 0 -371 -12q-135 -8 -198 -8 q-225 0 -398.5 101t-268.5 281.5t-95 407.5zM520 864q0 -194 56.5 -354t173 -255t288.5 -95q90 0 170 51v1190q-104 39 -239 39q-123 0 -225.5 -75t-162 -205t-59.5 -294z" />
<glyph unicode="&#x153;" horiz-adv-x="2054" d="M119 516q0 162 99 302t248.5 223t291.5 83q106 0 195 -44t153 -124q92 78 201.5 123t210.5 45h-5q203 0 313.5 -163.5t106.5 -454.5h-690q18 -125 80.5 -200t161.5 -75q133 0 385 134l61 -117l-295 -238q-117 -31 -270 -30q-106 0 -198.5 44t-157.5 123 q-90 -78 -195.5 -122.5t-202.5 -44.5q-141 0 -253.5 70.5t-176 193.5t-63.5 272zM489 614q0 -172 62.5 -285.5t175.5 -113.5q72 0 107.5 69.5t35.5 207.5q0 172 -61 283.5t-174 111.5q-72 0 -109 -68.5t-37 -204.5zM1237 641h342q-14 127 -52 186.5t-128 59.5 q-156 0 -162 -246z" />
<glyph unicode="&#x178;" horiz-adv-x="1734" d="M-12 1475l41 133h698v-115l-154 -119l367 -571l367 530l-299 144l65 133h662v-115l-203 -147l-485 -711v-444l227 -62l-66 -133h-712v115l192 151v273l-551 862zM309 2060q0 57 37 106.5t92.5 79t106.5 29.5q78 0 129 -54t51 -134q0 -55 -37 -104.5t-92 -78t-107 -28.5 q-75 0 -127.5 53t-52.5 131zM1022 2060q0 57 37 106.5t92 79t106 29.5q78 0 129.5 -54t51.5 -134q0 -55 -37 -104.5t-92.5 -78t-106.5 -28.5q-76 0 -128 53t-52 131z" />
<glyph unicode="&#x2c6;" horiz-adv-x="1163" d="M76 1481l493 334l535 -322l-51 -100l-369 -39l-168 248l-360 -244z" />
<glyph unicode="&#x2dc;" horiz-adv-x="1116" d="M59 1552l447 295q88 -90 151.5 -131t116.5 -41q47 0 94 31l105 68l80 -123l-447 -295q-92 92 -154.5 133t-113.5 41q-45 0 -96 -35l-103 -65z" />
<glyph unicode="&#x2000;" horiz-adv-x="1177" />
<glyph unicode="&#x2001;" horiz-adv-x="2355" />
<glyph unicode="&#x2002;" horiz-adv-x="1177" />
<glyph unicode="&#x2003;" horiz-adv-x="2355" />
<glyph unicode="&#x2004;" horiz-adv-x="785" />
<glyph unicode="&#x2005;" horiz-adv-x="588" />
<glyph unicode="&#x2006;" horiz-adv-x="392" />
<glyph unicode="&#x2007;" horiz-adv-x="392" />
<glyph unicode="&#x2008;" horiz-adv-x="294" />
<glyph unicode="&#x2009;" horiz-adv-x="471" />
<glyph unicode="&#x200a;" horiz-adv-x="130" />
<glyph unicode="&#x2010;" horiz-adv-x="1050" d="M125 530v113l82 105h719v-113l-82 -105h-719z" />
<glyph unicode="&#x2011;" horiz-adv-x="1050" d="M125 530v113l82 105h719v-113l-82 -105h-719z" />
<glyph unicode="&#x2012;" horiz-adv-x="1050" d="M125 530v113l82 105h719v-113l-82 -105h-719z" />
<glyph unicode="&#x2013;" horiz-adv-x="1523" d="M82 571v136h1360v-136h-1360z" />
<glyph unicode="&#x2014;" horiz-adv-x="2154" d="M82 571v136h1991v-136h-1991z" />
<glyph unicode="&#x2018;" horiz-adv-x="751" d="M102 1204l445 500l129 -98q-94 -111 -139 -193t-60 -174l178 -113v-114l-426 -178z" />
<glyph unicode="&#x2019;" horiz-adv-x="757" d="M76 932q94 111 139 192.5t59 171.5l-178 113v115l428 178l125 -371l-444 -500z" />
<glyph unicode="&#x201a;" horiz-adv-x="751" d="M76 -440q94 111 139 192.5t59 171.5l-178 113v115l428 178l125 -371l-444 -500z" />
<glyph unicode="&#x201c;" horiz-adv-x="1386" d="M-2 1204l445 500l129 -98q-94 -111 -139 -193t-60 -174l178 -113v-114l-426 -178zM632 1204l445 500l129 -98q-94 -111 -139 -193t-60 -174l178 -113v-114l-426 -178z" />
<glyph unicode="&#x201d;" horiz-adv-x="1392" d="M76 932q94 111 139 192.5t59 171.5l-178 113v115l428 178l125 -371l-444 -500zM711 932q94 111 139 192.5t59 171.5l-178 113v115l428 178l125 -371l-444 -500z" />
<glyph unicode="&#x201e;" horiz-adv-x="1386" d="M76 -440q94 111 139 192.5t59 171.5l-178 113v115l428 178l125 -371l-444 -500zM711 -440q94 111 139 192.5t59 171.5l-178 113v115l428 178l125 -371l-444 -500z" />
<glyph unicode="&#x2022;" horiz-adv-x="1243" d="M57 530q0 119 81 223.5t203 166t237 61.5q116 0 207.5 -52t142.5 -142.5t51 -198.5q0 -119 -81 -223.5t-204 -166t-239 -61.5q-113 0 -204 52.5t-142.5 142.5t-51.5 198z" />
<glyph unicode="&#x2026;" horiz-adv-x="2764" d="M295 176q0 59 40.5 111.5t101 83t118.5 30.5q88 0 144 -57t56 -141q0 -59 -41 -110.5t-102 -82t-119 -30.5q-86 0 -142 56t-56 140zM1153 176q0 59 40.5 111.5t101 83t118.5 30.5q88 0 144 -57t56 -141q0 -59 -41 -110.5t-102 -82t-119 -30.5q-86 0 -142 56t-56 140z M2012 176q0 59 40.5 111.5t101 83t118.5 30.5q88 0 144 -57t56 -141q0 -59 -41 -110.5t-102 -82t-119 -30.5q-86 0 -142 56t-56 140z" />
<glyph unicode="&#x202f;" horiz-adv-x="471" />
<glyph unicode="&#x2039;" horiz-adv-x="901" d="M78 555l590 510l116 -96l-254 -371l254 -457l-116 -96z" />
<glyph unicode="&#x203a;" horiz-adv-x="901" d="M119 139l254 371l-254 457l114 96l592 -510l-592 -510z" />
<glyph unicode="&#x205f;" horiz-adv-x="588" />
<glyph unicode="&#x20ac;" horiz-adv-x="1865" d="M-2 580l70 135h202q-2 18 -2 55q0 55 11 121h-281l70 135h247q68 180 216.5 323.5t328.5 223.5t342 80q119 0 277.5 -31t232.5 -66v-436h-194q-158 297 -435 297q-141 0 -248.5 -107.5t-144.5 -283.5h643l-67 -135h-592v-25q0 -78 12 -155h500l-68 -136h-401 q53 -162 166.5 -257t283.5 -95q186 0 531 205l78 -127l-377 -293q-90 -27 -173 -36t-177 -9q-197 0 -357 77t-264 217t-141 323h-289z" />
<glyph unicode="&#x2122;" horiz-adv-x="2134" d="M92 1364v262l94 -16h615l94 16v-262l-84 -39l-135 184h-64v-434l119 -20l-41 -88h-411v80l96 61v401h-60l-139 -184zM932 1522l41 88h375l153 -355l152 355h377v-80l-97 -60v-393l117 -26l-41 -88h-389v79l76 50v313l-193 -440h-125l-213 448v-330l97 -28l-41 -88h-269 v80l97 61v381z" />
<glyph unicode="&#x25fc;" horiz-adv-x="1105" d="M0 0v1106h1106v-1106h-1106z" />
</font>
</defs>
</svg>
