<?xml version="1.0" standalone="no"?>
<!DOCTYPE svg PUBLIC "-//W3C//DTD SVG 1.1//EN" "http://www.w3.org/Graphics/SVG/1.1/DTD/svg11.dtd" >
<svg xmlns="http://www.w3.org/2000/svg" xmlns:xlink="http://www.w3.org/1999/xlink" version="1.1">
<metadata></metadata>
<defs>
<font id="inknut_antiquaextrabold" horiz-adv-x="1986" >
<font-face units-per-em="2048" ascent="1638" descent="-410" />
<missing-glyph horiz-adv-x="505" />
<glyph unicode="&#xfb01;" horiz-adv-x="1693" d="M51 895v152h211v151q0 162 97.5 303t243 224t278.5 83q143 0 299.5 -16t218.5 -47q55 -27 86 -78t31 -111q0 -63 -44.5 -117.5t-112 -87t-128.5 -32.5q-109 0 -199 119q-53 74 -102 98.5t-144 24.5q-68 0 -106.5 -57.5t-38.5 -166.5v-290h324l376 100h146v-938l184 -59 l-74 -150h-489v762l-170 133h-297v-666l320 -79l-74 -150h-807v131l182 156v608h-211z" />
<glyph unicode="&#xfb02;" horiz-adv-x="1693" d="M51 895v152h211v151q0 162 99.5 303t249 224t286.5 83q113 0 259.5 -6t219.5 -14h111v-1579l184 -59l-74 -150h-489v1389q-57 80 -141 126t-170 46q-72 0 -114 -58.5t-42 -165.5v-290h336v-152h-336v-666l320 -79l-74 -150h-807v131l182 156v608h-211z" />
<glyph horiz-adv-x="0" />
<glyph horiz-adv-x="682" />
<glyph unicode=" "  horiz-adv-x="505" />
<glyph unicode="&#x09;" horiz-adv-x="505" />
<glyph unicode="&#xa0;" horiz-adv-x="505" />
<glyph unicode="!" horiz-adv-x="698" d="M80 1331v129l375 150h143l-127 -1022h-240zM109 186q0 63 44 118.5t110.5 88.5t129.5 33q94 0 155.5 -60.5t61.5 -148.5q0 -63 -44 -117.5t-111.5 -87t-128.5 -32.5q-92 0 -154.5 60t-62.5 146z" />
<glyph unicode="&#x22;" horiz-adv-x="1452" d="M123 1315v129l393 166h146l-74 -856h-185zM791 1315v129l393 166h146l-74 -856h-185z" />
<glyph unicode="#" horiz-adv-x="1597" d="M41 262l92 158h311l152 262h-311l92 158h309l166 286l98 -59l-131 -227h293l166 286l98 -59l-131 -227h311l-92 -158h-309l-151 -262h309l-92 -158h-310l-161 -280l-99 59l127 221h-293l-161 -280l-99 59l127 221h-311zM578 420h292l152 262h-293z" />
<glyph unicode="$" horiz-adv-x="1433" d="M88 53v465h227q84 -166 198 -258t230 -92q84 0 134.5 47t50.5 115q0 61 -48.5 116.5t-118 101.5t-194.5 118q-154 88 -246 150.5t-157.5 147.5t-65.5 187q0 92 81 199.5t204 189.5t238 105v374h194v-374q135 -10 273.5 -37t207.5 -54v-462h-229q-78 166 -178.5 258 t-208.5 92q-72 0 -113 -46t-41 -118q0 -66 49.5 -124t122 -106.5t199.5 -117.5q150 -84 241 -145.5t155.5 -144.5t64.5 -183v-2q0 -93 -84 -198t-212 -186t-247 -106v-375h-194v371q-145 10 -302 37t-231 55z" />
<glyph unicode="%" horiz-adv-x="2310" d="M86 1354q0 121 96 226.5t240.5 168t277.5 62.5q145 0 260 -53.5t178.5 -146.5t63.5 -208q0 -121 -97.5 -226.5t-242 -166.5t-279.5 -61q-143 0 -256.5 53t-177 145t-63.5 207zM134 -96l1950 1878l105 -103l-1953 -1877zM413 1422q0 -123 68.5 -204t198.5 -81 q195 0 194 199q0 123 -69.5 204.5t-198.5 81.5q-193 1 -193 -200zM1110 151q0 121 96 226.5t240.5 168t277.5 62.5q145 0 260 -53t178.5 -146.5t63.5 -207.5q0 -121 -97.5 -226.5t-242 -167t-279.5 -61.5q-143 0 -256.5 53t-177 145.5t-63.5 206.5zM1437 219 q0 -123 68.5 -204t198.5 -81q195 0 194 199q0 123 -69.5 205t-198.5 82q-193 0 -193 -201z" />
<glyph unicode="&#x26;" horiz-adv-x="2650" d="M109 559q0 174 112.5 324.5t282.5 238.5t327 88q160 0 255.5 -67.5t123.5 -169.5q96 104 199.5 170.5t202.5 66.5q70 0 129 -17t147 -54q72 -31 125 -47.5t111 -16.5q90 0 141 35t51 94q0 131 -362 240v131l373 94q72 -74 144.5 -193.5t72.5 -207.5q0 -119 -92.5 -246 t-216.5 -212t-205 -85q-53 0 -107 12q-66 -57 -92.5 -115.5t-26.5 -136.5q0 -109 55.5 -170t155.5 -61q149 0 432 117l62 -127l-287 -230q-137 -35 -326 -34q-133 0 -241.5 45t-174 123.5t-75.5 175.5l-387 -310q-109 -35 -264 -34q-186 0 -334 75.5t-229.5 207.5t-81.5 296 zM510 657q0 -174 91 -288.5t241 -114.5v-4q116 0 258.5 58.5t271.5 160.5l82 66q86 156 289 268q-109 53 -171.5 76.5t-135.5 23.5q-47 0 -105.5 -18.5t-111.5 -59.5q-25 -127 -156 -220t-367 -187l-75 149q133 51 179 109.5t46 128.5q0 57 -35 103t-92 46 q-106 0 -157.5 -72.5t-51.5 -224.5z" />
<glyph unicode="'" horiz-adv-x="784" d="M123 1315v129l393 166h146l-74 -856h-185z" />
<glyph unicode="(" horiz-adv-x="1042" d="M111 727q0 727 809 1225l100 -146q-248 -166 -374 -400.5t-126 -580.5q0 -356 120 -649t378 -461l-107 -145q-242 84 -422 249t-279 397.5t-99 510.5z" />
<glyph unicode=")" horiz-adv-x="1042" d="M22 -284q248 166 374 400.5t126 580.5q0 356 -120 649t-378 461l107 145q242 -84 422 -249t279 -397.5t99 -510.5q0 -727 -809 -1225z" />
<glyph unicode="*" horiz-adv-x="1429" d="M61 1030l103 248h129l69 -180h310v-41l-412 -189zM264 698l64 113l190 -31l156 269l35 -19l-41 -452l-240 -91zM307 1366l41 252l266 37l66 -113l-121 -149l154 -269l-35 -20zM717 1026l35 21l370 -263l-41 -252l-266 -36l-65 112l122 152zM721 1122l41 451l239 92 l164 -213l-63 -113l-193 31l-153 -268zM758 1053v41l411 188l199 -160l-102 -250h-129l-70 181h-309z" />
<glyph unicode="+" horiz-adv-x="1126" d="M82 567v150h405v407h150v-407h407v-150h-405v-405h-152v405h-405z" />
<glyph unicode="," horiz-adv-x="757" d="M68 -430q90 106 135 185t61 165l-182 117v131l450 180l140 -389l-461 -500z" />
<glyph unicode="-" horiz-adv-x="1050" d="M115 526v127l82 105h739v-127l-82 -105h-739z" />
<glyph unicode="." horiz-adv-x="671" d="M84 186q0 63 44 118.5t111.5 88.5t129.5 33q94 0 155.5 -60.5t61.5 -148.5q0 -63 -44 -117.5t-110.5 -87t-128.5 -32.5q-92 0 -155.5 60t-63.5 146z" />
<glyph unicode="/" horiz-adv-x="727" d="M8 -258l541 2195l170 -34l-543 -2198z" />
<glyph unicode="0" horiz-adv-x="1613" d="M111 559q0 174 120.5 324.5t302 238.5t347.5 88q182 0 324.5 -75.5t221 -207.5t78.5 -296q0 -174 -120.5 -324.5t-302 -238.5t-347.5 -88q-180 0 -322.5 75.5t-222 207.5t-79.5 296zM520 657q0 -190 86 -314t248 -124q242 0 242 316q0 190 -86 313t-248 123 q-242 -1 -242 -314z" />
<glyph unicode="1" horiz-adv-x="1044" d="M98 1040l74 150h739v-131l-198 -156v-694l235 -59l-74 -150h-739v131l199 156v694z" />
<glyph unicode="2" horiz-adv-x="1374" d="M74 946l282 228q94 35 232 34q166 0 292 -40t194.5 -112.5t68.5 -168.5q0 -78 -112.5 -208t-342.5 -298h391l78 182l125 -39v-563l-178 37h-1016v131q256 197 389 313.5t186.5 190.5t53.5 137q0 72 -52.5 118t-134.5 46q-141 0 -395 -115z" />
<glyph unicode="3" horiz-adv-x="1146" d="M33 967l284 227q61 16 119 16q150 0 276 -43t199.5 -117.5t73.5 -162.5q-10 -96 -90 -184.5t-236 -184.5q215 -72 313.5 -152.5t98.5 -193.5q0 -219 -233.5 -389t-745.5 -324l-47 164q248 88 376 153.5t180 134.5t52 165q0 90 -65.5 158.5t-208.5 130.5v116 q102 76 145 141.5t43 147.5t-45 133t-116 51q-86 0 -312 -114z" />
<glyph unicode="4" horiz-adv-x="1497" d="M61 92v129l758 907l379 121v-946h313l-71 -211h-242v-409l-379 -121v530h-758zM379 303h440v528z" />
<glyph unicode="5" horiz-adv-x="1282" d="M76 -377q270 84 407.5 147.5t186.5 125t49 147.5q0 72 -45 126t-172 112.5t-377 136.5l154 772h602l77 182l127 -37v-563l-178 37h-549l-16 -86q315 -98 486 -187.5t239 -182.5t68 -214q0 -174 -145.5 -302t-358.5 -212t-508 -166z" />
<glyph unicode="6" horiz-adv-x="1583" d="M152 633q0 311 233 602t823 573l84 -149q-397 -250 -564 -475.5t-167 -478.5q0 -129 36 -240t106.5 -178.5t168.5 -67.5q193 0 193 268q0 186 -93 307t-237 185l99 158q170 0 317 -72t235.5 -194.5t88.5 -266.5q0 -158 -106.5 -302t-275.5 -233t-345 -89 q-170 0 -305.5 82.5t-213 232t-77.5 338.5z" />
<glyph unicode="7" horiz-adv-x="1347" d="M127 668v559l178 -37h1004v-146l-873 -1585l-153 68l708 1284h-659l-78 -180z" />
<glyph unicode="8" horiz-adv-x="1589" d="M111 469q0 100 96 202.5t315 248.5q-145 94 -225 190t-80 219q0 98 99.5 211t241.5 190.5t261 77.5q158 0 281 -50t190.5 -135t67.5 -185q-6 -90 -73.5 -184.5t-250.5 -245.5v4q146 -86 234 -149.5t149.5 -149.5t61.5 -191q0 -111 -106.5 -237.5t-257 -214.5t-273.5 -88 q-213 0 -379 64.5t-259 176t-93 246.5zM520 569q0 -100 46 -186t122 -137t164 -51h2q98 0 158.5 69.5t60.5 165.5q0 82 -57.5 151.5t-135 122t-231.5 142.5q-78 -88 -103.5 -147.5t-25.5 -129.5zM625 1427q0 -96 70.5 -173.5t201.5 -159.5q55 90 71.5 139t16.5 113 q0 111 -51 184.5t-131 73.5q-82 0 -130 -49.5t-48 -127.5z" />
<glyph unicode="9" horiz-adv-x="1583" d="M111 586q0 156 105.5 301t275.5 234t346 89q168 0 304 -81.5t214 -228t78 -331.5q0 -197 -91.5 -376t-320.5 -364t-631 -370l-82 150q264 160 421 303t225.5 284.5t68.5 301.5q0 123 -36 231.5t-106.5 175t-170.5 66.5q-190 0 -191 -269q0 -186 91 -307t233 -184 l-96 -158q-168 0 -315.5 72t-234.5 194.5t-87 266.5z" />
<glyph unicode=":" horiz-adv-x="671" d="M84 186q0 63 44 118.5t111.5 88.5t129.5 33q94 0 155.5 -60.5t61.5 -148.5q0 -63 -44 -117.5t-110.5 -87t-128.5 -32.5q-92 0 -155.5 60t-63.5 146zM84 888q0 63 44 118.5t111.5 88.5t129.5 33q94 0 155.5 -60.5t61.5 -148.5q0 -63 -44 -117.5t-110.5 -87t-128.5 -32.5 q-92 0 -155.5 60t-63.5 146z" />
<glyph unicode=";" horiz-adv-x="757" d="M68 -430q90 106 135 185t61 165l-182 117v131l450 180l140 -389l-461 -500zM84 888q0 63 44 118.5t111.5 88.5t129.5 33q94 0 155.5 -60.5t61.5 -148.5q0 -63 -44 -117.5t-110.5 -87t-128.5 -32.5q-92 0 -155.5 60t-63.5 146z" />
<glyph unicode="&#x3c;" horiz-adv-x="1003" d="M61 643l762 512l82 -102l-495 -332l532 -395l-248 -158z" />
<glyph unicode="=" horiz-adv-x="1126" d="M82 383v150h962v-150h-962zM82 751v150h962v-150h-962z" />
<glyph unicode="&#x3e;" horiz-adv-x="1003" d="M61 961l248 155l633 -473l-762 -512l-84 102l496 334z" />
<glyph unicode="?" horiz-adv-x="1087" d="M4 1421l266 213q88 16 213 17q107 0 222.5 -52.5t193.5 -129t78 -146.5q0 -63 -53.5 -116.5t-155.5 -125.5q-72 -51 -104.5 -80.5t-32.5 -58.5q0 -49 119 -90v-131l-275 -174q-115 55 -181.5 114.5t-66.5 129.5q0 66 49.5 121t145.5 130q70 53 103.5 87t33.5 67 q0 31 -36 70t-89 66.5t-102 27.5q-100 0 -266 -66zM236 186q0 63 44 118.5t111.5 88.5t128.5 33q94 0 155.5 -60.5t61.5 -148.5q0 -63 -44 -117.5t-110.5 -87t-127.5 -32.5q-92 0 -155.5 60t-63.5 146z" />
<glyph unicode="@" horiz-adv-x="2961" d="M111 512q0 334 235.5 604t588.5 423t681 153v2q366 0 647 -121t435.5 -336t154.5 -487q0 -193 -129 -357t-320.5 -266t-365.5 -125h-379v148l-191 -152q-66 -16 -157 -16q-135 0 -242.5 70.5t-168 191.5t-60.5 266q0 166 96 308.5t240.5 227t279.5 84.5q184 0 326 -98 l112 103h144v-940q203 51 304 166.5t101 289.5q0 219 -102.5 400.5t-315.5 291t-528 109.5q-281 0 -504 -108.5t-348 -300t-125 -433.5q0 -248 99.5 -462t305 -359t511.5 -182l-74 -148q-412 -2 -692.5 128t-419.5 368t-139 557zM1239 608q0 -135 55.5 -227t153.5 -92h-2 q117 0 213 47v358q-12 78 -77.5 129t-176.5 51q-82 0 -124 -68.5t-42 -197.5z" />
<glyph unicode="A" horiz-adv-x="1902" d="M-2 0v131l231 172l508 1241l398 105l573 -1399l211 -100l-74 -150h-805v131l234 131l-115 281h-616l-99 -242l301 -151l-73 -150h-674zM614 717h476l-238 583z" />
<glyph unicode="B" horiz-adv-x="1632" d="M51 1462l74 148h287q186 0 366 12q139 8 205 8q158 0 276.5 -53t184 -144.5t65.5 -203.5q0 -100 -61.5 -191.5t-165.5 -163.5l-2 -2q145 -57 228 -163.5t83 -237.5q0 -129 -114.5 -242.5t-284.5 -181t-324 -67.5q-102 0 -200 10q-164 10 -254 10h-326v131l193 152v1122z M684 236q111 -39 242 -39l-2 -2q110 0 174.5 57t64.5 158q0 133 -72.5 219t-213.5 94h-41h-152v-487zM686 887h209q188 0 188 227q0 143 -65.5 230.5t-194.5 87.5q-74 0 -137 -25v-520z" />
<glyph unicode="C" horiz-adv-x="1724" d="M111 768q0 240 149.5 443.5t372.5 321.5t424 118q123 0 286.5 -31t239.5 -66v-446h-227q-154 287 -418 287q-106 0 -194.5 -69t-139.5 -189.5t-51 -270.5q0 -170 51 -310t156.5 -223t261.5 -83q190 0 541 188l88 -141l-377 -293q-94 -27 -180 -36t-187 -9 q-233 0 -414.5 104.5t-281.5 288t-100 416.5z" />
<glyph unicode="D" horiz-adv-x="1904" d="M53 1462l74 148h303q188 0 369 12q135 8 196 8q236 0 418 -101.5t281.5 -281.5t99.5 -407q0 -233 -149.5 -431t-371.5 -313.5t-423 -115.5q-90 0 -182 10q-154 10 -236 10h-342v131l193 152v1110zM688 215q94 -35 219 -35l2 -2q123 0 225.5 74t161 202t58.5 287 q0 190 -56.5 347t-172 250.5t-287.5 93.5q-80 0 -150 -41v-1176z" />
<glyph unicode="E" horiz-adv-x="1683" d="M53 1462l74 148h1255l160 37v-537l-129 -55l-254 379h-471v-525h221l150 221h131v-589l-150 -74l-135 268h-217v-559h453l293 420l129 -53v-580l-160 37h-1313v131l193 152v1114z" />
<glyph unicode="F" horiz-adv-x="1601" d="M53 1462l74 148h1255l160 37v-537l-129 -55l-262 379h-463v-525h221l150 221h131v-610l-150 -76l-139 291h-213v-512l367 -73l-74 -150h-891v131l193 152v1114z" />
<glyph unicode="G" horiz-adv-x="1947" d="M113 766q0 240 158.5 443.5t395 321.5t449.5 118q133 0 309.5 -31t257.5 -66v-514h-227q-170 354 -459 355q-123 0 -224 -69t-159.5 -189.5t-58.5 -270.5q0 -178 57.5 -325.5t176 -235.5t292.5 -88h73t134 8v381l-332 80l74 147h858v-129l-192 -170v-165l55 -134 l-377 -231q-104 -29 -200.5 -37t-206.5 -8q-252 0 -445.5 104.5t-301 287.5t-107.5 417z" />
<glyph unicode="H" horiz-adv-x="2037" d="M53 1462l74 148h756v-129l-195 -168v-424h660v510l-230 63l74 148h756v-129l-195 -168v-1100l232 -63l-74 -150h-756v131l193 166v418h-660v-502l232 -63l-74 -150h-756v131l193 166v1102z" />
<glyph unicode="I" horiz-adv-x="972" d="M53 1462l74 148h756v-129l-195 -168v-1100l232 -63l-74 -150h-756v131l193 166v1102z" />
<glyph unicode="J" horiz-adv-x="901" d="M-23 1462l76 148h797v-129l-195 -152v-1126q0 -82 5.5 -150.5t13.5 -93.5l-486 -500l-145 111q123 145 165 247.5t42 254.5v1327z" />
<glyph unicode="K" horiz-adv-x="1878" d="M53 1462l74 148h756v-129l-195 -168v-1100l232 -63l-74 -150h-756v131l193 166v1102zM756 807l579 512l-239 143l73 148h635v-129l-647 -574l475 -657l219 -100l-73 -150h-455z" />
<glyph unicode="L" horiz-adv-x="1638" d="M53 1462l74 148h756v-129l-195 -152v-1153h440l322 461l129 -53v-623l-160 37h-1329v131l193 152v1124z" />
<glyph unicode="M" horiz-adv-x="2369" d="M53 1462l74 148h616l455 -1094l444 1094h639v-129l-194 -152v-1122l231 -60l-75 -149h-756v131l192 152v931l-495 -1214h-197l-510 1233v-995l234 -89l-76 -149h-545v131l193 152v1089z" />
<glyph unicode="N" horiz-adv-x="1857" d="M53 1462l74 148h375l932 -1026v770l-312 108l74 148h629v-133l-195 -168v-1313h-196l-957 1057v-797l316 -109l-74 -149h-629v131l193 166v1036z" />
<glyph unicode="O" d="M111 768q0 240 151.5 443.5t376.5 321.5t426 118q242 0 426 -104.5t284.5 -289t100.5 -417.5q0 -240 -152.5 -442.5t-378 -320.5t-425.5 -118q-240 0 -423.5 103.5t-284.5 288t-101 417.5zM553 866q0 -180 53 -327.5t163 -235.5t269 -88q109 0 199 68.5t143.5 189.5 t53.5 270q0 180 -53.5 329t-164 236t-270.5 87q-108 0 -198.5 -69t-142.5 -189.5t-52 -270.5z" />
<glyph unicode="P" horiz-adv-x="1628" d="M53 1462l74 148h371q178 0 350 12q123 8 184 8q164 0 291 -62.5t196.5 -172t69.5 -244.5q0 -147 -115 -277q-116 -132 -291 -206q-158 -67 -309 -67q-16 0 -32 1l-86 53l73 148h99q102 0 160.5 75.5t58.5 208.5q0 154 -74 250.5t-217 96.5q-90 0 -168 -56v-1155l367 -73 l-74 -150h-891v131l193 152v1110z" />
<glyph unicode="Q" d="M111 768q0 240 151.5 443.5t376.5 321.5t426 118q242 0 426 -104.5t284.5 -289t100.5 -417.5q0 -236 -148.5 -436.5t-373.5 -321.5q170 -123 316.5 -218t178.5 -95h277l74 -158q-406 -152 -558 -152q-68 0 -213 150.5t-331 372.5q-96 -23 -178 -23q-240 0 -423.5 103.5 t-284.5 288t-101 417.5zM553 866q0 -180 53 -327.5t163 -235.5t269 -88q109 0 199 68.5t143.5 189.5t53.5 270q0 180 -53.5 329t-164 236t-270.5 87q-109 0 -199 -69t-142 -189.5t-52 -270.5z" />
<glyph unicode="R" horiz-adv-x="1759" d="M53 1464l74 148h371q174 0 346 12q123 8 182 8q162 0 288 -56t194.5 -153.5t68.5 -218.5q0 -141 -123 -263t-305 -187l172 -47l250 -463l205 -92l-76 -150h-463l-377 703l-88 53l55 110h91q100 0 158.5 68t58.5 188q0 137 -73 224.5t-212 87.5q-88 0 -162 -52v-1169 l232 -63l-74 -150h-756v131l193 166v1104z" />
<glyph unicode="S" horiz-adv-x="1433" d="M88 53v465h227q84 -166 198 -258t230 -92q84 0 134.5 47t50.5 115q0 61 -48.5 116.5t-118 101.5t-194.5 118q-154 88 -246 150.5t-157.5 147.5t-65.5 187t96.5 220t236.5 199t257 81q141 0 330.5 -31t277.5 -66v-462h-229q-78 166 -178.5 258t-208.5 92q-72 0 -113 -46 t-41 -118q0 -66 49.5 -124t122 -106.5t199.5 -117.5q150 -84 241 -145.5t155.5 -144.5t64.5 -183q0 -102 -103.5 -220t-251 -199t-270.5 -81q-150 0 -352.5 30.5t-292.5 65.5z" />
<glyph unicode="T" horiz-adv-x="1736" d="M78 1069v578l158 -37h1265l160 37v-578l-129 -55l-291 420h-172v-1227l231 -57l-73 -150h-756v131l193 152v1151h-168l-291 -420z" />
<glyph unicode="U" horiz-adv-x="1839" d="M-2 1462l76 148h755v-129l-194 -152v-680q0 -207 106.5 -320.5t325.5 -113.5q82 0 165 49t136 143.5t53 221.5v743l-247 90l75 148h561v-129l-194 -152v-694q0 -215 -107.5 -368.5t-268.5 -230.5t-312 -77q-201 0 -360.5 81t-249 223.5t-89.5 320.5v821z" />
<glyph unicode="V" horiz-adv-x="1904" d="M-16 1462l73 148h807v-129l-235 -131l424 -1039l405 998l-301 153l76 148h672v-129l-230 -172l-510 -1243l-395 -105l-575 1401z" />
<glyph unicode="W" horiz-adv-x="2676" d="M-14 1462l73 148h695v-129l-144 -105l402 -1048l221 716l-115 322l-186 96l74 148h751v-129l-211 -123l357 -1032l340 977l-312 159l74 148h672l2 -129l-217 -162l-445 -1253l-395 -105l-279 780l-206 -675l-398 -105l-546 1403z" />
<glyph unicode="X" horiz-adv-x="1820" d="M10 0v131l254 174l445 449l-537 616l-158 92l74 148h739v-129l-170 -92l322 -375l289 317l-240 131l74 148h674v-129l-236 -162l-426 -459l557 -641l141 -69l-75 -150h-738v131l160 100l-317 371l-322 -326l236 -126l-74 -150h-672z" />
<glyph unicode="Y" horiz-adv-x="1761" d="M-16 1464l41 148h723v-129l-146 -113l354 -547l351 492l-293 147l76 148h671v-129l-219 -168l-465 -664v-438l232 -59l-74 -150h-739v131l192 152v243l-557 867z" />
<glyph unicode="Z" horiz-adv-x="1617" d="M76 0v176l977 1258h-537l-250 -400l-127 56v557l158 -37h1237v-176l-979 -1258h553l276 440l129 -53v-600l-159 37h-1278z" />
<glyph unicode="[" horiz-adv-x="890" d="M180 -430v2384h676v-158h-297v-2068h297v-158h-676z" />
<glyph unicode="\" horiz-adv-x="727" d="M8 1903l543 -2198l168 37l-541 2195z" />
<glyph unicode="]" horiz-adv-x="890" d="M35 -272h297v2068h-297v158h676v-2384h-676v158z" />
<glyph unicode="^" horiz-adv-x="1343" d="M86 600v141l365 660l397 104l409 -760v-145h-370l-326 590l-325 -590h-150z" />
<glyph unicode="_" horiz-adv-x="1087" d="M82 -158h924v-149h-924v149z" />
<glyph unicode="`" horiz-adv-x="778" d="M39 1673l57 115l408 39l219 -402l-129 -59z" />
<glyph unicode="a" horiz-adv-x="1388" d="M90 317q0 80 49 158t140 143h528v9q0 106 -58.5 158.5t-154.5 52.5q-141 0 -395 -99l-62 127l283 228q106 34 248 34h8q242 0 376 -108.5t134 -314.5v-484l184 -71l-74 -150h-489v178l-232 -182q-41 -16 -102 -16q-203 0 -293 99t-90 238zM496.5 314.5 q33.5 -27.5 93.5 -27.5q96 0 217 78v104h-322q-22 -35 -22 -76q0 -51 33.5 -78.5z" />
<glyph unicode="b" horiz-adv-x="1511" d="M18 1485v131l416 172h146v-848l215 172q66 16 149 16q131 0 235.5 -70.5t163 -194.5t58.5 -273q0 -162 -106.5 -303.5t-267.5 -224t-310 -82.5q-80 0 -150.5 30.5t-126.5 85.5l-96 -96h-143v1364zM580 446q0 -90 66.5 -150t189.5 -60q165 0 165 258q0 152 -48 249 t-142 97q-125 0 -231 -62v-332z" />
<glyph unicode="c" horiz-adv-x="1323" d="M111 518q0 164 99 304.5t249.5 223t292.5 82.5q100 0 231 -23.5t193 -51.5v-400h-146q-76 102 -172 160.5t-203 58.5q-68 0 -106.5 -66.5t-38.5 -189.5q0 -156 66.5 -259t189.5 -103q137 0 399 117l62 -127l-287 -230q-120 -34 -284 -34h-9q-154 0 -276.5 70.5 t-191 193.5t-68.5 274z" />
<glyph unicode="d" horiz-adv-x="1511" d="M111 516q0 164 106.5 304.5t266 223t309.5 82.5q74 0 137 -34v272l-182 121v131l415 172h146v-1579l184 -62l-74 -149h-489v154l-197 -158q-66 -16 -151 -17q-135 0 -243 71t-168 195t-60 273zM510 612q0 -143 52 -236t153 -93l-2 2q119 0 217 49v368q-12 74 -78 121 t-178 47q-164 0 -164 -258z" />
<glyph unicode="e" horiz-adv-x="1363" d="M111 518q0 164 106.5 304.5t266 223t309.5 82.5q221 0 343 -166q118 -161 117 -451v-19h-731q23 -109 84.5 -173.5t159.5 -64.5q145 0 424 125l61 -127l-295 -238q-125 -34 -299 -34h-10q-154 0 -276.5 70.5t-191 193.5t-68.5 274zM510 643h364q-12 117 -55 173t-137 56 q-84 0 -126 -56t-46 -173z" />
<glyph unicode="f" horiz-adv-x="1030" d="M51 895v152h211v151q0 162 97.5 303t243 224t278.5 83q77 0 175.5 -21.5t141.5 -45.5v-383h-143q-51 94 -123 148.5t-146 54.5q-68 0 -106.5 -57.5t-38.5 -166.5v-290h336v-152h-336v-666l320 -79l-74 -150h-807v131l182 156v608h-211z" />
<glyph unicode="g" horiz-adv-x="1310" d="M63 -45h144q94 -133 193.5 -201.5t224.5 -68.5q63 0 106 23.5t43 51.5q0 45 -52 81t-159 83q-117 53 -177 95t-60 100q0 49 78.5 100t187.5 90q-18 -2 -55 -2q-127 0 -235.5 50.5t-171 133t-62.5 177.5q0 117 90 223t231 171.5t287 65.5q170 0 297 -81h344v-156h-203 q29 -61 29 -127q0 -123 -105.5 -237.5t-261.5 -174.5q-55 -66 -55 -123q0 -29 44 -56.5t136 -68.5q139 -63 214 -116.5t75 -122.5q0 -66 -83 -164t-206 -171t-239 -73q-129 0 -305.5 39t-293.5 78v381zM436 764q0 -90 60.5 -147.5t156.5 -57.5q123 0 123 109q0 92 -60.5 146 t-160.5 54q-119 0 -119 -104z" />
<glyph unicode="h" horiz-adv-x="1499" d="M39 0v131l182 156v1077l-182 121v131l416 172h145v-848l213 172q55 16 129 16q162 0 258 -85t96 -230v-604l185 -59l-74 -150h-489v643q0 92 -28 131t-95 39q-96 0 -195 -55v-549l184 -59l-73 -150h-672z" />
<glyph unicode="i" horiz-adv-x="845" d="M80 0v131l182 156v436l-182 121v129l416 174h145v-938l184 -59l-73 -150h-672zM166 1528q0 63 44 117.5t111.5 87t129.5 32.5q96 0 156.5 -60t60.5 -149q0 -63 -44 -117.5t-110.5 -87t-128.5 -32.5q-94 0 -156.5 60.5t-62.5 148.5z" />
<glyph unicode="j" horiz-adv-x="794" d="M16 -430q123 145 165 247.5t42 254.5v686l-182 127v131l418 131h143v-944q0 -82 5 -150.5t14 -93.5l-459 -500zM129 1508q0 63 44 117.5t111.5 87t129.5 32.5q96 0 156.5 -60t60.5 -149q0 -63 -44 -117.5t-110.5 -87t-128.5 -32.5q-94 0 -156.5 60.5t-62.5 148.5z" />
<glyph unicode="k" horiz-adv-x="1527" d="M39 0v131l182 156v1077l-182 121v131l416 172h145v-1579l184 -59l-73 -150h-672zM676 551l350 274l-264 133l74 150h622v-131l-407 -328l256 -420l206 -79l-73 -150h-447z" />
<glyph unicode="l" horiz-adv-x="804" d="M39 0v131l182 156v1077l-182 121v131l416 172h145v-1579l184 -59l-73 -150h-672z" />
<glyph unicode="m" horiz-adv-x="2160" d="M80 2v131l182 156v430l-182 117v131l450 180l82 -229l238 194q49 16 113 16q121 0 203.5 -53t115.5 -147l227 184q49 16 113 16q156 0 247 -85t91 -230v-604l184 -53l-76 -150h-487v678q0 74 -23.5 104.5t-82.5 30.5q-88 0 -175 -55v-555l168 -55l-75 -150h-471v678 q0 74 -24 104.5t-83 30.5q-88 0 -174 -55v-555l168 -55l-76 -150h-653z" />
<glyph unicode="n" horiz-adv-x="1540" d="M80 2v131l182 156v430l-182 117v131l450 180l82 -229l242 194q55 16 129 16q162 0 258 -85t96 -230v-604l185 -57l-74 -150h-490v643q0 92 -27.5 131t-94.5 39q-96 0 -195 -55v-549l184 -59l-73 -150h-672z" />
<glyph unicode="o" horiz-adv-x="1441" d="M111 518q0 164 106.5 304.5t266 223t309.5 82.5q155 0 278 -70.5t191.5 -194.5t68.5 -273q0 -162 -106.5 -303.5t-267 -224t-310.5 -82.5q-154 0 -276.5 70.5t-191 193.5t-68.5 274zM520 616q0 -166 64.5 -273t181.5 -107q76 0 116 65.5t40 192.5q0 166 -64.5 272 t-183.5 106q-74 0 -114 -64.5t-40 -191.5z" />
<glyph unicode="p" horiz-adv-x="1572" d="M80 -389l182 158v950l-182 117v131l450 180l82 -229l244 194q66 16 150 16q131 0 235.5 -70.5t162.5 -194.5t58 -273q0 -162 -106.5 -303.5t-267 -224t-310.5 -82.5v2h-4q-74 0 -133 36v-307l320 -82l-74 -147h-807v129zM641 449q0 -90 66.5 -150.5t189.5 -60.5 q166 0 166 258q0 143 -48 234t-143 91q-125 0 -231 -61v-311z" />
<glyph unicode="q" horiz-adv-x="1511" d="M113 508q0 166 96 308t240.5 227t279.5 85q186 0 326 -100l108 100h146v-1452l202 -49l-73 -147h-824v129l318 139v399l-191 -151q-66 -16 -157 -16q-135 0 -243 70.5t-168 191t-60 266.5zM512 606q0 -137 54.5 -228t154.5 -91h-2q117 0 213 47v358q-12 78 -78 129 t-178 51q-80 0 -122 -68.5t-42 -197.5z" />
<glyph unicode="r" horiz-adv-x="1196" d="M80 2v131l182 156v430l-182 117v131l450 180l78 -221l180 186q43 16 97 16q121 0 203.5 -52t115.5 -144l-213 -268h-145q-2 82 -19.5 115.5t-56.5 33.5q-68 0 -129 -49v-533l320 -79l-74 -150h-807z" />
<glyph unicode="s" horiz-adv-x="1144" d="M109 55v365h143q59 -102 146 -159.5t173 -57.5q37 0 60.5 19.5t23.5 47.5q0 35 -48 71t-158 99q-106 61 -174 106.5t-116 103t-48 122.5q0 74 72.5 158t179 141t196.5 57q109 0 253 -23.5t210 -51.5v-348h-143q-51 94 -126 147t-153 53q-35 0 -54.5 -19.5t-19.5 -49.5 q0 -39 50.5 -76t164.5 -103q104 -59 170 -103t113 -99.5t47 -118.5q0 -76 -75.5 -159t-185.5 -140t-200 -57q-117 0 -275.5 23.5t-225.5 51.5z" />
<glyph unicode="t" horiz-adv-x="1032" d="M6 895v119l457 485h143v-452h369v-152h-369v-526q0 -131 160 -131q43 0 83 10t99 39l62 -127l-207 -164q-78 -16 -180 -16q-207 0 -301.5 89t-94.5 275v551h-221z" />
<glyph unicode="u" horiz-adv-x="1482" d="M20 821v129l418 180h144v-667q0 -92 27.5 -131t97.5 -39q94 0 192 55v369l-182 104v129l416 180h145v-921l182 -59l-76 -150h-487v166l-211 -172q-55 -16 -129 -17q-162 0 -258 85t-96 231v424z" />
<glyph unicode="v" horiz-adv-x="1351" d="M-14 844v131l483 172l78 -309l217 -523l233 447l-299 196l74 150h533v-131l-529 -977h-289l-297 725z" />
<glyph unicode="w" horiz-adv-x="1990" d="M-14 846v131l483 172l78 -309l217 -523l156 299l-46 111l-204 119v131l483 172l78 -309l213 -514l203 430l-310 202l74 150l533 2v-131l-484 -977h-289l-170 418l-225 -418h-289l-297 725z" />
<glyph unicode="x" horiz-adv-x="1382" d="M23 956l73 150h422l289 -385l158 145l-185 92l76 150h481v-131l-442 -389l238 -307l229 -134l-74 -149h-422l-280 391l-166 -151l180 -93l-74 -149h-483v131l444 391l-260 338z" />
<glyph unicode="y" horiz-adv-x="1351" d="M-14 844v131l483 172l78 -309l217 -523l233 447l-299 196l74 150h535v-131l-529 -977l-497 -541l-146 111q150 180 210.5 311t70.5 295l-226 549z" />
<glyph unicode="z" horiz-adv-x="1343" d="M127 0v145l606 584h-383l-78 -164l-127 37v543l179 -37h893v-145l-605 -584h375l82 184l129 -37v-563l-180 37h-891z" />
<glyph unicode="{" horiz-adv-x="1015" d="M82 664v196h123q90 0 140 81t50 233v262q0 162 110.5 299t289.5 219l84 -146q-104 -51 -105 -243v-293q0 -162 -105.5 -298t-262.5 -212q158 -76 263 -212t105 -298v-293q1 -193 105 -244l-84 -145q-178 82 -289 219t-111 299v262q0 152 -50 233t-140 81h-123z" />
<glyph unicode="|" horiz-adv-x="763" d="M285 -410v2429h194v-2429h-194z" />
<glyph unicode="}" horiz-adv-x="1015" d="M137 -284q104 51 105 243v293q0 162 105.5 298t262.5 212q-158 76 -263 212t-105 298v293q-1 193 -105 244l84 145q178 -82 289 -219t111 -299v-262q0 -152 50 -233t140 -81h123v-196h-123q-90 0 -140 -81t-50 -233v-262q0 -162 -110.5 -299t-289.5 -219z" />
<glyph unicode="~" horiz-adv-x="1359" d="M53 549q61 162 161.5 278.5t195.5 116.5q77 0 153 -36t180 -103q94 -57 145.5 -83t100.5 -26q45 0 95.5 38t95.5 100l127 -95q-61 -162 -162 -278.5t-195 -116.5q-78 0 -154.5 36t-181.5 103q-94 57 -145 83t-98 26q-45 0 -95.5 -38t-95.5 -99z" />
<glyph unicode="&#xa1;" horiz-adv-x="686" d="M88 -520l127 1038h240l151 -760v-129l-373 -149h-145zM90 889q0 63 44 118.5t110.5 88t128.5 32.5q96 0 157.5 -60t61.5 -148q0 -63 -44 -117.5t-111.5 -87.5t-129.5 -33q-92 0 -154.5 60.5t-62.5 146.5z" />
<glyph unicode="&#xa2;" horiz-adv-x="1323" d="M111 518q0 137 72.5 260t187 209t241.5 121v426h197v-408q98 -6 206.5 -27.5t160.5 -45.5v-400h-146q-76 102 -172 160.5t-203 58.5q-68 0 -106.5 -66.5t-38.5 -189.5q0 -156 66.5 -259t189.5 -103q137 0 399 117l62 -127l-289 -228q-59 -16 -129 -26v-398h-197v390 q-145 8 -259.5 79.5t-178 191.5t-63.5 265z" />
<glyph unicode="&#xa3;" horiz-adv-x="1476" d="M6 684l76 150h190v206q0 164 99.5 304.5t250 223.5t291.5 83q100 0 231.5 -23.5t192.5 -52.5v-399h-145q-76 102 -173 160.5t-202 58.5q-80 0 -123 -66.5t-43 -189.5v-305h350l-75 -150h-279q-12 -78 -51 -158t-98 -147h676l77 184l131 -37v-563l-180 37h-1116v145 l186 193v346h-266z" />
<glyph unicode="&#xa4;" horiz-adv-x="1818" d="M109 113l270 272q-68 74 -104.5 172t-36.5 209t52 213t142 188l-323 324l110 108l338 -335q102 66 213 102.5t211 36.5q188 0 334 -84l282 283l113 -109l-274 -272q68 -74 104.5 -172.5t36.5 -208.5l2 -2q0 -111 -52 -212.5t-143 -187.5l326 -325l-113 -109l-337 338 q-102 -66 -213 -102.5t-211 -36.5q-186 0 -332 84l-285 -283zM561 864q0 -184 101.5 -303t293.5 -119q82 0 153 40t112 108.5t41 150.5q0 184 -101.5 304t-296.5 120q-82 0 -151.5 -40t-110.5 -109.5t-41 -151.5z" />
<glyph unicode="&#xa5;" horiz-adv-x="1761" d="M-16 1464l41 148h723v-129l-146 -113l354 -547l351 492l-293 147l76 148h671v-129l-219 -166l-368 -529h454l-78 -151h-473v-170h551l-78 -150h-473v-104l232 -59l-74 -150h-739v131l192 152v30h-565l78 150h487v63l-70 107h-495l78 151h321l-391 609z" />
<glyph unicode="&#xa6;" horiz-adv-x="763" d="M285 -410v949h194v-949h-194zM285 1071v948h194v-948h-194z" />
<glyph unicode="&#xa7;" horiz-adv-x="1548" d="M133 1151q0 102 99.5 220t244 199t264.5 81q147 0 347 -31t292 -66v-421h-143q-23 100 -58.5 153t-72.5 53q-25 0 -39 -35.5t-14 -91.5q0 -90 42 -173t130 -218q98 -150 149 -257t51 -230q0 -100 -104 -218t-256 -200t-279 -82q-150 0 -353.5 31t-293.5 65v424h146 q27 -94 64.5 -150.5t72.5 -56.5t59.5 36t24.5 89q0 84 -40 165t-128 214q-100 154 -152.5 264.5t-52.5 235.5zM473 1176q0 -104 49 -207t152 -264q90 -141 136 -234.5t46 -181.5q0 -76 -48 -135.5t-165 -116.5q55 -16 150 -17q55 0 122.5 45.5t114.5 114t47 129.5 q0 102 -50 205.5t-146 251.5q-92 141 -139.5 238.5t-47.5 191.5q0 74 49.5 134.5t163.5 119.5q-51 16 -147 16q-59 0 -127 -46t-114 -114.5t-46 -129.5z" />
<glyph unicode="&#xa8;" horiz-adv-x="1220" d="M84 1551q0 57 38 107.5t96 80.5t111 30q81 0 134 -55t53 -135q0 -57 -38 -106.5t-95 -79t-111 -29.5q-79 0 -133.5 54.5t-54.5 132.5zM705 1551q0 57 38 107.5t96 80.5t111 30q81 0 134 -55t53 -135q0 -57 -38 -106.5t-95 -79t-111 -29.5q-79 0 -133.5 54.5t-54.5 132.5z " />
<glyph unicode="&#xa9;" horiz-adv-x="2183" d="M143 768q0 240 163 443.5t402.5 321.5t454.5 118q260 0 460 -104.5t308.5 -289t108.5 -417.5q0 -240 -163 -442.5t-403.5 -320.5t-455.5 -118q-258 0 -457 103.5t-308.5 288t-109.5 417.5zM463 866q0 -184 73.5 -335.5t225 -241.5t375.5 -90q156 0 290 70.5t213.5 195.5 t79.5 278q0 186 -73.5 338t-225 242t-377.5 90q-155 0 -289 -71.5t-213 -196.5t-79 -279zM614 778q0 125 79 234.5t199 175t232 65.5q78 0 179.5 -23.5t146.5 -51.5v-332h-145q-45 86 -111 135t-133 49q-45 0 -70.5 -40t-25.5 -113q0 -111 46 -186t128 -75q111 0 301 74 l61 -129l-188 -149q-72 -23 -141.5 -29t-151.5 -6q-115 0 -208 53t-145.5 145.5t-52.5 202.5z" />
<glyph unicode="&#xaa;" horiz-adv-x="1196" d="M90 1088q0 60 42 118.5t119 107.5h449v6q0 80 -50 119t-131 39q-120 0 -336 -74l-53 96l241 170q93 27 218 26q205 0 319 -81.5t114 -235.5v-363l156 -54l-62 -112h-416v134l-197 -137q-35 -12 -87 -12q-173 0 -249.5 74.5t-76.5 178.5zM408 1142q0 -36 28 -56.5 t79 -20.5q82 0 185 59v78h-274q-19 -28 -18 -60z" />
<glyph unicode="&#xab;" horiz-adv-x="1552" d="M70 557l610 514l131 -108l-254 -363l254 -448l-131 -111zM760 557l428 358l129 -108l-109 -209l109 -291l-129 -108z" />
<glyph unicode="&#xac;" horiz-adv-x="1183" d="M82 567v150h962v-543h-151v393h-811z" />
<glyph unicode="&#xad;" horiz-adv-x="1050" d="M115 526v127l82 105h739v-127l-82 -105h-739z" />
<glyph unicode="&#xae;" horiz-adv-x="2115" d="M111 768q0 240 161.5 443.5t402 321.5t455.5 118q261 0 460.5 -104.5t308 -289t108.5 -417.5q0 -240 -163 -442.5t-403.5 -320.5t-455.5 -118q-258 0 -456.5 103.5t-308 288t-109.5 417.5zM428 866q0 -184 73.5 -335.5t226.5 -241.5t376 -90q156 0 290 70.5t214 195.5 t80 278q0 186 -74 338t-226.5 242t-375.5 90q-156 0 -290 -71.5t-214 -196.5t-80 -279zM604 1102l41 133h250q96 0 186 8q61 4 95 4q133 0 217 -58.5t84 -141.5q0 -80 -84 -155t-224 -106l215 -45l54 -153l92 -47l-41 -131h-318l-81 262q-14 43 -35 65.5t-54 30.5v-358h-376 v112l98 103v428zM1001 874q31 -10 66 -10q86 0 86 123q0 53 -31.5 87t-89.5 34q-16 0 -31 -10v-224z" />
<glyph unicode="&#xaf;" horiz-adv-x="1228" d="M129 1507v152h989v-152h-989z" />
<glyph unicode="&#xb0;" horiz-adv-x="882" d="M49 1438q0 96 68.5 182t172 137t202.5 51q131 0 216 -86t85 -213q0 -96 -69 -182t-172 -137t-202 -51q-86 0 -154.5 40t-107.5 107.5t-39 151.5zM279 1513q0 -90 44 -150t121 -60q55 0 87 35.5t32 97.5q0 88 -44 148.5t-122 60.5q-55 0 -86.5 -34t-31.5 -98z" />
<glyph unicode="&#xb1;" horiz-adv-x="1126" d="M82 -53h962v-150h-962v150zM82 567v150h405v407h150v-407h407v-150h-405v-405h-152v405h-405z" />
<glyph unicode="&#xb2;" horiz-adv-x="1132" d="M74 1511l227 160q74 25 182 25q203 0 325 -61.5t122 -164.5q0 -55 -98.5 -145t-301.5 -207h318l65 137l127 -38v-396l-170 27h-786v129q190 125 290.5 200.5t140.5 123t40 88.5q0 35 -33 56t-84 21q-113 0 -315 -82z" />
<glyph unicode="&#xb3;" horiz-adv-x="940" d="M31 1528l227 160q49 12 94 12q121 0 221.5 -31t159 -83t58.5 -113q-6 -68 -69 -130.5t-187 -130.5l-3 2q173 -51 250.5 -107t77.5 -134q0 -154 -186.5 -273.5t-595.5 -226.5l-39 137q199 57 302 99.5t145 87.5t42 108q0 57 -52 99.5t-167 80.5v105q82 51 116 97t34 104 q0 47 -36 77.5t-93 30.5q-74 0 -250 -80z" />
<glyph unicode="&#xb4;" horiz-adv-x="778" d="M139 1425l219 402l408 -39l55 -115l-555 -307z" />
<glyph unicode="&#xb5;" horiz-adv-x="1441" d="M57 989l355 141h143v-667q0 -92 27.5 -131t97.5 -39q94 0 192 55v391q0 55 -32.5 123t-85.5 127l352 141h145v-759h-2q0 -56 33 -123.5t86 -126.5l-354 -141h-144v186l-211 -172q-47 -14 -104 -17v-106q-2 -53 32 -121.5t87 -128.5l-352 -141h-146v1259q2 53 -31.5 122 t-87.5 128z" />
<glyph unicode="&#xb6;" horiz-adv-x="1744" d="M37 1081q0 145 94 272.5t236.5 202t271.5 74.5v2q82 0 164 -10q139 -10 209 -10h100v-2130h-399v129l205 176v836q-74 -2 -242 -13q-127 -8 -182 -8q-135 0 -238.5 62.5t-161 172t-57.5 244.5zM1264 -520v2130h391v-129l-195 -168v-1620l232 -66l-74 -147h-354z" />
<glyph unicode="&#xb7;" horiz-adv-x="671" d="M84 537q0 63 44 117.5t111.5 87t129.5 32.5q96 0 156.5 -60.5t60.5 -148.5q0 -61 -44 -115.5t-110.5 -87t-128.5 -32.5q-94 0 -156.5 59.5t-62.5 147.5z" />
<glyph unicode="&#xb8;" horiz-adv-x="1228" d="M434 -414q66 23 94.5 50.5t28.5 68.5t-24.5 73t-90.5 77q133 113 229.5 198.5t178.5 179.5l135 -79q-92 -115 -278 -271v-2q108 -61 147 -109t39 -110q0 -94 -112.5 -144t-346.5 -61v129z" />
<glyph unicode="&#xb9;" horiz-adv-x="874" d="M98 1561l60 125h590v-113l-158 -109v-446l188 -41l-59 -125h-592v113l160 108v445z" />
<glyph unicode="&#xba;" horiz-adv-x="1257" d="M110 1238q0 124 90.5 229t226.5 167t263 62q132 0 236.5 -53t162.5 -146t58 -205q0 -121 -90.5 -227t-227 -168t-263.5 -62q-131 0 -235 53t-162.5 145t-58.5 205zM458 1312q0 -124 55 -204.5t154 -80.5q65 0 99 49t34 144q0 125 -55 204.5t-156 79.5q-63 0 -97 -48.5 t-34 -143.5z" />
<glyph unicode="&#xbb;" horiz-adv-x="1552" d="M236 305l108 209l-108 291l131 108l428 -358l-428 -358zM741 150l254 362l-254 449l131 110l611 -516l-611 -514z" />
<glyph unicode="&#xbc;" horiz-adv-x="2179" d="M98 1561l60 125h590v-113l-158 -109v-446l188 -41l-59 -125h-592v113l160 108v445zM421 -342l1272 2396l131 -65l-1274 -2397zM1034 -8l607 637l303 84v-664h250l-58 -166h-192v-266l-303 -86v352h-607v109zM1309 49h332v350z" />
<glyph unicode="&#xbd;" horiz-adv-x="2449" d="M98 1561l60 125h590v-113l-158 -109v-446l188 -41l-59 -125h-592v113l160 108v445zM421 -342l1272 2396l131 -65l-1274 -2397zM1391 500l227 159q74 25 182 25q203 0 325 -61.5t122 -163.5q0 -55 -98.5 -145.5t-301.5 -207.5h318l65 138l127 -39v-395l-170 26h-786v129 q190 125 290.5 201t140.5 123t40 88q0 33 -33 55.5t-84 22.5q-113 0 -315 -82z" />
<glyph unicode="&#xbe;" horiz-adv-x="2242" d="M31 1528l227 160q49 12 94 12q121 0 221.5 -31t159 -83t58.5 -113q-6 -68 -69 -130.5t-187 -130.5l-3 2q173 -51 250.5 -107t77.5 -134q0 -154 -186.5 -273.5t-595.5 -226.5l-39 137q199 57 302 99.5t145 87.5t42 108q0 57 -52 99.5t-167 80.5v105q82 51 116 97t34 104 q0 47 -36 77.5t-93 30.5q-74 0 -250 -80zM487 -342l1272 2396l131 -65l-1274 -2397zM1099 -8l607 637l303 84v-664h250l-58 -166h-192v-266l-303 -86v352h-607v109zM1374 49h332v350z" />
<glyph unicode="&#xbf;" horiz-adv-x="923" d="M-33 -213q0 63 53.5 116.5t155.5 125.5q72 51 104.5 80.5t32.5 58.5q0 49 -118 90v131l274 174q115 -57 181.5 -114.5t66.5 -129.5q0 -66 -49.5 -120t-143.5 -129q-70 -53 -103.5 -88t-33.5 -68q0 -31 35 -70t88 -66.5t104 -27.5q98 0 265 66l61 -127l-266 -213 q-88 -16 -213 -17q-106 0 -222 52.5t-194 129t-78 146.5zM211 889q0 63 44 118.5t111.5 88t129.5 32.5q94 0 155.5 -60t61.5 -148q0 -63 -44 -117.5t-110.5 -87.5t-128.5 -33q-94 0 -156.5 60.5t-62.5 146.5z" />
<glyph unicode="&#xc0;" horiz-adv-x="1902" d="M-2 0v131l231 172l508 1241l398 105l573 -1399l211 -100l-74 -150h-805v131l234 131l-115 281h-616l-99 -242l301 -151l-73 -150h-674zM449 2175l57 115l408 39l219 -402l-129 -59zM614 717h476l-238 583z" />
<glyph unicode="&#xc1;" horiz-adv-x="1902" d="M-2 0v131l231 172l508 1241l398 105l573 -1399l211 -100l-74 -150h-805v131l234 131l-115 281h-616l-99 -242l301 -151l-73 -150h-674zM614 717h476l-238 583zM751 1927l219 402l408 -39l55 -115l-555 -307z" />
<glyph unicode="&#xc2;" horiz-adv-x="1902" d="M-2 0v131l231 172l508 1241l398 105l573 -1399l211 -100l-74 -150h-805v131l234 131l-115 281h-616l-99 -242l301 -151l-73 -150h-674zM419 1993l506 326l557 -308l-55 -116l-405 -39l-146 239l-373 -239zM614 717h476l-238 583z" />
<glyph unicode="&#xc3;" horiz-adv-x="1902" d="M-2 0v131l231 172l508 1241l398 105l573 -1399l211 -100l-74 -150h-805v131l234 131l-115 281h-616l-99 -242l301 -151l-73 -150h-674zM422 2054l481 308q96 -97 155.5 -139t108.5 -42q39 0 84 29l115 74l84 -137l-481 -308q-96 98 -155.5 139.5t-108.5 41.5 q-39 0 -86 -29l-111 -72zM614 717h476l-238 583z" />
<glyph unicode="&#xc4;" horiz-adv-x="1902" d="M-2 0v131l231 172l508 1241l398 105l573 -1399l211 -100l-74 -150h-805v131l234 131l-115 281h-616l-99 -242l301 -151l-73 -150h-674zM348 2054q0 59 40 111.5t100.5 83t115.5 30.5q86 0 141.5 -57t55.5 -141q0 -59 -40 -110.5t-100.5 -82t-115.5 -30.5q-84 0 -140.5 56 t-56.5 140zM614 717h476l-238 583zM1083 2054q0 59 40 111.5t100.5 83t115.5 30.5q86 0 141.5 -57t55.5 -141q0 -59 -40 -110.5t-100.5 -82t-115.5 -30.5q-84 0 -140.5 56t-56.5 140z" />
<glyph unicode="&#xc5;" horiz-adv-x="1902" d="M-2 0v131l231 172l508 1241l398 105l573 -1399l211 -100l-74 -150h-805v131l234 131l-115 281h-616l-99 -242l301 -151l-73 -150h-674zM575 2038q0 76 68 142.5t170 106.5t199 40q127 0 209.5 -62.5t82.5 -154.5q0 -76 -67.5 -142.5t-171 -106.5t-199.5 -40 q-123 0 -207 62.5t-84 154.5zM614 717h476l-238 583zM817 2120q0 -70 44 -115t124 -45q35 0 55.5 18.5t20.5 51.5q0 68 -44 113t-124 45q-35 0 -55.5 -17.5t-20.5 -50.5z" />
<glyph unicode="&#xc6;" horiz-adv-x="2304" d="M-2 0v131l235 174l508 1084l-254 73l74 148h1442l160 37v-537l-129 -55l-254 379h-394v-525h144l149 221h131v-589l-149 -74l-135 268h-140v-559h375l293 420l129 -53v-580l-160 37h-1235v131l193 152v452h-311l-213 -454l211 -131l-74 -150h-596zM750 909h231v496z" />
<glyph unicode="&#xc7;" horiz-adv-x="1724" d="M111 768q0 240 149.5 443.5t372.5 321.5t424 118q123 0 286.5 -31t239.5 -66v-446h-227q-154 287 -418 287q-106 0 -194.5 -69t-139.5 -189.5t-51 -270.5q0 -170 51 -310t156.5 -223t261.5 -83q190 0 541 188l88 -141l-377 -293h2q-84 -25 -178 -35q-66 -57 -99 -84 q109 -61 148 -109t39 -110q0 -94 -112.5 -144t-346.5 -61v129q66 23 94.5 50.5t28.5 68.5t-24.5 73t-90.5 77q41 33 123 102q-221 10 -391 116.5t-263 286t-93 404.5z" />
<glyph unicode="&#xc8;" horiz-adv-x="1683" d="M53 1462l74 148h1255l160 37v-537l-129 -55l-254 379h-471v-525h221l150 221h131v-589l-150 -74l-135 268h-217v-559h453l293 420l129 -53v-580l-160 37h-1313v131l193 152v1114zM375 2175l57 115l408 39l219 -402l-129 -59z" />
<glyph unicode="&#xc9;" horiz-adv-x="1683" d="M53 1462l74 148h1255l160 37v-537l-129 -55l-254 379h-471v-525h221l150 221h131v-589l-150 -74l-135 268h-217v-559h453l293 420l129 -53v-580l-160 37h-1313v131l193 152v1114zM678 1927l219 402l408 -39l55 -115l-555 -307z" />
<glyph unicode="&#xca;" horiz-adv-x="1683" d="M53 1462l74 148h1255l160 37v-537l-129 -55l-254 379h-471v-525h221l150 221h131v-589l-150 -74l-135 268h-217v-559h453l293 420l129 -53v-580l-160 37h-1313v131l193 152v1114zM346 1993l506 326l557 -308l-55 -116l-405 -39l-146 239l-373 -239z" />
<glyph unicode="&#xcb;" horiz-adv-x="1683" d="M53 1462l74 148h1255l160 37v-537l-129 -55l-254 379h-471v-525h221l150 221h131v-589l-150 -74l-135 268h-217v-559h453l293 420l129 -53v-580l-160 37h-1313v131l193 152v1114zM272 2054q0 59 40 111.5t100.5 83t115.5 30.5q86 0 141.5 -57t55.5 -141q0 -59 -40 -110.5 t-100.5 -82t-115.5 -30.5q-84 0 -140.5 56t-56.5 140zM1008 2054q0 59 39.5 111.5t100 83t116.5 30.5q86 0 141 -57t55 -141q0 -59 -40 -110.5t-100 -82t-116 -30.5q-84 0 -140 56t-56 140z" />
<glyph unicode="&#xcc;" horiz-adv-x="972" d="M-6 2175l57 115l408 39l219 -402l-129 -59zM53 1462l74 148h756v-129l-195 -168v-1100l232 -63l-74 -150h-756v131l193 166v1102z" />
<glyph unicode="&#xcd;" horiz-adv-x="972" d="M53 1462l74 148h756v-129l-195 -168v-1100l232 -63l-74 -150h-756v131l193 166v1102zM297 1927l219 402l408 -39l55 -115l-555 -307z" />
<glyph unicode="&#xce;" horiz-adv-x="972" d="M-35 1993l506 326l557 -308l-55 -116l-405 -39l-146 239l-373 -239zM53 1462l74 148h756v-129l-195 -168v-1100l232 -63l-74 -150h-756v131l193 166v1102z" />
<glyph unicode="&#xcf;" horiz-adv-x="972" d="M-39 2054q0 57 38 107.5t96.5 80t111.5 29.5q82 0 134 -54t52 -136q0 -58 -38 -107t-95 -78.5t-110 -29.5q-82 0 -135.5 54t-53.5 134zM53 1462l74 148h756v-129l-195 -168v-1100l232 -63l-74 -150h-756v131l193 166v1102zM582 2054q0 57 37.5 107.5t96 80t111.5 29.5 q82 0 134.5 -54t52.5 -136q0 -57 -38 -106.5t-95.5 -79t-110.5 -29.5q-82 0 -135 54t-53 134z" />
<glyph unicode="&#xd0;" horiz-adv-x="1904" d="M53 1462l74 148h303q188 0 369 12q135 8 196 8q236 0 418 -101.5t281.5 -281.5t99.5 -407q0 -233 -149.5 -431t-371.5 -313.5t-423 -115.5q-90 0 -182 10q-154 10 -236 10h-342v131l193 152v456h-174v142h174v512zM688 215q94 -35 219 -35l2 -2q123 0 225.5 74t161 202 t58.5 287q0 190 -56.5 347t-172 250.5t-287.5 93.5q-80 0 -150 -41v-510h289v-142h-289v-524z" />
<glyph unicode="&#xd1;" horiz-adv-x="1857" d="M53 1462l74 148h375l932 -1026v770l-312 108l74 148h629v-133l-195 -168v-1313h-196l-957 1057v-797l316 -109l-74 -149h-629v131l193 166v1036zM418 2054l481 308q96 -97 155.5 -139t108.5 -42q39 0 84 29l115 74l84 -137l-481 -308q-96 98 -155.5 139.5t-108.5 41.5 q-39 0 -86 -29l-111 -72z" />
<glyph unicode="&#xd2;" d="M111 768q0 240 151.5 443.5t376.5 321.5t426 118q242 0 426 -104.5t284.5 -289t100.5 -417.5q0 -240 -152.5 -442.5t-378 -320.5t-425.5 -118q-240 0 -423.5 103.5t-284.5 288t-101 417.5zM502 2175l57 115l408 39l219 -402l-129 -59zM553 866q0 -180 53 -327.5 t163 -235.5t269 -88q109 0 199 68.5t143.5 189.5t53.5 270q0 180 -53.5 329t-164 236t-270.5 87q-108 0 -198.5 -69t-142.5 -189.5t-52 -270.5z" />
<glyph unicode="&#xd3;" d="M111 768q0 240 151.5 443.5t376.5 321.5t426 118q242 0 426 -104.5t284.5 -289t100.5 -417.5q0 -240 -152.5 -442.5t-378 -320.5t-425.5 -118q-240 0 -423.5 103.5t-284.5 288t-101 417.5zM553 866q0 -180 53 -327.5t163 -235.5t269 -88q109 0 199 68.5t143.5 189.5 t53.5 270q0 180 -53.5 329t-164 236t-270.5 87q-108 0 -198.5 -69t-142.5 -189.5t-52 -270.5zM805 1927l219 402l408 -39l55 -115l-555 -307z" />
<glyph unicode="&#xd4;" d="M111 768q0 240 151.5 443.5t376.5 321.5t426 118q242 0 426 -104.5t284.5 -289t100.5 -417.5q0 -240 -152.5 -442.5t-378 -320.5t-425.5 -118q-240 0 -423.5 103.5t-284.5 288t-101 417.5zM473 1993l506 326l557 -308l-55 -116l-405 -39l-146 239l-373 -239zM553 866 q0 -180 53 -327.5t163 -235.5t269 -88q109 0 199 68.5t143.5 189.5t53.5 270q0 180 -53.5 329t-164 236t-270.5 87q-108 0 -198.5 -69t-142.5 -189.5t-52 -270.5z" />
<glyph unicode="&#xd5;" d="M111 768q0 240 151.5 443.5t376.5 321.5t426 118q242 0 426 -104.5t284.5 -289t100.5 -417.5q0 -240 -152.5 -442.5t-378 -320.5t-425.5 -118q-240 0 -423.5 103.5t-284.5 288t-101 417.5zM475 2054l481 308q96 -97 155.5 -139t108.5 -42q39 0 84 29l115 74l84 -137 l-481 -308q-96 98 -155.5 139.5t-108.5 41.5q-39 0 -86 -29l-111 -72zM553 866q0 -180 53 -327.5t163 -235.5t269 -88q109 0 199 68.5t143.5 189.5t53.5 270q0 180 -53.5 329t-164 236t-270.5 87q-108 0 -198.5 -69t-142.5 -189.5t-52 -270.5z" />
<glyph unicode="&#xd6;" d="M111 768q0 240 151.5 443.5t376.5 321.5t426 118q242 0 426 -104.5t284.5 -289t100.5 -417.5q0 -240 -152.5 -442.5t-378 -320.5t-425.5 -118q-240 0 -423.5 103.5t-284.5 288t-101 417.5zM401 2054q0 59 40 111.5t100.5 83t115.5 30.5q86 0 141.5 -57t55.5 -141 q0 -59 -40 -110.5t-100.5 -82t-115.5 -30.5q-84 0 -140.5 56t-56.5 140zM553 866q0 -180 53 -327.5t163 -235.5t269 -88q109 0 199 68.5t143.5 189.5t53.5 270q0 180 -53.5 329t-164 236t-270.5 87q-108 0 -198.5 -69t-142.5 -189.5t-52 -270.5zM1137 2054q0 59 40 111.5 t100 83t116 30.5q86 0 141 -57t55 -141q0 -59 -40 -110.5t-100 -82t-116 -30.5q-84 0 -140 56t-56 140z" />
<glyph unicode="&#xd7;" horiz-adv-x="1091" d="M82 283l358 358l-358 358l108 107l357 -356l356 356l107 -107l-357 -358l357 -358l-107 -107l-356 356l-357 -356z" />
<glyph unicode="&#xd8;" d="M111 768q0 240 151.5 443.5t376.5 321.5t426 118q162 0 299 -47l190 327l136 -78l-183 -317h2q174 -104 271.5 -285.5t97.5 -410.5q0 -240 -152.5 -442.5t-378 -320.5t-425.5 -118q-158 0 -295 47l-191 -330l-135 78l182 318q-176 104 -274 285.5t-98 410.5zM555 866 q0 -135 30.5 -254.5t90.5 -208.5l526 914q-111 78 -254 78q-106 0 -197.5 -69t-143.5 -189.5t-52 -270.5zM788 287q106 -74 252 -74l-2 -2q109 0 199 68.5t143.5 190.5t53.5 271q0 135 -30 253t-89 206z" />
<glyph unicode="&#xd9;" horiz-adv-x="1839" d="M-2 1462l76 148h755v-129l-194 -152v-680q0 -207 106.5 -320.5t325.5 -113.5q82 0 165 49t136 143.5t53 221.5v743l-247 90l75 148h561v-129l-194 -152v-694q0 -215 -107.5 -368.5t-268.5 -230.5t-312 -77q-201 0 -360.5 81t-249 223.5t-89.5 320.5v821zM455 2175l57 115 l408 39l219 -402l-129 -59z" />
<glyph unicode="&#xda;" horiz-adv-x="1839" d="M-2 1462l76 148h755v-129l-194 -152v-680q0 -207 106.5 -320.5t325.5 -113.5q82 0 165 49t136 143.5t53 221.5v743l-247 90l75 148h561v-129l-194 -152v-694q0 -215 -107.5 -368.5t-268.5 -230.5t-312 -77q-201 0 -360.5 81t-249 223.5t-89.5 320.5v821zM757 1927 l219 402l408 -39l55 -115l-555 -307z" />
<glyph unicode="&#xdb;" horiz-adv-x="1839" d="M-2 1462l76 148h755v-129l-194 -152v-680q0 -207 106.5 -320.5t325.5 -113.5q82 0 165 49t136 143.5t53 221.5v743l-247 90l75 148h561v-129l-194 -152v-694q0 -215 -107.5 -368.5t-268.5 -230.5t-312 -77q-201 0 -360.5 81t-249 223.5t-89.5 320.5v821zM426 1993 l506 326l557 -308l-55 -116l-405 -39l-146 239l-373 -239z" />
<glyph unicode="&#xdc;" horiz-adv-x="1839" d="M-2 1462l76 148h755v-129l-194 -152v-680q0 -207 106.5 -320.5t325.5 -113.5q82 0 165 49t136 143.5t53 221.5v743l-247 90l75 148h561v-129l-194 -152v-694q0 -215 -107.5 -368.5t-268.5 -230.5t-312 -77q-201 0 -360.5 81t-249 223.5t-89.5 320.5v821zM352 2054 q0 59 40 111.5t100.5 83t115.5 30.5q86 0 141.5 -57t55.5 -141q0 -59 -40 -110.5t-100.5 -82t-115.5 -30.5q-84 0 -140.5 56t-56.5 140zM1087 2054q0 59 40 111.5t100.5 83t115.5 30.5q86 0 141.5 -57t55.5 -141q0 -59 -40 -110.5t-100.5 -82t-115.5 -30.5q-84 0 -140.5 56 t-56.5 140z" />
<glyph unicode="&#xdd;" horiz-adv-x="1761" d="M-16 1464l41 148h723v-129l-146 -113l354 -547l351 492l-293 147l76 148h671v-129l-219 -168l-465 -664v-438l232 -59l-74 -150h-739v131l192 152v243l-557 867zM702 1927l219 402l408 -39l55 -115l-555 -307z" />
<glyph unicode="&#xde;" horiz-adv-x="1595" d="M53 1462l74 148h756v-129l-195 -168v-88q49 2 86 4t66 4q131 8 192 8q154 0 273.5 -53t185 -145.5t65.5 -202.5q0 -125 -110.5 -238t-278.5 -177.5t-325 -55.5l-86 53l73 149h99q86 0 135 54.5t49 152.5q0 117 -65.5 191.5t-190.5 74.5q-90 0 -168 -55v-776l232 -63 l-74 -150h-756v131l193 166v1102z" />
<glyph unicode="&#xdf;" horiz-adv-x="1695" d="M51 895v152h242v161q0 158 107.5 296t269 221t311.5 83q80 0 192.5 -52t193.5 -132t81 -160q0 -74 -37 -130t-113 -136q-66 -66 -97.5 -112t-31.5 -101q0 -72 49.5 -128t155.5 -138q80 -61 129 -105.5t83 -104.5t34 -132q0 -82 -75 -176.5t-181.5 -157.5t-194.5 -63 t-206.5 17t-167.5 38v364h143q45 -92 110.5 -144t131.5 -52q35 0 55 21.5t20 54.5q0 39 -40.5 79.5t-127.5 104.5q-88 68 -142 116t-93 111.5t-39 132.5q0 72 33 130.5t96 133.5q51 63 76.5 106.5t25.5 90.5q0 51 -32.5 120t-82.5 118t-100 49q-78 0 -117.5 -67.5 t-39.5 -196.5v-1307h-561v131l182 143v621h-242z" />
<glyph unicode="&#xe0;" horiz-adv-x="1388" d="M90 317q0 80 49 158t140 143h528v9q0 106 -58.5 158.5t-154.5 52.5q-141 0 -395 -99l-62 127l283 228q109 35 256 34q242 0 376 -108.5t134 -314.5v-484l184 -71l-74 -150h-489v178l-232 -182q-41 -16 -102 -16q-203 0 -293 99t-90 238zM164 1673l57 115l408 39l219 -402 l-129 -59zM463 389q0 -47 33.5 -74.5t93.5 -27.5q96 0 217 78v104h-322q-23 -37 -22 -80z" />
<glyph unicode="&#xe1;" horiz-adv-x="1388" d="M90 317q0 80 49 158t140 143h528v9q0 106 -58.5 158.5t-154.5 52.5q-141 0 -395 -99l-62 127l283 228q109 35 256 34q242 0 376 -108.5t134 -314.5v-484l184 -71l-74 -150h-489v178l-232 -182q-41 -16 -102 -16q-203 0 -293 99t-90 238zM463 389q0 -47 33.5 -74.5 t93.5 -27.5q96 0 217 78v104h-322q-23 -37 -22 -80zM467 1425l219 402l408 -39l55 -115l-555 -307z" />
<glyph unicode="&#xe2;" horiz-adv-x="1388" d="M90 317q0 80 49 158t140 143h528v9q0 106 -58.5 158.5t-154.5 52.5q-141 0 -395 -99l-62 127l283 228q109 35 256 34q242 0 376 -108.5t134 -314.5v-484l184 -71l-74 -150h-489v178l-232 -182q-41 -16 -102 -16q-203 0 -293 99t-90 238zM135 1491l506 326l557 -308 l-55 -116l-405 -39l-146 239l-373 -239zM463 389q0 -47 33.5 -74.5t93.5 -27.5q96 0 217 78v104h-322q-23 -37 -22 -80z" />
<glyph unicode="&#xe3;" horiz-adv-x="1388" d="M90 317q0 80 49 158t140 143h528v9q0 106 -58.5 158.5t-154.5 52.5q-141 0 -395 -99l-62 127l283 228q109 35 256 34q242 0 376 -108.5t134 -314.5v-484l184 -71l-74 -150h-489v178l-232 -182q-41 -16 -102 -16q-203 0 -293 99t-90 238zM137 1552l481 308 q96 -97 155.5 -139t108.5 -42q39 0 84 29l115 74l84 -137l-481 -308q-96 98 -155.5 139.5t-108.5 41.5q-39 0 -86 -29l-111 -72zM463 389q0 -47 33.5 -74.5t93.5 -27.5q96 0 217 78v104h-322q-23 -37 -22 -80z" />
<glyph unicode="&#xe4;" horiz-adv-x="1388" d="M90 317q0 80 49 158t140 143h528v9q0 106 -58.5 158.5t-154.5 52.5q-141 0 -395 -99l-62 127l283 228q109 35 256 34q242 0 376 -108.5t134 -314.5v-484l184 -71l-74 -150h-489v178l-232 -182q-41 -16 -102 -16q-203 0 -293 99t-90 238zM131 1552q0 57 38 107.5t96.5 80 t111.5 29.5q82 0 134 -54t52 -136q0 -57 -38 -106.5t-95 -79t-111 -29.5q-81 0 -134.5 54.5t-53.5 133.5zM463 389q0 -47 33.5 -74.5t93.5 -27.5q96 0 217 78v104h-322q-23 -37 -22 -80zM752 1552q0 57 37.5 107.5t96 80t111.5 29.5q82 0 134.5 -54t52.5 -136 q0 -57 -38 -106.5t-95.5 -79t-110.5 -29.5q-82 0 -135 54.5t-53 133.5z" />
<glyph unicode="&#xe5;" horiz-adv-x="1388" d="M90 317q0 80 49 158t140 143h528v9q0 106 -58.5 158.5t-154.5 52.5q-141 0 -395 -99l-62 127l283 228q109 35 256 34q242 0 376 -108.5t134 -314.5v-484l184 -71l-74 -150h-489v178l-232 -182q-41 -16 -102 -16q-203 0 -293 99t-90 238zM290 1536q0 76 68 142.5 t170 106.5t199 40q127 0 209.5 -62.5t82.5 -154.5q0 -76 -67.5 -142.5t-171 -106.5t-199.5 -40q-123 0 -207 62.5t-84 154.5zM463 389q0 -47 33.5 -74.5t93.5 -27.5q96 0 217 78v104h-322q-23 -37 -22 -80zM532 1618q0 -70 44 -115t124 -45q35 0 55.5 18.5t20.5 51.5 q0 68 -44 113t-124 45q-35 0 -55.5 -17.5t-20.5 -50.5z" />
<glyph unicode="&#xe6;" horiz-adv-x="1959" d="M92 315q0 80 49 158t140 143h491v9q0 106 -53 158.5t-141 52.5q-133 0 -377 -99l-62 127l283 228q100 35 240 34q254 0 376 -135q88 66 186.5 101.5t188.5 35.5l4 -2q211 0 326 -166.5t110 -470.5h-688q20 -109 76.5 -173t144.5 -64q135 0 402 119l61 -127l-288 -232 q-123 -35 -293 -35q-117 0 -216.5 49.5t-166.5 137.5l-213 -170q-76 -16 -197 -17q-203 0 -293 99.5t-90 238.5zM467 387q0 -61 39 -98t108 -37v-2q93 0 197 45q-31 80 -37 172h-285q-23 -37 -22 -80zM1157 641h320q-12 117 -49 173t-121 56q-74 0 -110 -56t-40 -173z" />
<glyph unicode="&#xe7;" horiz-adv-x="1323" d="M111 518q0 164 99 304.5t249.5 223t292.5 82.5q100 0 231 -23.5t193 -51.5v-400h-146q-76 102 -172 160.5t-203 58.5q-68 0 -106.5 -66.5t-38.5 -189.5q0 -156 66.5 -259t189.5 -103q137 0 399 117l62 -127l-256 -205q-57 -57 -172 -156h-2q108 -61 147 -109t39 -110 q0 -94 -112.5 -144t-346.5 -61v129q66 23 94.5 50.5t28.5 68.5t-24.5 73t-90.5 77q88 74 146 123h-31q-154 0 -276.5 70.5t-191 193.5t-68.5 274z" />
<glyph unicode="&#xe8;" horiz-adv-x="1363" d="M111 518q0 164 106.5 304.5t266 223t309.5 82.5q221 0 342.5 -166.5t117.5 -469.5h-731q23 -109 84.5 -173.5t159.5 -64.5q145 0 424 125l61 -127l-295 -238q-129 -35 -309 -34q-154 0 -276.5 70.5t-191 193.5t-68.5 274zM201 1673l57 115l408 39l219 -402l-129 -59z M510 643h364q-12 117 -55 173t-137 56q-84 0 -126 -56t-46 -173z" />
<glyph unicode="&#xe9;" horiz-adv-x="1363" d="M111 518q0 164 106.5 304.5t266 223t309.5 82.5q221 0 342.5 -166.5t117.5 -469.5h-731q23 -109 84.5 -173.5t159.5 -64.5q145 0 424 125l61 -127l-295 -238q-129 -35 -309 -34q-154 0 -276.5 70.5t-191 193.5t-68.5 274zM504 1425l219 402l408 -39l55 -115l-555 -307z M510 643h364q-12 117 -55 173t-137 56q-84 0 -126 -56t-46 -173z" />
<glyph unicode="&#xea;" horiz-adv-x="1363" d="M111 518q0 164 106.5 304.5t266 223t309.5 82.5q221 0 342.5 -166.5t117.5 -469.5h-731q23 -109 84.5 -173.5t159.5 -64.5q145 0 424 125l61 -127l-295 -238q-129 -35 -309 -34q-154 0 -276.5 70.5t-191 193.5t-68.5 274zM172 1491l506 326l557 -308l-55 -116l-405 -39 l-146 239l-373 -239zM510 643h364q-12 117 -55 173t-137 56q-84 0 -126 -56t-46 -173z" />
<glyph unicode="&#xeb;" horiz-adv-x="1363" d="M111 518q0 164 106.5 304.5t266 223t309.5 82.5q221 0 342.5 -166.5t117.5 -469.5h-731q23 -109 84.5 -173.5t159.5 -64.5q145 0 424 125l61 -127l-295 -238q-129 -35 -309 -34q-154 0 -276.5 70.5t-191 193.5t-68.5 274zM168 1552q0 57 38 107.5t96 80t112 29.5 q82 0 134 -54t52 -136q0 -57 -38 -106.5t-95 -79t-111 -29.5q-82 0 -135 54.5t-53 133.5zM510 643h364q-12 117 -55 173t-137 56q-84 0 -126 -56t-46 -173zM788 1552q0 57 38 107.5t96.5 80t111.5 29.5q82 0 134.5 -54t52.5 -136q0 -57 -38 -106.5t-95.5 -79t-110.5 -29.5 q-82 0 -135.5 54.5t-53.5 133.5z" />
<glyph unicode="&#xec;" horiz-adv-x="845" d="M-70 1673l57 115l408 39l219 -402l-129 -59zM80 0v131l182 156v436l-182 121v129l416 174h145v-938l184 -59l-73 -150h-672z" />
<glyph unicode="&#xed;" horiz-adv-x="845" d="M80 0v131l182 156v436l-182 121v129l416 174h145v-938l184 -59l-73 -150h-672zM233 1425l219 402l408 -39l55 -115l-555 -307z" />
<glyph unicode="&#xee;" horiz-adv-x="845" d="M-99 1491l506 326l557 -308l-55 -116l-405 -39l-146 239l-373 -239zM80 0v131l182 156v436l-182 121v129l416 174h145v-938l184 -59l-73 -150h-672z" />
<glyph unicode="&#xef;" horiz-adv-x="845" d="M-102 1552q0 57 37.5 107.5t96 80t111.5 29.5q82 0 134.5 -54t52.5 -136q0 -57 -38 -106.5t-95.5 -79t-110.5 -29.5q-82 0 -135 54.5t-53 133.5zM80 0v131l182 156v436l-182 121v129l416 174h145v-938l184 -59l-73 -150h-672zM518 1552q0 57 38 107.5t96.5 80t111.5 29.5 q82 0 134 -54t52 -136q0 -57 -38 -106.5t-95 -79t-110 -29.5q-82 0 -135.5 54.5t-53.5 133.5z" />
<glyph unicode="&#xf0;" horiz-adv-x="1374" d="M61 1583v131l373 94q201 -78 381 -219l402 219l43 -75l-373 -203q196 -176 312 -394t116 -434q0 -188 -97.5 -355t-259 -267t-344.5 -100q-154 0 -278.5 69.5t-196 193.5t-71.5 275q0 145 99 285.5t257 230.5t324 94q-80 121 -199 218l-408 -222l-39 76l371 203 q-180 125 -412 180zM477 616q0 -174 69.5 -277t186.5 -103q92 0 134 82.5t42 267.5q0 147 -41 286h-227q-82 0 -123 -64.5t-41 -191.5z" />
<glyph unicode="&#xf1;" horiz-adv-x="1540" d="M80 2v131l182 156v430l-182 117v131l450 180l82 -229l242 194q55 16 129 16q162 0 258 -85t96 -230v-604l185 -57l-74 -150h-490v643q0 92 -27.5 131t-94.5 39q-96 0 -195 -55v-549l184 -59l-73 -150h-672zM231 1552l481 308q96 -97 155.5 -139t108.5 -42q39 0 84 29 l115 74l84 -137l-481 -308q-96 98 -155.5 139.5t-108.5 41.5q-39 0 -86 -29l-111 -72z" />
<glyph unicode="&#xf2;" horiz-adv-x="1441" d="M111 518q0 164 106.5 304.5t266 223t309.5 82.5q155 0 278 -70.5t191.5 -194.5t68.5 -273q0 -162 -106.5 -303.5t-267 -224t-310.5 -82.5q-154 0 -276.5 70.5t-191 193.5t-68.5 274zM229 1673l57 115l408 39l219 -402l-129 -59zM520 616q0 -166 64.5 -273t181.5 -107 q76 0 116 65.5t40 192.5q0 166 -64.5 272t-183.5 106q-74 0 -114 -64.5t-40 -191.5z" />
<glyph unicode="&#xf3;" horiz-adv-x="1441" d="M111 518q0 164 106.5 304.5t266 223t309.5 82.5q155 0 278 -70.5t191.5 -194.5t68.5 -273q0 -162 -106.5 -303.5t-267 -224t-310.5 -82.5q-154 0 -276.5 70.5t-191 193.5t-68.5 274zM520 616q0 -166 64.5 -273t181.5 -107q76 0 116 65.5t40 192.5q0 166 -64.5 272 t-183.5 106q-74 0 -114 -64.5t-40 -191.5zM532 1425l219 402l408 -39l55 -115l-555 -307z" />
<glyph unicode="&#xf4;" horiz-adv-x="1441" d="M111 518q0 164 106.5 304.5t266 223t309.5 82.5q155 0 278 -70.5t191.5 -194.5t68.5 -273q0 -162 -106.5 -303.5t-267 -224t-310.5 -82.5q-154 0 -276.5 70.5t-191 193.5t-68.5 274zM200 1491l506 326l557 -308l-55 -116l-405 -39l-146 239l-373 -239zM520 616 q0 -166 64.5 -273t181.5 -107q76 0 116 65.5t40 192.5q0 166 -64.5 272t-183.5 106q-74 0 -114 -64.5t-40 -191.5z" />
<glyph unicode="&#xf5;" horiz-adv-x="1441" d="M111 518q0 164 106.5 304.5t266 223t309.5 82.5q155 0 278 -70.5t191.5 -194.5t68.5 -273q0 -162 -106.5 -303.5t-267 -224t-310.5 -82.5q-154 0 -276.5 70.5t-191 193.5t-68.5 274zM203 1552l481 308q96 -97 155.5 -139t108.5 -42q39 0 84 29l115 74l84 -137l-481 -308 q-96 98 -155.5 139.5t-108.5 41.5q-39 0 -86 -29l-111 -72zM520 616q0 -166 64.5 -273t181.5 -107q76 0 116 65.5t40 192.5q0 166 -64.5 272t-183.5 106q-74 0 -114 -64.5t-40 -191.5z" />
<glyph unicode="&#xf6;" horiz-adv-x="1441" d="M111 518q0 164 106.5 304.5t266 223t309.5 82.5q155 0 278 -70.5t191.5 -194.5t68.5 -273q0 -162 -106.5 -303.5t-267 -224t-310.5 -82.5q-154 0 -276.5 70.5t-191 193.5t-68.5 274zM197 1552q0 57 37.5 107.5t96 80t111.5 29.5q82 0 134.5 -54t52.5 -136 q0 -57 -38 -106.5t-95.5 -79t-110.5 -29.5q-82 0 -135 54.5t-53 133.5zM520 616q0 -166 64.5 -273t181.5 -107q76 0 116 65.5t40 192.5q0 166 -64.5 272t-183.5 106q-74 0 -114 -64.5t-40 -191.5zM817 1552q0 57 38 107.5t96.5 80t111.5 29.5q82 0 134 -54t52 -136 q0 -57 -37.5 -106.5t-95 -79t-110.5 -29.5q-82 0 -135.5 54.5t-53.5 133.5z" />
<glyph unicode="&#xf7;" horiz-adv-x="1126" d="M82 567v150h962v-150h-962zM311 202q0 63 44 118.5t111.5 88.5t129.5 33q94 0 155.5 -60.5t61.5 -148.5q0 -63 -44 -117.5t-110.5 -87t-128.5 -32.5q-92 0 -155.5 60t-63.5 146zM311 1048q0 63 44 118.5t111.5 88.5t129.5 33q94 0 155.5 -60.5t61.5 -148.5 q0 -63 -44 -117.5t-110.5 -87t-128.5 -32.5q-92 0 -155.5 60t-63.5 146z" />
<glyph unicode="&#xf8;" horiz-adv-x="1441" d="M111 518q0 164 106.5 304.5t266 223t309.5 82.5q82 0 159 -22l185 319l129 -75l-176 -303l-3 -3q113 -71 177.5 -190t64.5 -264q0 -162 -106.5 -303.5t-267 -224t-310.5 -82.5q-80 0 -158 22l-182 -317l-131 73l176 305q-113 72 -176 192t-63 263zM518 614 q0 -114 31 -204l244 421q-51 39 -121 39q-74 0 -114 -64.5t-40 -191.5zM643 272q51 -39 121 -39l-2 -2q76 0 116 65.5t40 192.5q0 117 -31 205z" />
<glyph unicode="&#xf9;" horiz-adv-x="1482" d="M20 821v129l418 180h144v-667q0 -92 27.5 -131t97.5 -39q94 0 192 55v369l-182 104v129l416 180h145v-921l182 -59l-76 -150h-487v166l-211 -172q-55 -16 -129 -17q-162 0 -258 85t-96 231v424zM268 1673l57 115l408 39l219 -402l-129 -59z" />
<glyph unicode="&#xfa;" horiz-adv-x="1482" d="M20 821v129l418 180h144v-667q0 -92 27.5 -131t97.5 -39q94 0 192 55v369l-182 104v129l416 180h145v-921l182 -59l-76 -150h-487v166l-211 -172q-55 -16 -129 -17q-162 0 -258 85t-96 231v424zM571 1425l219 402l408 -39l55 -115l-555 -307z" />
<glyph unicode="&#xfb;" horiz-adv-x="1482" d="M20 821v129l418 180h144v-667q0 -92 27.5 -131t97.5 -39q94 0 192 55v369l-182 104v129l416 180h145v-921l182 -59l-76 -150h-487v166l-211 -172q-55 -16 -129 -17q-162 0 -258 85t-96 231v424zM239 1491l506 326l557 -308l-55 -116l-405 -39l-146 239l-373 -239z" />
<glyph unicode="&#xfc;" horiz-adv-x="1482" d="M20 821v129l418 180h144v-667q0 -92 27.5 -131t97.5 -39q94 0 192 55v369l-182 104v129l416 180h145v-921l182 -59l-76 -150h-487v166l-211 -172q-55 -16 -129 -17q-162 0 -258 85t-96 231v424zM236 1552q0 57 37.5 107.5t96 80t111.5 29.5q82 0 134.5 -54t52.5 -136 q0 -57 -38 -106.5t-95.5 -79t-110.5 -29.5q-82 0 -135 54.5t-53 133.5zM856 1552q0 57 38 107.5t96.5 80t111.5 29.5q82 0 134 -54t52 -136q0 -57 -38 -106.5t-95 -79t-111 -29.5q-81 0 -134.5 54.5t-53.5 133.5z" />
<glyph unicode="&#xfd;" horiz-adv-x="1351" d="M-14 844v131l483 172l78 -309l217 -523l233 447l-299 196l74 150h535v-131l-529 -977l-497 -541l-146 111q150 180 210.5 311t70.5 295l-226 549zM475 1425l219 402l408 -39l55 -115l-555 -307z" />
<glyph unicode="&#xfe;" horiz-adv-x="1529" d="M39 -391l182 158v1597l-182 121v131l416 172h145v-846l213 170q66 16 152 16q131 0 235.5 -70.5t162.5 -194.5t58 -273q0 -162 -106.5 -303.5t-267 -224t-310.5 -82.5v2q-74 -1 -137 34v-307l320 -82l-74 -147h-807v129zM600 449q0 -90 66.5 -150.5t189.5 -60.5 q166 0 166 258q0 143 -48 236t-143 93q-125 0 -231 -59v-317z" />
<glyph unicode="&#xff;" horiz-adv-x="1351" d="M-14 844v131l483 172l78 -309l217 -523l233 447l-299 196l74 150h535v-131l-529 -977l-497 -541l-146 111q150 180 210.5 311t70.5 295l-226 549zM141 1552q0 57 38 107.5t96.5 80t111.5 29.5q82 0 134 -54t52 -136q0 -57 -37.5 -106.5t-95 -79t-110.5 -29.5 q-82 0 -135.5 54.5t-53.5 133.5zM762 1552q0 57 38 107.5t96 80t112 29.5q82 0 134 -54t52 -136q0 -57 -38 -106.5t-95 -79t-111 -29.5q-82 0 -135 54.5t-53 133.5z" />
<glyph unicode="&#x152;" horiz-adv-x="2539" d="M111 770q0 233 148.5 431t368.5 313.5t419 115.5q90 0 182 -10q154 -10 235 -10h774l160 37v-537l-129 -55l-254 379h-401v-525h155l162 221h131v-589l-149 -74l-148 268h-151v-559h383l293 420l129 -53v-580l-160 37h-793q-188 0 -368 -12q-135 -8 -197 -8 q-233 0 -412.5 101t-278.5 281.5t-99 407.5zM551 868q0 -190 55.5 -346.5t170 -249t282.5 -92.5q80 0 149 41v1174q-94 35 -219 35q-121 0 -221 -74t-157.5 -202t-57.5 -288z" />
<glyph unicode="&#x153;" horiz-adv-x="2074" d="M111 518q0 164 102 304.5t257 223t298 82.5q106 0 196.5 -42t155.5 -119q92 76 201 118.5t207 42.5l2 -2q211 0 325.5 -166.5t110.5 -470.5h-688q20 -109 76.5 -173t144.5 -64q135 0 402 119l61 -127l-289 -232q-123 -35 -293 -35q-109 0 -202 43t-160 119 q-88 -76 -193.5 -117.5t-201.5 -41.5q-147 0 -264 70.5t-182.5 193.5t-65.5 274zM522 614q0 -166 58.5 -273.5t162.5 -107.5q64 0 97.5 66t33.5 193q0 164 -59 271t-164 107q-61 0 -95 -64.5t-34 -191.5zM1270 641h319q-12 117 -49 173t-121 56q-73 0 -109 -56t-40 -173z " />
<glyph unicode="&#x178;" horiz-adv-x="1761" d="M-16 1464l41 148h723v-129l-146 -113l354 -547l351 492l-293 147l76 148h671v-129l-219 -168l-465 -664v-438l232 -59l-74 -150h-739v131l192 152v243l-557 867zM297 2054q0 59 40 111.5t100.5 83t115.5 30.5q86 0 141.5 -57t55.5 -141q0 -59 -40 -110.5t-100.5 -82 t-115.5 -30.5q-84 0 -140.5 56t-56.5 140zM1032 2054q0 59 40 111.5t100.5 83t115.5 30.5q86 0 141.5 -57t55.5 -141q0 -59 -40 -110.5t-100.5 -82t-115.5 -30.5q-84 0 -140.5 56t-56.5 140z" />
<glyph unicode="&#x2c6;" horiz-adv-x="1163" d="M61 1491l506 326l557 -308l-55 -116l-405 -39l-146 239l-373 -239z" />
<glyph unicode="&#x2dc;" horiz-adv-x="1116" d="M41 1552l481 308q96 -97 155.5 -139t108.5 -42q39 0 84 29l115 74l84 -137l-481 -308q-96 98 -155.5 139.5t-108.5 41.5q-39 0 -86 -29l-111 -72z" />
<glyph unicode="&#x2000;" horiz-adv-x="1181" />
<glyph unicode="&#x2001;" horiz-adv-x="2362" />
<glyph unicode="&#x2002;" horiz-adv-x="1181" />
<glyph unicode="&#x2003;" horiz-adv-x="2362" />
<glyph unicode="&#x2004;" horiz-adv-x="787" />
<glyph unicode="&#x2005;" horiz-adv-x="590" />
<glyph unicode="&#x2006;" horiz-adv-x="393" />
<glyph unicode="&#x2007;" horiz-adv-x="393" />
<glyph unicode="&#x2008;" horiz-adv-x="295" />
<glyph unicode="&#x2009;" horiz-adv-x="472" />
<glyph unicode="&#x200a;" horiz-adv-x="131" />
<glyph unicode="&#x2010;" horiz-adv-x="1050" d="M115 526v127l82 105h739v-127l-82 -105h-739z" />
<glyph unicode="&#x2011;" horiz-adv-x="1050" d="M115 526v127l82 105h739v-127l-82 -105h-739z" />
<glyph unicode="&#x2012;" horiz-adv-x="1050" d="M115 526v127l82 105h739v-127l-82 -105h-739z" />
<glyph unicode="&#x2013;" horiz-adv-x="1540" d="M82 567v150h1376v-150h-1376z" />
<glyph unicode="&#x2014;" horiz-adv-x="2160" d="M82 567v150h1997v-150h-1997z" />
<glyph unicode="&#x2018;" horiz-adv-x="755" d="M82 1208l459 500l145 -111h2q-90 -106 -135 -185t-61 -165l182 -117v-131l-451 -180z" />
<glyph unicode="&#x2019;" horiz-adv-x="757" d="M70 928q90 106 134 185t60 165l-182 117v129l450 182l142 -389l-461 -500z" />
<glyph unicode="&#x201a;" horiz-adv-x="755" d="M68 -430q90 106 135 185t61 165l-182 117v131l450 180l140 -389l-461 -500z" />
<glyph unicode="&#x201c;" horiz-adv-x="1421" d="M-53 1208l459 500l145 -111h2q-90 -106 -135 -185t-61 -165l182 -117v-131l-451 -180zM612 1208l459 500l145 -111h2q-90 -106 -135 -185t-61 -165l182 -117v-131l-451 -180z" />
<glyph unicode="&#x201d;" horiz-adv-x="1423" d="M70 928q90 106 134 185t60 165l-182 117v129l450 182l142 -389l-461 -500zM736 928q90 106 134 185t60 165l-182 117v129l450 182l142 -389l-461 -500z" />
<glyph unicode="&#x201e;" horiz-adv-x="1421" d="M68 -430q90 106 135 185t61 165l-182 117v131l450 180l140 -389l-461 -500zM734 -430q90 106 135 185t61 165l-182 117v131l450 180l140 -389l-461 -500z" />
<glyph unicode="&#x2022;" horiz-adv-x="1308" d="M14 532q0 125 89.5 235t222.5 175.5t258 65.5q127 0 225 -55.5t153.5 -150.5t55.5 -212q0 -123 -88 -231.5t-221.5 -174t-255.5 -65.5q-123 0 -223.5 54t-158 149.5t-57.5 209.5z" />
<glyph unicode="&#x2026;" horiz-adv-x="2822" d="M291 186q0 63 44 118.5t111.5 88.5t129.5 33q94 0 155.5 -60.5t61.5 -148.5q0 -63 -44 -117.5t-110.5 -87t-128.5 -32.5q-92 0 -155.5 60t-63.5 146zM1159 186q0 63 44 118.5t111.5 88.5t129.5 33q94 0 155.5 -60.5t61.5 -148.5q0 -63 -44 -117.5t-110.5 -87 t-128.5 -32.5q-92 0 -155.5 60t-63.5 146zM2028 186q0 63 44 118.5t111.5 88.5t129.5 33q94 0 155.5 -60.5t61.5 -148.5q0 -63 -44 -117.5t-110.5 -87t-128.5 -32.5q-92 0 -155.5 60t-63.5 146z" />
<glyph unicode="&#x202f;" horiz-adv-x="472" />
<glyph unicode="&#x2039;" horiz-adv-x="921" d="M70 557l610 514l131 -108l-254 -363l254 -448l-131 -111z" />
<glyph unicode="&#x203a;" horiz-adv-x="921" d="M111 150l254 362l-254 449l129 108l612 -514l-612 -516z" />
<glyph unicode="&#x205f;" horiz-adv-x="590" />
<glyph unicode="&#x20ac;" horiz-adv-x="1882" d="M-6 563l76 150h194v55q0 51 10 117h-278l76 149h243q72 176 221.5 317.5t331 220.5t342.5 79q123 0 287 -31t240 -66v-446h-228q-154 287 -417 287q-129 0 -229.5 -99.5t-137.5 -261.5h625l-78 -149h-565v-19q0 -78 12 -151h481l-78 -150h-364q53 -145 159.5 -230 t262.5 -85q190 0 540 188l82 -143l-377 -293q-94 -27 -180 -36t-186 -9q-199 0 -360.5 76t-269 213t-146.5 317h-289z" />
<glyph unicode="&#x2122;" horiz-adv-x="2113" d="M78 1356v270l94 -16h619l94 16v-270l-88 -41l-146 186h-47v-418l119 -20l-41 -96h-424v88l96 61v385h-43l-145 -186zM911 1513l41 97h394l147 -338l141 338h398v-88l-97 -60v-377l117 -20l-41 -96h-399v88l76 49v303l-191 -440h-131l-213 440v-315l96 -29l-41 -96h-276 v88l96 61v365z" />
<glyph unicode="&#x25fc;" horiz-adv-x="1105" d="M0 0v1106h1106v-1106h-1106z" />
</font>
</defs>
</svg>
