<?xml version="1.0" standalone="no"?>
<!DOCTYPE svg PUBLIC "-//W3C//DTD SVG 1.1//EN" "http://www.w3.org/Graphics/SVG/1.1/DTD/svg11.dtd" >
<svg xmlns="http://www.w3.org/2000/svg" xmlns:xlink="http://www.w3.org/1999/xlink" version="1.1">
<metadata></metadata>
<defs>
<font id="inknut_antiquaregular" horiz-adv-x="1800" >
<font-face units-per-em="2048" ascent="1638" descent="-410" />
<missing-glyph horiz-adv-x="561" />
<glyph unicode="&#xfb01;" horiz-adv-x="1607" d="M51 936v94h238v176q0 160 87 298t220 221t258 83q106 0 244.5 -26.5t187.5 -52.5q43 -25 64.5 -64t21.5 -86q0 -49 -30.5 -93t-77.5 -69.5t-93 -25.5q-39 0 -74.5 21.5t-60.5 66.5q-33 63 -68.5 94t-87 41t-143.5 10q-90 0 -136 -80t-46 -233v-281h387l328 100h88v-970 l184 -68l-45 -92h-405v807l-168 129h-369v-758l291 -86l-45 -92h-695v74l183 145v717h-238z" />
<glyph unicode="&#xfb02;" horiz-adv-x="1607" d="M51 936v94h238v176q0 160 99 298t248.5 221t289.5 83q158 0 350 -20h82v-1628l184 -68l-45 -92h-405v1501q-51 55 -136.5 89t-162.5 34q-102 0 -170 -83t-68 -230v-281h363v-94h-363v-758l291 -86l-45 -92h-695v74l183 145v717h-238z" />
<glyph horiz-adv-x="0" />
<glyph horiz-adv-x="682" />
<glyph unicode=" "  horiz-adv-x="561" />
<glyph unicode="&#x09;" horiz-adv-x="561" />
<glyph unicode="&#xa0;" horiz-adv-x="561" />
<glyph unicode="!" horiz-adv-x="712" d="M152 1427v74l292 109h88l-110 -1098h-141zM174 145q0 49 31 93.5t78 70t92 25.5q67 0 109 -48t42 -118q0 -49 -30.5 -93t-77.5 -69.5t-90 -25.5q-66 0 -110 48t-44 117z" />
<glyph unicode="&#x22;" horiz-adv-x="1073" d="M123 1434v73l254 103h88l-70 -740l-108 -2zM606 1434v73l254 103h88l-70 -740l-108 -2z" />
<glyph unicode="#" horiz-adv-x="1597" d="M61 281l58 102h325l183 317h-326l59 103h324l178 307l78 -45l-152 -262h322l178 307l78 -45l-152 -262h326l-59 -103h-324l-182 -317h323l-57 -102h-326l-174 -301l-77 45l147 256h-322l-174 -301l-77 45l147 256h-324zM549 383h321l183 317h-322z" />
<glyph unicode="$" horiz-adv-x="1433" d="M143 55v408h101q82 -133 183 -220t210 -116v563q-160 84 -254 142.5t-161.5 139.5t-67.5 179q0 94 75.5 202.5t189 191.5t218.5 102v372h125v-370q127 -8 268 -36t209 -59v-407h-100q-80 139 -176.5 227t-200.5 113v-545l72 -37q150 -78 243.5 -137t158 -137t64.5 -174 l-2 4q0 -99 -87 -212.5t-214 -195.5t-237 -92v-369h-125v371q-133 10 -278.5 37t-213.5 55zM440 1255v2q0 -65 51.5 -123.5t143.5 -115.5v481q-90 -14 -142.5 -80.5t-52.5 -163.5zM760 115q114 6 183 77.5t69 169.5q0 72 -65.5 135.5t-186.5 131.5v-514z" />
<glyph unicode="%" horiz-adv-x="2222" d="M100 1360q0 119 88 222.5t221.5 165t258.5 61.5q131 0 233 -53.5t159.5 -144.5t57.5 -202q0 -121 -89 -224.5t-222 -164.5t-256 -61q-129 0 -232.5 52t-161 144t-57.5 205zM239 -199l1711 2097l78 -58l-1714 -2098zM330 1428q0 -137 80.5 -228.5t234.5 -91.5 q244 0 244 234q0 137 -82 228t-236 91q-241 0 -241 -233zM1104 162q0 119 88 222.5t221.5 165t258.5 61.5q131 0 233 -53.5t159.5 -144.5t57.5 -202q0 -121 -89 -224t-222 -164.5t-256 -61.5q-129 0 -232.5 52t-161 144.5t-57.5 204.5zM1334 230q0 -137 80.5 -229.5 t234.5 -92.5q244 0 244 236q0 137 -82 228t-236 91q-241 0 -241 -233z" />
<glyph unicode="&#x26;" horiz-adv-x="2582" d="M137 553q0 170 104.5 318.5t261 236.5t302.5 88q109 0 188.5 -71.5t104.5 -159.5q92 100 202.5 164.5t210.5 64.5q78 0 140.5 -20.5t142.5 -61.5q82 -41 144.5 -62.5t142.5 -21.5q49 0 100 22.5t85 62.5t34 87q0 76 -81 144.5t-224 121.5v74l260 90q66 -68 134.5 -182.5 t68.5 -196.5q0 -102 -84 -212.5t-197 -186.5t-186 -76q-63 0 -111 8q-68 -49 -99.5 -129t-31.5 -206q0 -123 65.5 -201t188.5 -78v2q123 0 348 160l62 -86l-312 -246q-90 -18 -217 -18q-121 0 -217 49t-150.5 133t-54.5 184q0 53 13 103l-570 -451q-92 -18 -235 -18 q-154 0 -275 75.5t-189.5 205.5t-68.5 290zM426 651q0 -205 93 -342t265 -137q82 0 180.5 41t231.5 145l573 453q-66 20 -159 63q-84 37 -138.5 54.5t-115.5 17.5q-66 0 -126.5 -22.5t-129.5 -81.5q-20 -88 -91 -165t-166 -142.5t-255 -159.5l-49 92q162 94 219 183t57 190 q0 70 -44 120t-101 50q-121 0 -182.5 -90.5t-61.5 -268.5z" />
<glyph unicode="'" horiz-adv-x="587" d="M123 1434v73l254 103h88l-70 -740l-108 -2z" />
<glyph unicode="(" horiz-adv-x="1056" d="M139 727q0 725 754 1225l55 -90q-246 -179 -379 -427.5t-133 -609.5q0 -369 126 -679t384 -486l-61 -90q-225 84 -393 249t-260.5 397.5t-92.5 510.5z" />
<glyph unicode=")" horiz-adv-x="1056" d="M109 -340q246 179 379 427.5t133 609.5q0 369 -126 679t-384 486l61 90q225 -84 393 -249t260.5 -397.5t92.5 -510.5q0 -725 -754 -1225z" />
<glyph unicode="*" horiz-adv-x="1429" d="M61 1030l144 248h74l12 -180h381v-41l-336 -152zM285 735l37 64l161 -80l191 330l35 -19l-35 -366l-246 -177zM348 1618h287l39 -64l-152 -100l191 -330l-35 -20l-299 213zM717 1026l35 21l299 -213l30 -302h-286l-39 64l151 100zM721 1122l37 367l243 176l144 -250 l-37 -63l-162 82l-190 -332zM758 1053v41l336 151l274 -123l-143 -250h-74l-12 181h-381z" />
<glyph unicode="+" horiz-adv-x="1087" d="M82 586v94h416v416h94v-416h414v-94h-416v-414h-94v414h-414z" />
<glyph unicode="," horiz-adv-x="757" d="M98 -471q102 123 147.5 211t55.5 194l-166 99v73l367 175l88 -322l-404 -500z" />
<glyph unicode="-" horiz-adv-x="1050" d="M156 545v71l82 105h657v-72l-82 -104h-657z" />
<glyph unicode="." horiz-adv-x="690" d="M170 145q0 49 30.5 93.5t78 70t90.5 25.5q67 0 110 -48t43 -118q0 -49 -30.5 -93t-77.5 -69.5t-92 -25.5q-66 0 -109 48t-43 117z" />
<glyph unicode="/" horiz-adv-x="727" d="M37 -264l538 2197l117 -24l-542 -2198z" />
<glyph unicode="0" horiz-adv-x="1550" d="M139 551q0 170 110.5 318.5t277.5 236.5t321 88q162 0 291 -76t200.5 -206t71.5 -289q0 -170 -110.5 -318.5t-277.5 -236.5t-321 -88q-162 0 -289.5 75.5t-200.5 205.5t-73 290zM426 649q0 -133 44 -243.5t133 -177t218 -66.5q303 0 303 364q0 133 -44 244t-133 176.5 t-218 65.5q-303 -1 -303 -363z" />
<glyph unicode="1" horiz-adv-x="1017" d="M154 1081l47 93h639v-74l-199 -156v-780l223 -72l-47 -92h-641v74l199 155v781z" />
<glyph unicode="2" horiz-adv-x="1234" d="M90 -2v74q260 213 395.5 341t188.5 207.5t53 149.5q0 102 -69.5 166.5t-182.5 64.5q-131 0 -323 -147l-62 86l293 231q68 20 149 21q145 0 256 -38t170.5 -107.5t59.5 -159.5t-124 -244t-392 -375h491l66 168l71 -24v-451l-122 37h-918z" />
<glyph unicode="3" horiz-adv-x="1146" d="M51 944l295 234q45 16 90 16q133 0 246 -41t179.5 -111.5t66.5 -152.5q-6 -78 -60.5 -159t-179.5 -200h2q180 -102 252 -182t72 -176q0 -217 -216 -387t-692 -326l-32 109q266 96 403 170t192.5 150.5t55.5 187.5q0 57 -24.5 102t-83 92t-166.5 113v61 q113 127 150.5 192.5t37.5 135.5q0 102 -60.5 168t-154.5 66q-117 0 -311 -148z" />
<glyph unicode="4" horiz-adv-x="1439" d="M61 121v74l758 917l266 121v-957h314l-72 -155h-242v-438l-266 -121v559h-758zM317 276h502v621z" />
<glyph unicode="5" horiz-adv-x="1282" d="M94 -432q281 100 420 175t188.5 148.5t49.5 180.5q0 82 -46.5 144.5t-176.5 137t-388 183.5l133 637h598l68 167l72 -22v-451l-123 37h-576l-30 -155v-2q305 -127 467.5 -223.5t226 -178.5t63.5 -178q0 -180 -131 -314.5t-323.5 -222.5t-456.5 -172z" />
<glyph unicode="6" horiz-adv-x="1511" d="M180 614q0 225 83 417t297 385.5t599 391.5l53 -94q-395 -260 -570 -505.5t-175 -501.5q0 -147 42 -271.5t126 -199t207 -74.5q242 0 241 321q0 186 -115.5 315.5t-295.5 190.5l67 103q176 0 321.5 -67t228.5 -183.5t83 -257.5q0 -145 -95 -286.5t-246.5 -229.5 t-309.5 -88q-156 0 -280 82.5t-192.5 228t-68.5 323.5z" />
<glyph unicode="7" horiz-adv-x="1347" d="M141 776v434l123 -36h973v-89l-827 -1626l-109 49l719 1397h-744l-63 -151z" />
<glyph unicode="8" horiz-adv-x="1513" d="M141 467q0 102 90.5 206.5t298.5 258.5q-133 90 -207.5 184t-74.5 213q0 98 88 211t215 190.5t233 77.5q137 0 245 -50t168 -135t60 -185q-8 -90 -70.5 -187.5t-230.5 -255.5h2q134 -80 219 -143.5t142 -146t57 -185.5q0 -111 -94 -238.5t-229 -214.5t-246 -87 q-190 0 -343 64.5t-238 176t-85 246.5zM428 567q0 -113 54.5 -212t144.5 -159.5t190 -60.5q82 0 144.5 41t96.5 108.5t34 143.5q0 78 -52.5 145.5t-129 122t-208.5 131.5q-23 14 -42 25.5t-35 21.5q-121 -102 -159 -166.5t-38 -140.5zM532 1425q0 -106 85 -191t245 -181 q84 109 107.5 164t23.5 124q0 133 -71.5 223.5t-180.5 90.5v2q-90 0 -149.5 -65.5t-59.5 -166.5z" />
<glyph unicode="9" horiz-adv-x="1511" d="M139 590q0 145 95.5 286.5t247 229.5t306.5 88q156 0 280 -77t193.5 -210t69.5 -295q0 -219 -83 -404t-297 -370.5t-597 -378.5l-53 95q395 254 568 487t173 479q0 133 -40.5 245t-125.5 179.5t-206 67.5t-182.5 -82t-61.5 -242q0 -186 110.5 -315t284.5 -189l-67 -102 q-172 0 -312.5 66.5t-221.5 183.5t-81 258z" />
<glyph unicode=":" horiz-adv-x="690" d="M170 145q0 49 30.5 93.5t78 70t90.5 25.5q67 0 110 -48t43 -118q0 -49 -30.5 -93t-77.5 -69.5t-92 -25.5q-66 0 -109 48t-43 117zM170 921q0 49 30.5 93.5t78 70t90.5 25.5q67 0 110 -48t43 -118q0 -49 -30.5 -93t-77.5 -69.5t-92 -25.5q-66 0 -109 48t-43 117z" />
<glyph unicode=";" horiz-adv-x="757" d="M98 -471q102 123 147.5 211t55.5 194l-166 99v73l367 175l88 -322l-404 -500zM170 921q0 49 30.5 93.5t78 70t90.5 25.5q67 0 110 -48t43 -118q0 -49 -30.5 -93t-77.5 -69.5t-92 -25.5q-66 0 -109 48t-43 117z" />
<glyph unicode="&#x3c;" horiz-adv-x="970" d="M61 635l748 504l70 -68l-529 -356l559 -422l-233 -121z" />
<glyph unicode="=" horiz-adv-x="1087" d="M82 402v94h924v-94h-924zM82 770v94h924v-94h-924z" />
<glyph unicode="&#x3e;" horiz-adv-x="970" d="M61 977l234 121l614 -463l-747 -506l-70 70l529 356z" />
<glyph unicode="?" horiz-adv-x="1005" d="M18 1468l213 166q82 16 199 17q80 0 184.5 -52.5t179 -132.5t74.5 -157q0 -72 -56 -131.5t-165 -139.5q-74 -55 -109.5 -90t-35.5 -65q0 -74 92 -148v-73l-225 -117q-57 51 -90 104t-33 115q0 70 54 128t157 134q78 57 114.5 94t36.5 72q0 49 -46 112.5t-116.5 108.5 t-140.5 45q-86 0 -225 -76zM246 145q0 49 30.5 93.5t77.5 70t92 25.5q68 0 110 -48t42 -118q0 -49 -30.5 -93t-78 -69.5t-90.5 -25.5q-66 0 -109.5 48t-43.5 117z" />
<glyph unicode="@" horiz-adv-x="2777" d="M139 504q0 332 215 600t539 419.5t629 151.5q327 0 581 -119.5t394.5 -332.5t140.5 -484q0 -190 -111.5 -352t-286 -264.5t-352.5 -122.5h-266v147l-190 -151q-66 -16 -158 -16q-135 0 -242.5 70.5t-168 191t-60.5 266.5q0 160 96 299t240.5 222t279.5 83q160 0 277 -117 l104 133h88v-1003q229 53 345 186t116 332q0 233 -102.5 426t-315.5 308.5t-528 115.5q-281 0 -504 -113.5t-348 -317.5t-125 -460q0 -262 96 -485t296 -375t497 -191l-47 -92q-367 -2 -620 128t-381 365.5t-128 551.5zM1090 606q0 -184 76.5 -308t217.5 -124v-2 q60 0 115 17.5t121 62.5v450q-12 98 -91 161t-218 63q-111 0 -166 -81t-55 -239z" />
<glyph unicode="A" d="M-6 0v74l199 153l569 1317l242 105l593 -1438l205 -119l-45 -92h-651v74l201 145l-152 365h-680l-156 -363l353 -129l-47 -92h-631zM522 690h590l-289 699z" />
<glyph unicode="B" horiz-adv-x="1617" d="M94 1518l47 92h246q186 0 367 12q139 8 204 8q139 0 246 -53t165 -144.5t58 -203.5q0 -102 -68.5 -196.5t-180.5 -162.5v-2q153 -47 242 -154.5t89 -244.5q0 -129 -105.5 -242.5t-262 -181.5t-297.5 -68q-102 0 -201 11q-164 10 -254 10h-270v74l192 151v1227zM590 190 q131 -51 311 -51v-2q141 0 224 72t83 192q0 156 -90 252.5t-266 102.5q-14 -2 -39 -2h-223v-564zM590 883h280q121 0 188.5 63.5t67.5 181.5q0 158 -82.5 258.5t-244.5 100.5q-113 0 -209 -64v-540z" />
<glyph unicode="C" horiz-adv-x="1685" d="M139 768q0 240 141.5 443.5t350.5 321.5t399 118q111 0 256.5 -31t212.5 -66v-405h-102q-182 317 -486 317q-131 0 -238.5 -77.5t-170 -215t-62.5 -307.5q0 -197 60.5 -358.5t185.5 -258.5t309 -97q178 0 506 249l66 -104l-377 -293q-78 -27 -151.5 -36t-157.5 -9 q-217 0 -386 104.5t-262.5 288t-93.5 416.5z" />
<glyph unicode="D" horiz-adv-x="1832" d="M94 1518l47 92h248q193 0 377 12q139 8 203 8v-2q215 0 379.5 -101.5t256 -281.5t91.5 -407q0 -233 -138.5 -431t-343 -314t-391.5 -116q-98 0 -190 11q-160 10 -242 10h-272v74l192 151v1225zM590 186q125 -49 291 -49v2q143 0 259.5 78t184.5 216t68 310 q0 207 -63.5 376t-194.5 269.5t-326 100.5q-121 0 -219 -70v-1233z" />
<glyph unicode="E" horiz-adv-x="1669" d="M94 1518l47 92h1198l119 37v-482l-72 -24l-245 364h-551v-631h305l149 256h74v-616l-92 -47l-129 303h-307v-666h540l277 408l72 -27v-524l-119 37h-1241v74l192 151v1223z" />
<glyph unicode="F" horiz-adv-x="1587" d="M94 1518l47 92h1198l119 35v-482l-72 -24l-247 364h-549v-631h305l149 256h74v-569l-92 -45l-125 254h-311v-592l325 -86l-47 -92h-749v74l192 151v1223z" />
<glyph unicode="G" horiz-adv-x="1875" d="M141 768q0 240 147.5 443.5t368 321.5t418.5 118q119 0 277.5 -31t232.5 -66v-415h-100q-202 327 -527 327h-2q-143 0 -260.5 -77.5t-185.5 -215t-68 -307.5q0 -197 65.5 -360.5t200 -262t332.5 -98.5q84 0 141.5 5.5t135.5 31.5v471l-320 86l47 92h746v-73l-193 -154 v-272l56 -96l-377 -232q-90 -27 -173 -36t-177 -9q-231 0 -409.5 104.5t-277 288t-98.5 416.5z" />
<glyph unicode="H" horiz-adv-x="1966" d="M94 1518l47 92h643v-74l-194 -154v-528h786v594l-217 70l47 92h643v-74l-194 -154v-1218l217 -70l-45 -92h-643v74l192 151v525h-786v-586l217 -72l-45 -92h-643v74l192 151v1221z" />
<glyph unicode="I" horiz-adv-x="901" d="M94 1518l47 92h643v-74l-194 -154v-1218l217 -70l-45 -92h-643v74l192 151v1221z" />
<glyph unicode="J" horiz-adv-x="874" d="M49 1518l45 92h684v-74l-194 -152v-1181q0 -82 5 -150.5t13 -93.5l-407 -500l-89 70q117 145 158 248.5t41 253.5v1411z" />
<glyph unicode="K" horiz-adv-x="1779" d="M94 1518l47 92h643v-74l-194 -154v-1216l217 -72l-45 -92h-643v74l192 151v1221zM700 811l621 543l-238 168l47 92h564v-74l-723 -633l549 -698l235 -113l-47 -92h-383z" />
<glyph unicode="L" horiz-adv-x="1611" d="M94 1518l47 92h643v-74l-194 -152v-1280h514l305 449l72 -27v-563l-119 37h-1243v74l192 151v1223z" />
<glyph unicode="M" horiz-adv-x="2230" d="M94 1518l47 92h471l502 -1256l502 1256h495v-74l-194 -152v-1222l217 -72l-45 -92h-643v74l192 151v1102l-538 -1327h-127l-537 1341v-1144l217 -105l-45 -92h-489v74l192 151v1184z" />
<glyph unicode="N" d="M94 1518l47 92h320l946 -1174v975l-229 107l47 92h501v-74l-194 -154v-1382h-125l-971 1202v-1003l230 -107l-45 -92h-502v74l192 151v1176z" />
<glyph unicode="O" horiz-adv-x="1914" d="M139 768q0 240 141.5 443.5t350.5 321.5t399 118q221 0 391 -104.5t263.5 -289t93.5 -417.5q0 -240 -141.5 -442.5t-351.5 -320.5t-400 -118q-219 0 -389 103.5t-263.5 288t-93.5 417.5zM440 866q0 -199 61.5 -362.5t188.5 -262t314 -98.5q131 0 238.5 78t170 215 t62.5 307q0 201 -61.5 365t-188.5 261t-314 97q-131 0 -238.5 -77.5t-170 -215t-62.5 -307.5z" />
<glyph unicode="P" horiz-adv-x="1601" d="M94 1518l47 92h258q195 0 383 12q143 8 209 8q147 0 261 -61.5t176.5 -167t62.5 -236.5q0 -143 -106.5 -271t-270.5 -200q-147 -64 -289 -64q-16 0 -32 1l-95 65l47 92h156l2 -2q133 0 210 76t77 209q0 182 -91 299t-268 117q-135 0 -241 -76v-1235l325 -86l-47 -92h-749 v74l192 151v1225z" />
<glyph unicode="Q" horiz-adv-x="1914" d="M139 768q0 240 141.5 443.5t350.5 321.5t399 118q221 0 391 -104.5t263.5 -289t93.5 -417.5q0 -236 -138.5 -436.5t-347.5 -321.5q195 -145 359 -257t198 -112h277l47 -102q-334 -152 -459 -152q-74 0 -224.5 154t-356.5 393q-131 -47 -248 -47q-219 0 -389 103.5 t-263.5 288t-93.5 417.5zM440 866q0 -198 61.5 -362t188.5 -262.5t314 -98.5q131 0 238.5 78t170 215t62.5 307q0 201 -61.5 365t-188.5 261t-314 97q-131 0 -238.5 -77.5t-170 -215t-62.5 -307.5z" />
<glyph unicode="R" horiz-adv-x="1673" d="M94 1518l47 92h258q186 0 363 12q131 8 192 8q141 0 252 -55t171.5 -150.5t60.5 -207.5q0 -100 -62.5 -192.5t-165 -162t-217.5 -106.5l140 -45l305 -504l237 -113l-47 -92h-393l-438 723l-97 68l35 69h111q135 0 212 69.5t77 192.5q0 160 -87 263.5t-255 103.5 q-109 0 -203 -68v-1259l217 -72l-45 -92h-643v74l192 151v1225z" />
<glyph unicode="S" horiz-adv-x="1433" d="M143 53v408h101q102 -166 232 -258t267 -92q82 0 143.5 34.5t94.5 91t33 121.5q0 64 -51.5 119t-127 101.5t-204.5 113.5q-154 80 -249 139.5t-161.5 140.5t-66.5 179q0 102 87 220t214 199t233 81q129 0 300 -31t251 -66v-407h-100q-96 166 -213 258t-246 92 q-111 0 -174.5 -68.5t-63.5 -177.5q0 -68 52.5 -126t130 -105t209.5 -115q156 -82 246.5 -139t155 -135t64.5 -174q0 -102 -93 -220t-228 -199t-246 -81q-135 0 -321.5 30.5t-268.5 65.5z" />
<glyph unicode="T" horiz-adv-x="1710" d="M133 1124v523l119 -37h1206l119 37v-523l-72 -24l-276 405h-238v-1343l217 -70l-45 -92h-643v74l193 151v1280h-232l-276 -405z" />
<glyph unicode="U" horiz-adv-x="1839" d="M70 1518l45 92h643v-74l-195 -152v-706q0 -252 125 -393.5t379 -141.5q94 0 185 60.5t150.5 177.5t59.5 276v758l-217 103l45 92h494v-74l-195 -152v-749q0 -215 -104.5 -368.5t-258 -230.5t-298.5 -77q-186 0 -332.5 81t-228.5 223.5t-82 320.5v864z" />
<glyph unicode="V" horiz-adv-x="1806" d="M-2 1518l45 92h651v-74l-198 -145l483 -1170l502 1168l-351 129l46 92h630v-74l-198 -154l-570 -1316l-239 -105l-596 1438z" />
<glyph unicode="W" horiz-adv-x="2482" d="M-2 1520l45 92h582v-74l-148 -111l424 -1177l291 829l-113 328l-188 111l45 92h625v-74l-187 -137l379 -1147l410 1137l-357 129l47 92h629v-72l-182 -143l-485 -1327l-242 -105l-320 938l-288 -833l-242 -105l-530 1444z" />
<glyph unicode="X" horiz-adv-x="1794" d="M37 0v74l227 141l496 545l-506 637l-201 121l47 92h641v-74l-163 -119l376 -471l375 449l-289 121l45 92h631v-74l-215 -133l-469 -549l514 -647l193 -115l-45 -92h-641v74l161 121l-378 473l-410 -455l287 -119l-47 -92h-629z" />
<glyph unicode="Y" horiz-adv-x="1662" d="M-4 1518l41 92h637v-74l-182 -141l401 -647l414 636l-320 134l45 92h631v-74l-174 -111l-526 -811v-452l217 -70l-45 -92h-641v74l192 151v348l-530 852z" />
<glyph unicode="Z" horiz-adv-x="1617" d="M131 0v104l1020 1401h-627l-258 -385l-71 25v502l118 -37h1164v-105l-1020 -1401h643l284 428l72 -26v-543l-119 37h-1206z" />
<glyph unicode="[" horiz-adv-x="890" d="M236 -430v2384h563v-103h-297v-2179h297v-102h-563z" />
<glyph unicode="\" horiz-adv-x="727" d="M35 1909l542 -2198l113 25l-538 2197z" />
<glyph unicode="]" horiz-adv-x="890" d="M92 -327h297v2179h-297v102h563v-2384h-563v103z" />
<glyph unicode="^" horiz-adv-x="1241" d="M100 584v73l392 727l241 105l408 -815v-90h-250l-334 661l-358 -661h-99z" />
<glyph unicode="_" horiz-adv-x="1030" d="M82 -186h866v-95h-866v95z" />
<glyph unicode="`" horiz-adv-x="778" d="M111 1729l41 59l294 39l220 -402l-88 -43z" />
<glyph unicode="a" horiz-adv-x="1290" d="M119 285q0 74 51 146.5t149 137.5h474v111q0 240 -256 240q-129 0 -324 -146l-61 86l292 232q94 20 205 20q195 0 302.5 -94t107.5 -273v-581l184 -72l-45 -92h-405v178l-232 -182q-41 -16 -102 -16q-180 0 -260 89t-80 216zM391 346q0 -72 39 -122t102 -50 q122 0 261 109v192h-357q-25 -31 -35 -61.5t-10 -67.5z" />
<glyph unicode="b" horiz-adv-x="1454" d="M47 1577v74l361 137h88v-903l264 211q66 16 158 16h2q112 0 204.5 -70.5t143.5 -192.5t51 -267q0 -160 -97.5 -298.5t-245 -221t-284.5 -82.5q-84 0 -156.5 35.5t-127.5 101.5l-91 -117h-88v1450zM498 420q0 -109 80.5 -182.5t232.5 -73.5q111 0 166 81t55 238 q0 184 -58.5 310.5t-164.5 126.5q-76 0 -146.5 -28t-164.5 -108v-364z" />
<glyph unicode="c" horiz-adv-x="1265" d="M139 510q0 160 91.5 298t228.5 221t266 83q86 0 200.5 -23.5t166.5 -52.5v-329h-88q-80 102 -182.5 160.5t-213.5 58.5q-90 0 -136 -81t-46 -237q0 -188 81 -313t232 -125q119 0 342 160l62 -86l-312 -246q-88 -18 -210 -18q-137 0 -247 70.5t-172.5 191t-62.5 268.5z " />
<glyph unicode="d" horiz-adv-x="1454" d="M139 510q0 160 97.5 298t245 221t284.5 83q104 0 192 -61v399l-182 127v74l361 137h88v-1628l184 -68l-47 -92h-404v147l-192 -151q-66 -16 -156 -16q-135 0 -242.5 70.5t-168 191t-60.5 268.5zM426 608q0 -186 76 -310t217 -124h2q61 0 116.5 16.5t123.5 61.5v453 q-12 98 -93.5 159.5t-220.5 61.5q-221 0 -221 -318z" />
<glyph unicode="e" horiz-adv-x="1325" d="M139 510q0 160 97.5 298t245 221t284.5 83q198 0 308 -156q108 -153 108 -406v-9h-754q14 -164 94 -267.5t217 -103.5q135 0 385 192l62 -83l-352 -281q-88 -18 -213 -18q-137 0 -247 70.5t-172.5 191t-62.5 268.5zM428 635h461q-18 104 -38 161.5t-67 93.5t-137 36h2 q-211 0 -221 -291z" />
<glyph unicode="f" horiz-adv-x="919" d="M51 936v94h240v176q0 160 87 298t219 221t257 83q59 0 136 -12t112 -27v-325h-88q-51 84 -125 132t-150 48q-90 0 -136 -80t-46 -233v-281h363v-94h-363v-758l291 -86l-45 -92h-694v74l182 145v717h-240z" />
<glyph unicode="g" horiz-adv-x="1310" d="M115 -98h88q113 -141 227.5 -214t259.5 -73q55 0 99.5 20.5t69 52t24.5 60.5q0 53 -62.5 92t-191.5 97q-125 53 -188.5 93t-63.5 91q0 49 66.5 100t158.5 90q-45 -4 -67 -4q-111 0 -204 48t-147.5 129t-54.5 175q0 113 80 218.5t207 170t258 64.5q150 0 260 -82h326 l-5 -96h-233q55 -82 55 -174q0 -133 -108.5 -253t-263.5 -171q-53 -57 -54 -119q0 -33 49.5 -60.5t157.5 -72.5q143 -57 223 -106.5t80 -118.5q0 -63 -80 -159.5t-197.5 -168.5t-226.5 -72q-119 0 -277.5 39t-264.5 78v326zM375 758q0 -121 75.5 -195t198.5 -74q86 0 132 43 t46 130q0 119 -75.5 190.5t-200.5 71.5q-176 0 -176 -166z" />
<glyph unicode="h" horiz-adv-x="1441" d="M68 -2v74l182 145v1233l-182 127v74l360 137h88v-907l270 215q47 16 115 16q143 0 227 -85t84 -230v-637l185 -70l-47 -92h-404v684q0 109 -34.5 153t-120.5 44q-63 0 -127 -22.5t-148 -86.5v-612l184 -68l-47 -92h-585z" />
<glyph unicode="i" horiz-adv-x="804" d="M109 0v74l182 145v574l-182 125v73l360 139h88v-970l184 -68l-47 -92h-585zM217 1556q0 49 30.5 93.5t78 70t90.5 25.5q67 0 110 -48t43 -118q0 -49 -30.5 -93t-77.5 -69.5t-92 -25.5q-66 0 -109 47t-43 118z" />
<glyph unicode="j" horiz-adv-x="778" d="M78 -471q123 145 165 247.5t42 254.5v768l-183 127v73l361 131h88v-927q0 -82 5 -150.5t13 -93.5l-403 -500zM211 1552q0 49 30.5 93.5t78 70t90.5 25.5q67 0 110 -48t43 -118q0 -49 -30.5 -93t-77.5 -69.5t-92 -25.5q-66 0 -109 47t-43 118z" />
<glyph unicode="k" horiz-adv-x="1429" d="M68 -2v74l182 145v1233l-182 127v74l360 137h88v-1630l184 -68l-47 -92h-585zM618 541l379 315l-206 141l45 93h510v-74l-467 -391l331 -463l191 -72l-45 -92h-363z" />
<glyph unicode="l" horiz-adv-x="763" d="M68 -2v74l182 145v1233l-182 127v74l360 137h88v-1628l184 -70l-47 -92h-585z" />
<glyph unicode="m" horiz-adv-x="2134" d="M109 -2v74l182 145v557l-182 109v73l364 174l70 -258l266 224q47 16 113 16q119 0 197.5 -62.5t101.5 -172.5l262 219q47 16 112 16q141 0 224.5 -85t83.5 -230v-637l184 -68l-45 -92h-406v688q0 106 -33.5 149.5t-117.5 43.5q-59 0 -118.5 -22.5t-137.5 -86.5v-612 l182 -68l-45 -92h-403v688q0 106 -34 149.5t-118 43.5q-59 0 -118.5 -22.5t-135.5 -86.5v-614l180 -68l-45 -92h-583z" />
<glyph unicode="n" horiz-adv-x="1482" d="M109 -2v74l182 145v557l-182 109v73l364 174l72 -260l282 226q47 16 115 16q143 0 227 -85t84 -230v-637l185 -70l-47 -92h-404v684q0 109 -34.5 153t-121.5 44q-63 0 -126.5 -22.5t-147.5 -86.5v-612l184 -68l-47 -92h-585z" />
<glyph unicode="o" horiz-adv-x="1384" d="M139 510q0 160 97.5 298t245 221t284.5 83q139 0 248.5 -70.5t171 -191.5t61.5 -268q0 -160 -97 -298.5t-244.5 -221t-284.5 -82.5t-247 70.5t-172.5 191t-62.5 268.5zM426 608q0 -190 81 -317t232 -127q109 0 164 82t55 239q0 188 -80.5 314.5t-230.5 126.5 q-221 -1 -221 -318z" />
<glyph unicode="p" horiz-adv-x="1515" d="M109 -449l182 146v1077l-182 109v73l364 174l72 -262l284 228q66 16 150 16q113 0 205 -70.5t143 -192.5t51 -267q0 -160 -97 -298.5t-244.5 -221t-284.5 -82.5v-3q-105 1 -195 62v-383l291 -86l-45 -92h-694v73zM557 418q0 -109 81 -182.5t232 -73.5q111 0 166.5 81 t55.5 238q0 176 -58.5 296t-165.5 120q-75 0 -146 -27.5t-165 -107.5v-344z" />
<glyph unicode="q" horiz-adv-x="1454" d="M139 508q0 160 96.5 299t241 222t279.5 83q160 0 276 -117l105 133h88v-1488l186 -66l-47 -92h-696v74l290 149v442l-190 -151q-66 -16 -158 -16q-135 0 -242.5 70.5t-168 191t-60.5 266.5zM426 608q0 -184 76 -308t217 -124q61 0 117.5 17.5t124.5 62.5v449 q-12 98 -93.5 160.5t-220.5 62.5q-221 0 -221 -320z" />
<glyph unicode="r" horiz-adv-x="1083" d="M109 -2v74l182 145v557l-182 109v73l364 174l68 -247l207 213q47 16 110 16q76 0 132.5 -39t84.5 -110l-147 -185h-88q-8 55 -28.5 79t-57.5 24q-43 0 -90.5 -22.5t-106.5 -82.5v-600l291 -86l-45 -92h-694z" />
<glyph unicode="s" horiz-adv-x="1144" d="M164 55v324h88q70 -123 166 -191.5t194 -68.5q63 0 102.5 32.5t39.5 77.5q0 54 -61.5 100t-188.5 113q-109 57 -173.5 98.5t-110.5 95.5t-46 120q0 74 63.5 157.5t156.5 141t171 57.5q96 0 223 -23.5t185 -52.5v-321h-88q-63 121 -147.5 189.5t-174.5 68.5q-59 0 -95 -32 t-36 -79q0 -59 63.5 -106t196.5 -119q104 -53 168 -93t109 -92.5t45 -115.5q0 -76 -66.5 -159t-162 -140t-175.5 -57q-102 0 -244.5 24.5t-201.5 50.5z" />
<glyph unicode="t" horiz-adv-x="948" d="M29 936v88l399 459h88v-453h369v-94h-369v-608q0 -162 160 -162q43 0 82 17.5t100 62.5l62 -86l-207 -164q-51 -16 -125 -16q-176 0 -257 89t-81 275v592h-221z" />
<glyph unicode="u" horiz-adv-x="1439" d="M63 881v73l361 172h88v-718q0 -111 35 -155t121 -44q59 0 118.5 22.5t139.5 85.5v457l-183 107v73l361 172h88v-966l184 -68l-47 -92h-403v207l-254 -211q-39 -16 -115 -16q-143 0 -227 85t-84 230v479z" />
<glyph unicode="v" horiz-adv-x="1282" d="M6 885v73l371 172l78 -309l245 -596l281 576l-276 198l45 93h460v-74l-518 -1018h-176l-317 772z" />
<glyph unicode="w" horiz-adv-x="1863" d="M6 883v73l371 172l78 -309l245 -594l195 412l-55 135l-193 113v73l371 172l78 -309l239 -579l240 551l-289 206l45 93l461 -2v-74l-461 -1018h-176l-207 506l-256 -506h-176l-317 772z" />
<glyph unicode="x" horiz-adv-x="1284" d="M27 999l47 93h323l314 -420l211 196l-191 131l47 93h453v-74l-457 -432l291 -377l186 -119l-45 -92h-323l-316 426l-219 -205l189 -131l-45 -92h-455v74l465 440l-291 379z" />
<glyph unicode="y" horiz-adv-x="1282" d="M6 885v73l371 172l78 -309l245 -596l281 576l-276 198l45 93h460v-74l-518 -1018l-438 -541l-88 70q113 125 173 219t85 188.5t27 221.5l-252 614z" />
<glyph unicode="z" horiz-adv-x="1265" d="M141 0v88l678 737h-500l-81 -151l-72 24v430l123 -36h835v-88l-673 -738h489l88 170l72 -22v-451l-123 37h-836z" />
<glyph unicode="{" horiz-adv-x="1015" d="M82 678v168h178q94 0 142.5 84t48.5 244v262q0 160 90 298t227 220l53 -90q-104 -57 -104 -299v-293q0 -158 -88 -294t-221 -216q133 -80 221 -216t88 -294v-293q0 -242 104 -299l-53 -90q-137 82 -227 220t-90 298v262q0 162 -48.5 245t-142.5 83h-178z" />
<glyph unicode="|" horiz-adv-x="763" d="M319 -410v2429h125v-2429h-125z" />
<glyph unicode="}" horiz-adv-x="1015" d="M195 -340q104 57 104 299v293q0 158 88 294t221 216q-133 80 -221 216t-88 294v293q0 242 -104 299l53 90q137 -82 227 -220t90 -298v-262q0 -162 48.5 -245t142.5 -83h178v-168h-178q-94 0 -142.5 -84t-48.5 -244v-262q0 -160 -90 -298t-227 -220z" />
<glyph unicode="~" horiz-adv-x="1275" d="M94 567q53 123 138 210t163 87q68 0 133.5 -29.5t153.5 -84.5q90 -53 142.5 -78t107.5 -25q43 0 89 38t87 99l72 -82q-53 -121 -138.5 -207.5t-162.5 -86.5q-68 0 -133.5 29.5t-153.5 84.5q-86 51 -139.5 77t-108.5 26q-84 0 -178 -138z" />
<glyph unicode="&#xa1;" horiz-adv-x="710" d="M178 -520l111 1102h141l129 -920v-74l-293 -108h-88zM193 922q0 51 30.5 95t77.5 69.5t90 25.5q68 0 111 -48t43 -118q0 -51 -31 -95t-78 -69.5t-90 -25.5q-68 0 -110.5 48t-42.5 118z" />
<glyph unicode="&#xa2;" horiz-adv-x="1265" d="M141 512q0 137 70 261t179.5 210t227.5 117v436h125v-422q88 -2 194.5 -25.5t154.5 -50.5v-329h-88q-115 147 -263 196v-733q119 0 340 158l62 -86l-309 -246q-46 -8 -91 -12v-394h-125v390q-137 0 -245.5 70.5t-170 192.5t-61.5 267zM426 608q0 -143 48 -254.5 t142 -156.5v729h-6q-90 0 -136 -81t-46 -237h-2z" />
<glyph unicode="&#xa3;" horiz-adv-x="1476" d="M18 713l48 94h260v242q0 160 91 298t228 221t266 83q88 0 202 -23.5t165 -52.5v-328h-88q-80 102 -182.5 160.5t-210.5 58.5q-100 0 -152.5 -80.5t-52.5 -238.5v-340h393l-47 -94h-346v-54q0 -96 -48 -202.5t-128 -188.5h770l65 168l72 -22v-451l-123 37h-1112v88 l238 250v375h-308z" />
<glyph unicode="&#xa4;" horiz-adv-x="1837" d="M139 1511l70 72l338 -338q102 76 220 118t222 42q205 0 352 -107l285 285l72 -72l-281 -278q72 -76 110 -176.5t38 -216.5h4q0 -113 -53.5 -218.5t-145.5 -193.5l332 -332l-72 -71l-340 340q-102 -76 -220 -118t-224 -42q-201 0 -350 104l-285 -284l-70 71l279 279 q-74 76 -113 177t-39 216t53.5 221.5t147.5 192.5zM522 866q0 -133 49.5 -241.5t148.5 -173t247 -64.5q96 0 178 47t129 129t47 180q0 209 -113.5 344.5t-333.5 135.5q-96 0 -177 -47.5t-128 -129t-47 -180.5z" />
<glyph unicode="&#xa5;" horiz-adv-x="1662" d="M-4 1518l41 92h637v-74l-182 -141l401 -647l414 636l-320 134l45 92h631v-74l-176 -111l-461 -712h492l-50 -95h-503l-2 -4v-192h555l-50 -94h-505v-166l217 -70l-45 -92h-641v74l192 151v103h-555l49 94h506v151l-29 45h-526l49 95h418l-442 712z" />
<glyph unicode="&#xa6;" horiz-adv-x="763" d="M319 -410v949h125v-949h-125zM319 1071v948h125v-948h-125z" />
<glyph unicode="&#xa7;" horiz-adv-x="1409" d="M125 -70v367h88q37 -94 90 -150.5t105 -56.5q43 0 70.5 44t27.5 112q0 86 -42 175t-126 214q-70 109 -109 180.5t-67.5 157.5t-28.5 178q0 102 88 220t215 199t234 81q131 0 303 -31t254 -66v-366h-88q-29 102 -72 154.5t-88 52.5q-31 0 -48.5 -43t-17.5 -111 q0 -92 42 -180t130 -225q98 -150 149.5 -261.5t51.5 -240.5q0 -100 -93 -218t-228.5 -200t-249.5 -82q-135 0 -321.5 31t-268.5 65zM346 1176q0 -109 50 -216.5t151 -267.5q92 -150 137 -245t45 -185q0 -84 -51 -151.5t-174 -130.5q74 -16 217 -17q68 0 148.5 55.5 t137 136.5t56.5 154q0 104 -48 209t-147 262q-92 143 -140 244.5t-48 200.5q0 84 52 149.5t175 130.5q-74 16 -219 17q-72 0 -151.5 -55.5t-135 -137.5t-55.5 -153z" />
<glyph unicode="&#xa8;" horiz-adv-x="1226" d="M179 1480q0 46 27 88t69.5 66t81.5 24q60 0 98.5 -45t38.5 -111q0 -47 -27.5 -88.5t-69.5 -65.5t-82 -24q-59 0 -97.5 45.5t-38.5 110.5zM683 1480q0 46 27 88t69.5 66t81.5 24q60 0 98.5 -45t38.5 -111q0 -47 -27.5 -88.5t-69.5 -65.5t-82 -24q-59 0 -97.5 45.5 t-38.5 110.5z" />
<glyph unicode="&#xa9;" horiz-adv-x="2084" d="M143 768q0 240 154 443.5t383 321.5t434 118q244 0 432.5 -104.5t292 -289t103.5 -417.5q0 -240 -155 -442.5t-383 -320.5t-435 -118q-244 0 -431.5 104.5t-291 288t-103.5 416.5zM391 866q0 -199 76 -362.5t232.5 -263t387.5 -99.5q170 0 308.5 78t218.5 215t80 309 q0 201 -76 366t-233.5 262t-389.5 97q-170 0 -307 -77.5t-217 -215t-80 -309.5zM594 780q0 131 77 245t192.5 181.5t226.5 67.5q67 0 155 -23.5t127 -52.5v-317h-88q-59 98 -140 155.5t-165 57.5q-51 0 -79 -55.5t-28 -159.5q0 -143 60.5 -239.5t171.5 -96.5q96 0 258 100 l61 -86l-227 -180q-86 -18 -211 -19q-111 0 -201 56.5t-140 154t-50 211.5z" />
<glyph unicode="&#xaa;" horiz-adv-x="1122" d="M117 851q0 55 43.5 109.5t126.5 103.5h403v83q0 180 -218 180q-109 0 -275 -109l-52 64l248 174q80 15 175 15q165 0 256.5 -70.5t91.5 -204.5v-436l157 -54l-39 -69h-344v133l-197 -136q-35 -12 -87 -12q-153 0 -221 67t-68 162zM348 896q0 -54 33.5 -91t86.5 -37 q104 0 222 81v144h-303q-22 -23 -30.5 -46t-8.5 -51z" />
<glyph unicode="&#xab;" horiz-adv-x="1398" d="M98 549l533 495l82 -59l-258 -393l258 -479l-82 -62zM688 549l397 369l80 -60l-127 -264l127 -354l-80 -60z" />
<glyph unicode="&#xac;" horiz-adv-x="1183" d="M82 586v94h924v-506h-95v412h-829z" />
<glyph unicode="&#xad;" horiz-adv-x="1050" d="M156 545v71l82 105h657v-72l-82 -104h-657z" />
<glyph unicode="&#xae;" horiz-adv-x="2074" d="M139 768q0 240 153.5 443.5t382 321.5t435.5 118q244 0 432.5 -104.5t290.5 -289t102 -417.5q0 -240 -153.5 -442.5t-383 -320.5t-433.5 -118q-244 0 -431.5 103.5t-291 288t-103.5 417.5zM387 866q0 -199 76 -362.5t232.5 -263t387.5 -99.5q170 0 307.5 78t217.5 215 t80 309q0 201 -76 366t-232.5 262t-388.5 97q-170 0 -308 -77.5t-217 -215t-79 -309.5zM569 1155l41 90h170q129 0 252 12q20 2 59 4.5t70 2.5q127 0 207 -60.5t80 -152.5q0 -88 -95.5 -168t-226.5 -113l199 -57l84 -181l133 -65l-41 -88h-301l-125 274q-20 45 -45.5 67.5 t-71.5 31.5v-373h-368v70l127 112v541zM958 858q43 -12 95 -12q61 0 95 34.5t34 96.5v-2q0 69 -46 112t-132 43q-25 0 -46 -12v-260z" />
<glyph unicode="&#xaf;" horiz-adv-x="1228" d="M184 1530v102h877v-102h-877z" />
<glyph unicode="&#xb0;" horiz-adv-x="882" d="M78 1450q0 100 60.5 183t154.5 129t190 46q129 0 206 -81.5t77 -198.5q0 -102 -61.5 -185t-156.5 -129.5t-190 -46.5q-129 0 -204.5 82t-75.5 201zM252 1518q0 -84 51 -149.5t133 -65.5q66 0 111 43t45 116q0 80 -51.5 145.5t-137.5 65.5q-63 0 -107 -42t-44 -113z" />
<glyph unicode="&#xb1;" horiz-adv-x="1087" d="M82 -63h924v-94h-924v94zM82 586v94h416v416h94v-416h414v-94h-416v-414h-94v414h-414z" />
<glyph unicode="&#xb2;" horiz-adv-x="1026" d="M88 850v74q205 141 312.5 227t150.5 140.5t43 99.5q0 59 -55.5 99t-141.5 40q-106 0 -260 -103l-49 82l234 162q51 14 120 15q176 0 282.5 -58.5t106.5 -154.5q0 -61 -98 -170t-309 -265h371l55 123l70 -22v-316l-113 27h-719z" />
<glyph unicode="&#xb3;" horiz-adv-x="954" d="M51 1507l236 164q33 12 71 12q106 0 196.5 -28.5t144 -77.5t53.5 -107q-4 -53 -47 -110t-144 -139v-2q146 -72 203 -127.5t57 -122.5q0 -154 -173 -272.5t-554 -227.5l-26 98q213 63 322.5 111.5t154.5 99.5t45 123q0 53 -45 93t-174 102v63q88 86 118.5 134t30.5 96 q0 63 -48 103t-122 40q-94 0 -250 -102z" />
<glyph unicode="&#xb4;" horiz-adv-x="778" d="M195 1425l219 402l295 -39l41 -59l-465 -347z" />
<glyph unicode="&#xb5;" horiz-adv-x="1427" d="M131 985l297 141h88v-718q0 -111 34 -155t120 -44q59 0 119.5 22.5t138.5 85.5v418q0 55 -33 123t-86 127l297 141h88v-755q0 -56 33 -123.5t86 -126.5l-297 -141h-88v227l-252 -211q-43 -16 -115 -16q-31 0 -45 2v-111q-2 -53 32 -121.5t87 -128.5l-297 -141h-88v1255 q2 53 -32 122t-87 128z" />
<glyph unicode="&#xb6;" horiz-adv-x="1710" d="M92 1096q0 141 88 265t220 196.5t253 72.5v-2q82 0 164 -10q137 -10 209 -10h59v-2130h-372v73l245 197v901q-135 -2 -274 -10q-119 -8 -176 -8q-123 0 -217 61.5t-146.5 167t-52.5 236.5zM1272 -522v2130h321v-74l-194 -154v-1738l217 -72l-47 -92h-297z" />
<glyph unicode="&#xb7;" horiz-adv-x="690" d="M170 537q0 49 30.5 93t78 69.5t90.5 25.5q67 0 110 -47t43 -117q0 -51 -30.5 -95t-77.5 -69.5t-92 -25.5q-66 0 -109 48t-43 118z" />
<glyph unicode="&#xb8;" horiz-adv-x="1228" d="M449 -467q180 57 180 170q0 45 -30 80t-101 80l43 35q246 207 293 249l73 -53q-37 -33 -180 -151l-49 -41q100 -76 137 -127t37 -109q0 -94 -98.5 -145t-304.5 -62v74z" />
<glyph unicode="&#xb9;" horiz-adv-x="874" d="M154 1587l36 84h512v-72l-157 -108v-506l176 -49l-37 -86h-512v74l160 108v504z" />
<glyph unicode="&#xba;" horiz-adv-x="1218" d="M135 1020q0 120 83 223t208.5 165.5t241.5 62.5q118 0 211 -53t145.5 -143.5t52.5 -200.5q0 -120 -82.5 -224t-208 -166t-241.5 -62q-117 0 -210.5 53t-146.5 143t-53 202zM379 1093q0 -143 69 -238t197 -95q93 0 139.5 61.5t46.5 179.5q0 141 -68.5 236t-195.5 95 q-188 -1 -188 -239z" />
<glyph unicode="&#xbb;" horiz-adv-x="1398" d="M231 238l127 264l-127 354l82 59l398 -368l-398 -369zM686 111l258 393l-258 481l82 59l535 -497l-535 -496z" />
<glyph unicode="&#xbc;" horiz-adv-x="2144" d="M154 1587l36 84h512v-72l-157 -108v-506l176 -49l-37 -86h-512v74l160 108v504zM430 -352l1271 2394l88 -41l-1273 -2396zM1034 -27l607 643l213 84v-669h249l-57 -129h-192v-285l-213 -86v371h-607v71zM1260 31h381v413z" />
<glyph unicode="&#xbd;" horiz-adv-x="2328" d="M154 1587l36 84h512v-72l-157 -108v-506l176 -49l-37 -86h-512v74l160 108v504zM430 -352l1271 2394l88 -41l-1273 -2396zM1391 -88q205 141 312.5 227t150.5 140.5t43 99.5q0 59 -55.5 99t-141.5 40q-106 0 -260 -102l-49 82l234 161q49 14 120 15q176 0 282.5 -58.5 t106.5 -154.5q0 -61 -98 -170t-309 -264h371l55 123l70 -23v-315l-113 26h-719v74z" />
<glyph unicode="&#xbe;" horiz-adv-x="2224" d="M51 1507l236 164q33 12 71 12q106 0 196.5 -28.5t144 -77.5t53.5 -107q-4 -53 -47 -110t-144 -139v-2q146 -72 203 -127.5t57 -122.5q0 -154 -173 -272.5t-554 -227.5l-26 98q213 63 322.5 111.5t154.5 99.5t45 123q0 53 -45 93t-174 102v63q88 86 118.5 134t30.5 96 q0 63 -48 103t-122 40q-94 0 -250 -102zM510 -352l1271 2394l88 -41l-1273 -2396zM1114 -27l607 643l213 84v-669h249l-57 -129h-192v-285l-213 -86v371h-607v71zM1340 31h381v413z" />
<glyph unicode="&#xbf;" horiz-adv-x="841" d="M-6 -199q0 72 56 131.5t165 139.5q74 55 109.5 90t35.5 65q0 74 -92 148v74l226 116q124 -106 124 -217q0 -70 -56 -130t-156 -134q-78 -59 -114 -95t-36 -71q0 -49 45 -112.5t115.5 -108.5t140.5 -45q86 0 227 76l62 -86l-213 -166q-84 -16 -199 -17q-80 0 -185.5 52.5 t-180 132.5t-74.5 157zM264 922q0 51 32 95t79 69.5t90 25.5q67 0 110 -48t43 -118q0 -51 -31.5 -95t-78.5 -69.5t-90 -25.5q-66 0 -110 48t-44 118z" />
<glyph unicode="&#xc0;" d="M-6 0v74l199 153l569 1317l242 105l593 -1438l205 -119l-45 -92h-651v74l201 145l-152 365h-680l-156 -363l353 -129l-47 -92h-631zM480 2249l41 59l294 39l220 -402l-88 -43zM522 690h590l-289 699z" />
<glyph unicode="&#xc1;" d="M-6 0v74l199 153l569 1317l242 105l593 -1438l205 -119l-45 -92h-651v74l201 145l-152 365h-680l-156 -363l353 -129l-47 -92h-631zM522 690h590l-289 699zM766 1945l219 402l295 -39l41 -59l-465 -347z" />
<glyph unicode="&#xc2;" d="M-6 0v74l199 153l569 1317l242 105l593 -1438l205 -119l-45 -92h-651v74l201 145l-152 365h-680l-156 -363l353 -129l-47 -92h-631zM430 1976l460 354l480 -358l-41 -59l-277 -39l-225 268l-332 -252zM522 690h590l-289 699z" />
<glyph unicode="&#xc3;" d="M-6 0v74l199 153l569 1317l242 105l593 -1438l205 -119l-45 -92h-651v74l201 145l-152 365h-680l-156 -363l353 -129l-47 -92h-631zM451 2068l352 269q155 -158 280 -158q63 0 121 41l76 55l66 -86l-355 -268q-156 158 -278 158q-68 0 -125 -43l-72 -54zM522 690h590 l-289 699z" />
<glyph unicode="&#xc4;" d="M-6 0v74l199 153l569 1317l242 105l593 -1438l205 -119l-45 -92h-651v74l201 145l-152 365h-680l-156 -363l353 -129l-47 -92h-631zM414 2081q0 47 27.5 89t70.5 66.5t82 24.5q61 0 99 -45t38 -113q0 -47 -27.5 -88t-69.5 -65.5t-81 -24.5q-59 0 -99 45t-40 111zM522 690 h590l-289 699zM1065 2081q0 47 27.5 89t70.5 66.5t82 24.5q61 0 99 -45t38 -113q0 -47 -27.5 -88t-69.5 -65.5t-81 -24.5q-59 0 -99 45t-40 111z" />
<glyph unicode="&#xc5;" d="M-6 0v74l199 153l569 1317l242 105l593 -1438l205 -119l-45 -92h-651v74l201 145l-152 365h-680l-156 -363l353 -129l-47 -92h-631zM522 690h590l-289 699zM590 2056q0 72 58 135.5t147.5 101t175.5 37.5q100 0 167.5 -58t67.5 -144q0 -72 -58.5 -135.5t-147.5 -101.5 t-175 -38q-100 0 -167.5 59.5t-67.5 143.5zM749 2152q0 -88 51.5 -144t143.5 -56q49 0 76.5 21.5t27.5 59.5q0 86 -51 143.5t-145 57.5q-49 0 -76 -21.5t-27 -60.5z" />
<glyph unicode="&#xc6;" horiz-adv-x="2260" d="M-4 -2v74l166 129l672 1229l-263 88l45 92h1313l119 37v-482l-72 -24l-245 364h-486v-631h240l151 256h74v-616l-92 -47l-131 303h-242v-666h477l275 408l71 -27l3 -524l-119 37h-1178v74l193 151v545h-357l-301 -549l299 -129l-45 -92h-567zM668 872h299v545z" />
<glyph unicode="&#xc7;" horiz-adv-x="1685" d="M139 768q0 240 141.5 443.5t350.5 321.5t399 118q111 0 256.5 -31t212.5 -66v-405h-102q-182 317 -486 317q-131 0 -238.5 -77.5t-170 -215t-62.5 -307.5q0 -197 60.5 -358.5t185.5 -258.5t309 -97q178 0 506 249l66 -104l-377 -293v2q-84 -29 -166 -39l-80 -65 q100 -76 137 -127t37 -109q0 -94 -98 -145t-305 -62v74q180 57 180 170q0 45 -29.5 80t-101.5 80l117 96q-217 0 -386 104.5t-262.5 288t-93.5 416.5z" />
<glyph unicode="&#xc8;" horiz-adv-x="1669" d="M94 1518l47 92h1198l119 37v-482l-72 -24l-245 364h-551v-631h305l149 256h74v-616l-92 -47l-129 303h-307v-666h540l277 408l72 -27v-524l-119 37h-1241v74l192 151v1223zM420 2249l41 59l294 39l220 -402l-88 -43z" />
<glyph unicode="&#xc9;" horiz-adv-x="1669" d="M94 1518l47 92h1198l119 37v-482l-72 -24l-245 364h-551v-631h305l149 256h74v-616l-92 -47l-129 303h-307v-666h540l277 408l72 -27v-524l-119 37h-1241v74l192 151v1223zM707 1945l219 402l295 -39l41 -59l-465 -347z" />
<glyph unicode="&#xca;" horiz-adv-x="1669" d="M94 1518l47 92h1198l119 37v-482l-72 -24l-245 364h-551v-631h305l149 256h74v-616l-92 -47l-129 303h-307v-666h540l277 408l72 -27v-524l-119 37h-1241v74l192 151v1223zM371 1976l460 354l480 -358l-41 -59l-277 -39l-225 268l-332 -252z" />
<glyph unicode="&#xcb;" horiz-adv-x="1669" d="M94 1518l47 92h1198l119 37v-482l-72 -24l-245 364h-551v-631h305l149 256h74v-616l-92 -47l-129 303h-307v-666h540l277 408l72 -27v-524l-119 37h-1241v74l192 151v1223zM352 2081q0 47 28 89t71 66.5t81 24.5q61 0 99.5 -45t38.5 -113q0 -47 -28 -88t-70 -65.5 t-80 -24.5q-60 0 -100 45t-40 111zM1004 2081q0 47 27.5 89t70.5 66.5t82 24.5q61 0 99 -45t38 -113q0 -47 -27.5 -88t-69.5 -65.5t-81 -24.5q-60 0 -99.5 45t-39.5 111z" />
<glyph unicode="&#xcc;" horiz-adv-x="901" d="M31 2249l41 59l294 39l220 -402l-88 -43zM94 1518l47 92h643v-74l-194 -154v-1218l217 -70l-45 -92h-643v74l192 151v1221z" />
<glyph unicode="&#xcd;" horiz-adv-x="901" d="M94 1518l47 92h643v-74l-194 -154v-1218l217 -70l-45 -92h-643v74l192 151v1221zM318 1945l219 402l295 -39l41 -59l-465 -347z" />
<glyph unicode="&#xce;" horiz-adv-x="901" d="M-18 1976l460 354l480 -358l-41 -59l-277 -39l-225 268l-332 -252zM94 1518l47 92h643v-74l-194 -154v-1218l217 -70l-45 -92h-643v74l192 151v1221z" />
<glyph unicode="&#xcf;" horiz-adv-x="901" d="M26 1971q0 46 27 88t69.5 66t81.5 24q60 0 98.5 -45t38.5 -111q0 -47 -27.5 -88.5t-69.5 -65.5t-82 -24q-59 0 -97.5 45.5t-38.5 110.5zM94 1518l47 92h643v-74l-194 -154v-1218l217 -70l-45 -92h-643v74l192 151v1221zM529 1971q0 46 27 88t69.5 66t81.5 24 q60 0 98.5 -45t38.5 -111q0 -47 -27.5 -88.5t-69.5 -65.5t-82 -24q-59 0 -97.5 45.5t-38.5 110.5z" />
<glyph unicode="&#xd0;" horiz-adv-x="1832" d="M94 1518l47 92h248q193 0 377 12q139 8 203 8v-2q215 0 379.5 -101.5t256 -281.5t91.5 -407q0 -233 -138.5 -431t-343 -314t-391.5 -116q-98 0 -190 11q-160 10 -242 10h-272v74l192 151v1225zM590 186q125 -49 291 -49v2q143 0 259.5 78t184.5 216t68 310 q0 207 -63.5 376t-194.5 269.5t-326 100.5q-121 0 -219 -70v-1233z" />
<glyph unicode="&#xd1;" d="M94 1518l47 92h320l946 -1174v975l-229 107l47 92h501v-74l-194 -154v-1382h-125l-971 1202v-1003l230 -107l-45 -92h-502v74l192 151v1176zM453 2068l352 269q155 -158 280 -158q63 0 121 41l76 55l66 -86l-355 -268q-156 158 -278 158q-68 0 -125 -43l-72 -54z" />
<glyph unicode="&#xd2;" horiz-adv-x="1914" d="M139 768q0 240 141.5 443.5t350.5 321.5t399 118q221 0 391 -104.5t263.5 -289t93.5 -417.5q0 -240 -141.5 -442.5t-351.5 -320.5t-400 -118q-219 0 -389 103.5t-263.5 288t-93.5 417.5zM440 866q0 -199 61.5 -362.5t188.5 -262t314 -98.5q131 0 238.5 78t170 215 t62.5 307q0 201 -61.5 365t-188.5 261t-314 97q-131 0 -238.5 -77.5t-170 -215t-62.5 -307.5zM539 2249l41 59l294 39l220 -402l-88 -43z" />
<glyph unicode="&#xd3;" horiz-adv-x="1914" d="M139 768q0 240 141.5 443.5t350.5 321.5t399 118q221 0 391 -104.5t263.5 -289t93.5 -417.5q0 -240 -141.5 -442.5t-351.5 -320.5t-400 -118q-219 0 -389 103.5t-263.5 288t-93.5 417.5zM440 866q0 -199 61.5 -362.5t188.5 -262t314 -98.5q131 0 238.5 78t170 215 t62.5 307q0 201 -61.5 365t-188.5 261t-314 97q-131 0 -238.5 -77.5t-170 -215t-62.5 -307.5zM826 1945l219 402l295 -39l41 -59l-465 -347z" />
<glyph unicode="&#xd4;" horiz-adv-x="1914" d="M139 768q0 240 141.5 443.5t350.5 321.5t399 118q221 0 391 -104.5t263.5 -289t93.5 -417.5q0 -240 -141.5 -442.5t-351.5 -320.5t-400 -118q-219 0 -389 103.5t-263.5 288t-93.5 417.5zM440 866q0 -199 61.5 -362.5t188.5 -262t314 -98.5q131 0 238.5 78t170 215 t62.5 307q0 201 -61.5 365t-188.5 261t-314 97q-131 0 -238.5 -77.5t-170 -215t-62.5 -307.5zM490 1976l460 354l480 -358l-41 -59l-277 -39l-225 268l-332 -252z" />
<glyph unicode="&#xd5;" horiz-adv-x="1914" d="M139 768q0 240 141.5 443.5t350.5 321.5t399 118q221 0 391 -104.5t263.5 -289t93.5 -417.5q0 -240 -141.5 -442.5t-351.5 -320.5t-400 -118q-219 0 -389 103.5t-263.5 288t-93.5 417.5zM440 866q0 -199 61.5 -362.5t188.5 -262t314 -98.5q131 0 238.5 78t170 215 t62.5 307q0 201 -61.5 365t-188.5 261t-314 97q-131 0 -238.5 -77.5t-170 -215t-62.5 -307.5zM510 2068l352 269q155 -158 280 -158q63 0 121 41l76 55l66 -86l-355 -268q-156 158 -278 158q-68 0 -125 -43l-72 -54z" />
<glyph unicode="&#xd6;" horiz-adv-x="1914" d="M139 768q0 240 141.5 443.5t350.5 321.5t399 118q221 0 391 -104.5t263.5 -289t93.5 -417.5q0 -240 -141.5 -442.5t-351.5 -320.5t-400 -118q-219 0 -389 103.5t-263.5 288t-93.5 417.5zM440 866q0 -199 61.5 -362.5t188.5 -262t314 -98.5q131 0 238.5 78t170 215 t62.5 307q0 201 -61.5 365t-188.5 261t-314 97q-131 0 -238.5 -77.5t-170 -215t-62.5 -307.5zM473 2081q0 47 27.5 89t70.5 66.5t82 24.5q62 0 100 -45t38 -113q0 -47 -28 -88t-70 -65.5t-81 -24.5q-59 0 -99 45t-40 111zM1124 2081q0 47 28 89t71 66.5t82 24.5q61 0 99 -45 t38 -113q0 -47 -28 -88t-69.5 -65.5t-80.5 -24.5q-59 0 -99.5 45t-40.5 111z" />
<glyph unicode="&#xd7;" horiz-adv-x="1050" d="M80 256l377 377l-377 377l67 67l377 -377l377 377l68 -67l-377 -377l377 -377l-68 -68l-377 377l-377 -377z" />
<glyph unicode="&#xd8;" horiz-adv-x="1914" d="M137 766q0 240 141.5 443.5t350.5 321.5t399 118q174 0 322 -68l194 336l86 -49l-192 -334l-4 2q161 -104 250.5 -285.5t89.5 -410.5q0 -240 -141.5 -442.5t-351.5 -320.5t-400 -118q-170 0 -318 68l-192 -334l-86 49l192 332q-162 104 -251 284.5t-89 407.5zM436 864 q0 -166 44 -310t130 -243l611 1057q-131 98 -314 98q-131 0 -238.5 -77.5t-170 -215t-62.5 -307.5v-2zM686 240q131 -98 313 -99q131 0 239 78t170 215t62 307q0 168 -44 312.5t-130 242.5z" />
<glyph unicode="&#xd9;" horiz-adv-x="1839" d="M70 1518l45 92h643v-74l-195 -152v-706q0 -252 125 -393.5t379 -141.5q94 0 185 60.5t150.5 177.5t59.5 276v758l-217 103l45 92h494v-74l-195 -152v-749q0 -215 -104.5 -368.5t-258 -230.5t-298.5 -77q-186 0 -332.5 81t-228.5 223.5t-82 320.5v864zM527 2249l41 59 l294 39l220 -402l-88 -43z" />
<glyph unicode="&#xda;" horiz-adv-x="1839" d="M70 1518l45 92h643v-74l-195 -152v-706q0 -252 125 -393.5t379 -141.5q94 0 185 60.5t150.5 177.5t59.5 276v758l-217 103l45 92h494v-74l-195 -152v-749q0 -215 -104.5 -368.5t-258 -230.5t-298.5 -77q-186 0 -332.5 81t-228.5 223.5t-82 320.5v864zM813 1945l219 402 l295 -39l41 -59l-465 -347z" />
<glyph unicode="&#xdb;" horiz-adv-x="1839" d="M70 1518l45 92h643v-74l-195 -152v-706q0 -252 125 -393.5t379 -141.5q94 0 185 60.5t150.5 177.5t59.5 276v758l-217 103l45 92h494v-74l-195 -152v-749q0 -215 -104.5 -368.5t-258 -230.5t-298.5 -77q-186 0 -332.5 81t-228.5 223.5t-82 320.5v864zM478 1976l460 354 l480 -358l-41 -59l-277 -39l-225 268l-332 -252z" />
<glyph unicode="&#xdc;" horiz-adv-x="1839" d="M70 1518l45 92h643v-74l-195 -152v-706q0 -252 125 -393.5t379 -141.5q94 0 185 60.5t150.5 177.5t59.5 276v758l-217 103l45 92h494v-74l-195 -152v-749q0 -215 -104.5 -368.5t-258 -230.5t-298.5 -77q-186 0 -332.5 81t-228.5 223.5t-82 320.5v864zM461 2081 q0 47 27.5 89t70.5 66.5t82 24.5q61 0 99 -45t38 -113q0 -47 -27.5 -88t-69.5 -65.5t-81 -24.5q-59 0 -99 45t-40 111zM1112 2081q0 47 27.5 89t70.5 66.5t82 24.5q61 0 99.5 -45t38.5 -113q0 -47 -28 -88t-70 -65.5t-81 -24.5q-59 0 -99 45t-40 111z" />
<glyph unicode="&#xdd;" horiz-adv-x="1662" d="M-4 1518l41 92h637v-74l-182 -141l401 -647l414 636l-320 134l45 92h631v-74l-174 -111l-526 -811v-452l217 -70l-45 -92h-641v74l192 151v348l-530 852zM701 1945l219 402l295 -39l41 -59l-465 -347z" />
<glyph unicode="&#xde;" horiz-adv-x="1595" d="M92 1516l47 92h643v-74l-194 -154v-153q86 2 192 10q143 8 211 8q146 0 258.5 -53t174 -145.5t61.5 -202.5q0 -125 -105.5 -237.5t-267.5 -177t-319 -56.5l-95 67l47 92h156q131 0 207 58.5t76 161.5q0 154 -91.5 253t-263.5 99q-135 0 -241 -76v-864l217 -72l-45 -92 h-643v74l192 151v1221z" />
<glyph unicode="&#xdf;" horiz-adv-x="1611" d="M51 936v94h242v178q0 158 89 297.5t224 221t262 81.5q76 0 180.5 -52t179.5 -132t75 -160t-41 -138t-123 -138q-70 -66 -105 -114t-35 -103q0 -72 54.5 -127.5t165.5 -130.5q86 -61 138 -105.5t88 -103t36 -127.5q0 -82 -60.5 -176.5t-148.5 -157.5t-160 -63 q-88 0 -207 17t-168 38v323h88q55 -113 136 -176t161 -63q47 0 77 43t30 102q0 61 -52.5 113.5t-156.5 126.5q-88 63 -141.5 108t-91 105.5t-37.5 132.5q0 76 43 139.5t120 140.5q66 68 98.5 114t32.5 95q0 51 -45 120t-114.5 118t-139.5 49q-186 0 -186 -319v-1307h-448v74 l182 143v719h-242z" />
<glyph unicode="&#xe0;" horiz-adv-x="1290" d="M119 285q0 74 51 146.5t149 137.5h474v111q0 240 -256 240q-129 0 -324 -146l-61 86l292 232q94 20 205 20q195 0 302.5 -94t107.5 -273v-581l184 -72l-45 -92h-405v178l-232 -182q-41 -16 -102 -16q-180 0 -260 89t-80 216zM199 1729l41 59l294 39l220 -402l-88 -43z M391 346q0 -72 39 -122t102 -50q122 0 261 109v192h-357q-25 -31 -35 -61.5t-10 -67.5z" />
<glyph unicode="&#xe1;" horiz-adv-x="1290" d="M119 285q0 74 51 146.5t149 137.5h474v111q0 240 -256 240q-129 0 -324 -146l-61 86l292 232q94 20 205 20q195 0 302.5 -94t107.5 -273v-581l184 -72l-45 -92h-405v178l-232 -182q-41 -16 -102 -16q-180 0 -260 89t-80 216zM391 346q0 -72 39 -122t102 -50 q122 0 261 109v192h-357q-25 -31 -35 -61.5t-10 -67.5zM486 1425l219 402l295 -39l41 -59l-465 -347z" />
<glyph unicode="&#xe2;" horiz-adv-x="1290" d="M119 285q0 74 51 146.5t149 137.5h474v111q0 240 -256 240q-129 0 -324 -146l-61 86l292 232q94 20 205 20q195 0 302.5 -94t107.5 -273v-581l184 -72l-45 -92h-405v178l-232 -182q-41 -16 -102 -16q-180 0 -260 89t-80 216zM150 1456l460 354l480 -358l-41 -59l-277 -39 l-225 268l-332 -252zM391 346q0 -72 39 -122t102 -50q122 0 261 109v192h-357q-25 -31 -35 -61.5t-10 -67.5z" />
<glyph unicode="&#xe3;" horiz-adv-x="1290" d="M119 285q0 74 51 146.5t149 137.5h474v111q0 240 -256 240q-129 0 -324 -146l-61 86l292 232q94 20 205 20q195 0 302.5 -94t107.5 -273v-581l184 -72l-45 -92h-405v178l-232 -182q-41 -16 -102 -16q-180 0 -260 89t-80 216zM170 1548l352 269q155 -158 280 -158 q63 0 121 41l76 55l66 -86l-355 -268q-156 158 -278 158q-68 0 -125 -43l-72 -54zM391 346q0 -72 39 -122t102 -50q122 0 261 109v192h-357q-25 -31 -35 -61.5t-10 -67.5z" />
<glyph unicode="&#xe4;" horiz-adv-x="1290" d="M119 285q0 74 51 146.5t149 137.5h474v111q0 240 -256 240q-129 0 -324 -146l-61 86l292 232q94 20 205 20q195 0 302.5 -94t107.5 -273v-581l184 -72l-45 -92h-405v178l-232 -182q-41 -16 -102 -16q-180 0 -260 89t-80 216zM178 1561q0 47 27.5 88t69.5 65.5t81 24.5 q59 0 98.5 -45t39.5 -111q0 -47 -28 -88t-70 -65.5t-81 -24.5q-59 0 -98 45t-39 111zM391 346q0 -72 39 -122t102 -50q122 0 261 109v192h-357q-25 -31 -35 -61.5t-10 -67.5zM741 1561q0 47 28 88t70 65.5t81 24.5q59 0 98 -45t39 -111q0 -47 -28 -88t-69.5 -65.5 t-80.5 -24.5q-60 0 -99 45t-39 111z" />
<glyph unicode="&#xe5;" horiz-adv-x="1290" d="M119 285q0 74 51 146.5t149 137.5h474v111q0 240 -256 240q-129 0 -324 -146l-61 86l292 232q94 20 205 20q195 0 302.5 -94t107.5 -273v-581l184 -72l-45 -92h-405v178l-232 -182q-41 -16 -102 -16q-180 0 -260 89t-80 216zM310 1536q0 72 58 135.5t147.5 101 t175.5 37.5q100 0 167.5 -58t67.5 -144q0 -72 -58.5 -135.5t-147.5 -101.5t-175 -38q-100 0 -167.5 59.5t-67.5 143.5zM391 346q0 -72 39 -122t102 -50q122 0 261 109v192h-357q-25 -31 -35 -61.5t-10 -67.5zM469 1632q0 -88 51.5 -144t143.5 -56q49 0 76.5 21.5t27.5 59.5 q0 86 -51 143.5t-145 57.5q-49 0 -76 -21.5t-27 -60.5z" />
<glyph unicode="&#xe6;" horiz-adv-x="1888" d="M119 285q0 150 200 282h451v113q0 240 -235 240q-131 0 -322 -146l-61 86l292 232q92 20 203 20q121 0 208 -41t132 -121q86 76 188.5 119t196.5 43q180 0 279.5 -155.5t99.5 -415.5h-696q12 -162 84.5 -266.5t195.5 -104.5q126 0 351 168l61 -86l-317 -254 q-88 -18 -213 -18q-111 0 -204 55t-155 151l-229 -190q-68 -16 -170 -16q-180 0 -260 89t-80 216zM391 346q0 -74 44 -125t118 -51l-2 2q121 0 258 109q-35 92 -41 194h-332q-25 -31 -35 -61.5t-10 -67.5zM1053 635h403q-14 104 -30.5 161.5t-56.5 93.5t-116 36 q-190 0 -200 -291z" />
<glyph unicode="&#xe7;" horiz-adv-x="1265" d="M141 512q0 160 91.5 298t228.5 221t266 83q86 0 200.5 -23.5t166.5 -52.5v-329h-88q-80 102 -182.5 160.5t-213.5 58.5q-90 0 -136 -81t-46 -237q0 -188 81 -313t232 -125q119 0 342 160l62 -86l-299 -236l-131 -108h4q100 -76 137 -127t37 -109q0 -94 -98.5 -145 t-305.5 -62v74q180 57 181 170q0 45 -30 80t-101 80l141 119h-57q-137 0 -247 70.5t-172.5 191.5t-62.5 268z" />
<glyph unicode="&#xe8;" horiz-adv-x="1325" d="M139 510q0 160 97.5 298t245 221t284.5 83q199 0 308.5 -155.5t107.5 -415.5h-754q14 -164 94 -267.5t217 -103.5q135 0 385 192l62 -83l-352 -281q-88 -18 -213 -18q-137 0 -247 70.5t-172.5 191t-62.5 268.5zM246 1729l41 59l294 39l220 -402l-88 -43zM428 635h461 q-18 104 -38 161.5t-67 93.5t-137 36h2q-211 0 -221 -291z" />
<glyph unicode="&#xe9;" horiz-adv-x="1325" d="M139 510q0 160 97.5 298t245 221t284.5 83q199 0 308.5 -155.5t107.5 -415.5h-754q14 -164 94 -267.5t217 -103.5q135 0 385 192l62 -83l-352 -281q-88 -18 -213 -18q-137 0 -247 70.5t-172.5 191t-62.5 268.5zM428 635h461q-18 104 -38 161.5t-67 93.5t-137 36h2 q-211 0 -221 -291zM533 1425l219 402l295 -39l41 -59l-465 -347z" />
<glyph unicode="&#xea;" horiz-adv-x="1325" d="M139 510q0 160 97.5 298t245 221t284.5 83q199 0 308.5 -155.5t107.5 -415.5h-754q14 -164 94 -267.5t217 -103.5q135 0 385 192l62 -83l-352 -281q-88 -18 -213 -18q-137 0 -247 70.5t-172.5 191t-62.5 268.5zM197 1456l460 354l480 -358l-41 -59l-277 -39l-225 268 l-332 -252zM428 635h461q-18 104 -38 161.5t-67 93.5t-137 36h2q-211 0 -221 -291z" />
<glyph unicode="&#xeb;" horiz-adv-x="1325" d="M139 510q0 160 97.5 298t245 221t284.5 83q199 0 308.5 -155.5t107.5 -415.5h-754q14 -164 94 -267.5t217 -103.5q135 0 385 192l62 -83l-352 -281q-88 -18 -213 -18q-137 0 -247 70.5t-172.5 191t-62.5 268.5zM225 1561q0 47 28 88t70 65.5t80 24.5q59 0 98.5 -45 t39.5 -111q0 -47 -28 -88t-70 -65.5t-81 -24.5q-59 0 -98 45t-39 111zM428 635h461q-18 104 -38 161.5t-67 93.5t-137 36h2q-211 0 -221 -291zM788 1561q0 47 28 88t70 65.5t81 24.5q59 0 98 -45t39 -111q0 -47 -27.5 -88t-69.5 -65.5t-81 -24.5q-60 0 -99 45t-39 111z" />
<glyph unicode="&#xec;" horiz-adv-x="804" d="M-26 1729l41 59l294 39l220 -402l-88 -43zM109 0v74l182 145v574l-182 125v73l360 139h88v-970l184 -68l-47 -92h-585z" />
<glyph unicode="&#xed;" horiz-adv-x="804" d="M109 0v74l182 145v574l-182 125v73l360 139h88v-970l184 -68l-47 -92h-585zM263 1425l219 402l295 -39l41 -59l-465 -347z" />
<glyph unicode="&#xee;" horiz-adv-x="804" d="M-75 1456l460 354l480 -358l-41 -59l-277 -39l-225 268l-332 -252zM109 0v74l182 145v574l-182 125v73l360 139h88v-970l184 -68l-47 -92h-585z" />
<glyph unicode="&#xef;" horiz-adv-x="804" d="M-45 1561q0 47 27.5 88t69.5 65.5t81 24.5q59 0 98 -45t39 -111q0 -47 -27.5 -88t-69.5 -65.5t-81 -24.5q-59 0 -98 45t-39 111zM109 0v74l182 145v574l-182 125v73l360 139h88v-970l184 -68l-47 -92h-585zM518 1561q0 47 27.5 88t69.5 65.5t81 24.5q60 0 99 -45t39 -111 q0 -47 -28 -88t-70 -65.5t-81 -24.5q-59 0 -98 45t-39 111z" />
<glyph unicode="&#xf0;" horiz-adv-x="1374" d="M115 1647v73l258 88q207 -66 393 -217l364 217l46 -73l-342 -203h2q186 -172 296.5 -393t110.5 -437q0 -188 -87 -355t-232.5 -267t-309.5 -100q-135 0 -245.5 69.5t-174 190t-63.5 270.5q0 145 92 285.5t238.5 228.5t298.5 88q16 0 61 -4q-88 156 -229 281l-367 -218 l-41 74l338 201q-186 141 -407 201zM422 608q0 -201 86 -322.5t227 -121.5q119 0 175.5 101.5t56.5 320.5q0 172 -58 340h-266q-221 0 -221 -318z" />
<glyph unicode="&#xf1;" horiz-adv-x="1482" d="M109 -2v74l182 145v557l-182 109v73l364 174l72 -260l282 226q47 16 115 16q143 0 227 -85t84 -230v-637l185 -70l-47 -92h-404v684q0 109 -34.5 153t-121.5 44q-63 0 -126.5 -22.5t-147.5 -86.5v-612l184 -68l-47 -92h-585zM275 1548l352 269q155 -158 280 -158 q63 0 121 41l76 55l66 -86l-355 -268q-156 158 -278 158q-68 0 -125 -43l-72 -54z" />
<glyph unicode="&#xf2;" horiz-adv-x="1384" d="M139 510q0 160 97.5 298t245 221t284.5 83q139 0 248.5 -70.5t171 -191.5t61.5 -268q0 -160 -97 -298.5t-244.5 -221t-284.5 -82.5t-247 70.5t-172.5 191t-62.5 268.5zM275 1729l41 59l294 39l220 -402l-88 -43zM426 608q0 -190 81 -317t232 -127q109 0 164 82t55 239 q0 188 -80.5 314.5t-230.5 126.5q-221 -1 -221 -318z" />
<glyph unicode="&#xf3;" horiz-adv-x="1384" d="M139 510q0 160 97.5 298t245 221t284.5 83q139 0 248.5 -70.5t171 -191.5t61.5 -268q0 -160 -97 -298.5t-244.5 -221t-284.5 -82.5t-247 70.5t-172.5 191t-62.5 268.5zM426 608q0 -190 81 -317t232 -127q109 0 164 82t55 239q0 188 -80.5 314.5t-230.5 126.5 q-221 -1 -221 -318zM562 1425l219 402l295 -39l41 -59l-465 -347z" />
<glyph unicode="&#xf4;" horiz-adv-x="1384" d="M139 510q0 160 97.5 298t245 221t284.5 83q139 0 248.5 -70.5t171 -191.5t61.5 -268q0 -160 -97 -298.5t-244.5 -221t-284.5 -82.5t-247 70.5t-172.5 191t-62.5 268.5zM226 1456l460 354l480 -358l-41 -59l-277 -39l-225 268l-332 -252zM426 608q0 -190 81 -317t232 -127 q109 0 164 82t55 239q0 188 -80.5 314.5t-230.5 126.5q-221 -1 -221 -318z" />
<glyph unicode="&#xf5;" horiz-adv-x="1384" d="M139 510q0 160 97.5 298t245 221t284.5 83q139 0 248.5 -70.5t171 -191.5t61.5 -268q0 -160 -97 -298.5t-244.5 -221t-284.5 -82.5t-247 70.5t-172.5 191t-62.5 268.5zM246 1548l352 269q155 -158 280 -158q63 0 121 41l76 55l66 -86l-355 -268q-156 158 -278 158 q-68 0 -125 -43l-72 -54zM426 608q0 -190 81 -317t232 -127q109 0 164 82t55 239q0 188 -80.5 314.5t-230.5 126.5q-221 -1 -221 -318z" />
<glyph unicode="&#xf6;" horiz-adv-x="1384" d="M139 510q0 160 97.5 298t245 221t284.5 83q139 0 248.5 -70.5t171 -191.5t61.5 -268q0 -160 -97 -298.5t-244.5 -221t-284.5 -82.5t-247 70.5t-172.5 191t-62.5 268.5zM254 1561q0 47 27.5 88t69.5 65.5t81 24.5q60 0 98.5 -45t38.5 -111q0 -47 -27.5 -88t-69.5 -65.5 t-81 -24.5q-59 0 -98 45t-39 111zM426 608q0 -190 81 -317t232 -127q109 0 164 82t55 239q0 188 -80.5 314.5t-230.5 126.5q-221 -1 -221 -318zM817 1561q0 47 27.5 88t69.5 65.5t81 24.5q60 0 99 -45t39 -111q0 -47 -28 -88t-70 -65.5t-81 -24.5q-59 0 -98 45t-39 111z" />
<glyph unicode="&#xf7;" horiz-adv-x="1087" d="M82 586v94h924v-94h-924zM369 223q0 49 30.5 93.5t78 70t90.5 25.5q67 0 110 -48t43 -118q0 -49 -30.5 -93t-77.5 -69.5t-92 -25.5q-66 0 -109 48t-43 117zM369 1022q0 49 30.5 93.5t78 70t90.5 25.5q67 0 110 -48t43 -118q0 -49 -30.5 -93t-77.5 -69.5t-92 -25.5 q-66 0 -109 48t-43 117z" />
<glyph unicode="&#xf8;" horiz-adv-x="1384" d="M141 510q0 160 97.5 298t245 221t284.5 83q94 0 176 -35l182 318l82 -49l-180 -314h6q103 -71 161 -190t58 -260q0 -160 -97 -298.5t-244.5 -221t-284.5 -82.5q-96 0 -183 34l-184 -317l-82 47l182 317q-102 70 -160.5 189t-58.5 260zM432 606q0 -180 74 -301l321 559 q-74 61 -174 62q-221 0 -221 -318v-2zM567 227q76 -66 178 -65v2q109 0 164.5 82t55.5 239q0 182 -74 301z" />
<glyph unicode="&#xf9;" horiz-adv-x="1439" d="M63 881v73l361 172h88v-718q0 -111 35 -155t121 -44q59 0 118.5 22.5t139.5 85.5v457l-183 107v73l361 172h88v-966l184 -68l-47 -92h-403v207l-254 -211q-39 -16 -115 -16q-143 0 -227 85t-84 230v479zM314 1729l41 59l294 39l220 -402l-88 -43z" />
<glyph unicode="&#xfa;" horiz-adv-x="1439" d="M63 881v73l361 172h88v-718q0 -111 35 -155t121 -44q59 0 118.5 22.5t139.5 85.5v457l-183 107v73l361 172h88v-966l184 -68l-47 -92h-403v207l-254 -211q-39 -16 -115 -16q-143 0 -227 85t-84 230v479zM601 1425l219 402l295 -39l41 -59l-465 -347z" />
<glyph unicode="&#xfb;" horiz-adv-x="1439" d="M63 881v73l361 172h88v-718q0 -111 35 -155t121 -44q59 0 118.5 22.5t139.5 85.5v457l-183 107v73l361 172h88v-966l184 -68l-47 -92h-403v207l-254 -211q-39 -16 -115 -16q-143 0 -227 85t-84 230v479zM265 1456l460 354l480 -358l-41 -59l-277 -39l-225 268l-332 -252z " />
<glyph unicode="&#xfc;" horiz-adv-x="1439" d="M63 881v73l361 172h88v-718q0 -111 35 -155t121 -44q59 0 118.5 22.5t139.5 85.5v457l-183 107v73l361 172h88v-966l184 -68l-47 -92h-403v207l-254 -211q-39 -16 -115 -16q-143 0 -227 85t-84 230v479zM293 1561q0 47 27.5 88t69.5 65.5t81 24.5q59 0 98 -45t39 -111 q0 -47 -27.5 -88t-69.5 -65.5t-81 -24.5q-59 0 -98 45t-39 111zM856 1561q0 47 27.5 88t69.5 65.5t81 24.5q59 0 98 -45t39 -111q0 -47 -27.5 -88t-69.5 -65.5t-81 -24.5q-59 0 -98 45t-39 111z" />
<glyph unicode="&#xfd;" horiz-adv-x="1282" d="M6 885v73l371 172l78 -309l245 -596l281 576l-276 198l45 93h460v-74l-518 -1018l-438 -541l-88 70q113 125 173 219t85 188.5t27 221.5l-252 614zM490 1425l219 402l295 -39l41 -59l-465 -347z" />
<glyph unicode="&#xfe;" horiz-adv-x="1472" d="M68 -449l182 146v1753l-182 127v74l360 137h88v-901l262 209q66 16 158 16q113 0 205 -70.5t143 -192.5t51 -267q0 -160 -97 -298.5t-244.5 -221t-284.5 -82.5v-3q-105 1 -193 62v-383l291 -86l-45 -92h-694v73zM518 385q12 -96 91 -159.5t218 -63.5q111 0 166.5 81 t55.5 238q0 184 -57.5 309t-164.5 125h2q-75 0 -147 -27.5t-164 -105.5v-397z" />
<glyph unicode="&#xff;" horiz-adv-x="1282" d="M6 885v73l371 172l78 -309l245 -596l281 576l-276 198l45 93h460v-74l-518 -1018l-438 -541l-88 70q113 125 173 219t85 188.5t27 221.5l-252 614zM182 1561q0 47 28 88t70 65.5t80 24.5q59 0 98.5 -45t39.5 -111q0 -47 -28 -88t-70 -65.5t-81 -24.5q-59 0 -98 45 t-39 111zM745 1561q0 47 28 88t70 65.5t81 24.5q59 0 98 -45t39 -111q0 -47 -27.5 -88t-69.5 -65.5t-81 -24.5q-60 0 -99 45t-39 111z" />
<glyph unicode="&#x152;" horiz-adv-x="2539" d="M139 770q0 233 132 431t329 313.5t375 115.5q98 0 190 -10q160 -10 242 -10h801l119 37v-482l-72 -24l-246 364h-522v-631h278l152 256h74v-616l-93 -47l-131 303h-280v-666h514l274 408l72 -27v-522l-119 37h-819q-193 0 -377 -12q-139 -8 -203 -8q-205 0 -361.5 101 t-242.5 281.5t-86 407.5zM440 866q0 -204 60.5 -373t183.5 -270.5t305 -101.5q121 0 219 69v1231q-125 49 -290 49q-133 0 -242 -77.5t-172.5 -216t-63.5 -310.5z" />
<glyph unicode="&#x153;" horiz-adv-x="2002" d="M137 508q0 160 91 298t228.5 221t268.5 83q104 0 193.5 -50t148.5 -140q90 90 202.5 141t217.5 51q180 0 279.5 -155.5t99.5 -415.5h-697q12 -162 85 -266.5t196 -104.5l-2 -2q125 0 350 168l62 -86l-318 -254q-88 -18 -213 -19q-106 0 -195.5 50.5t-150.5 140.5 q-88 -88 -195.5 -139.5t-207.5 -51.5q-127 0 -227.5 71t-158 191.5t-57.5 268.5zM424 606q0 -190 71.5 -317t202.5 -127q181 -1 181 321q0 188 -71 314.5t-202 126.5q-182 0 -182 -318zM1165 633h404q-14 104 -30.5 161.5t-56.5 93.5t-116 36q-191 0 -201 -291z" />
<glyph unicode="&#x178;" horiz-adv-x="1662" d="M-4 1518l41 92h637v-74l-182 -141l401 -647l414 636l-320 134l45 92h631v-74l-174 -111l-526 -811v-452l217 -70l-45 -92h-641v74l192 151v348l-530 852zM348 2081q0 47 27.5 89t70.5 66.5t82 24.5q61 0 99.5 -45t38.5 -113q0 -47 -28 -88t-70 -65.5t-81 -24.5 q-59 0 -99 45t-40 111zM999 2081q0 47 28 89t71 66.5t82 24.5q61 0 99 -45t38 -113q0 -47 -27.5 -88t-69.5 -65.5t-81 -24.5q-60 0 -100 45t-40 111z" />
<glyph unicode="&#x2c6;" horiz-adv-x="1163" d="M113 1456l460 354l480 -358l-41 -59l-277 -39l-225 268l-332 -252z" />
<glyph unicode="&#x2dc;" horiz-adv-x="1116" d="M111 1548l352 269q155 -158 280 -158q63 0 121 41l76 55l66 -86l-355 -268q-156 158 -278 158q-68 0 -125 -43l-72 -54z" />
<glyph unicode="&#x2000;" horiz-adv-x="1173" />
<glyph unicode="&#x2001;" horiz-adv-x="2347" />
<glyph unicode="&#x2002;" horiz-adv-x="1173" />
<glyph unicode="&#x2003;" horiz-adv-x="2347" />
<glyph unicode="&#x2004;" horiz-adv-x="782" />
<glyph unicode="&#x2005;" horiz-adv-x="586" />
<glyph unicode="&#x2006;" horiz-adv-x="391" />
<glyph unicode="&#x2007;" horiz-adv-x="391" />
<glyph unicode="&#x2008;" horiz-adv-x="293" />
<glyph unicode="&#x2009;" horiz-adv-x="469" />
<glyph unicode="&#x200a;" horiz-adv-x="130" />
<glyph unicode="&#x2010;" horiz-adv-x="1050" d="M156 545v71l82 105h657v-72l-82 -104h-657z" />
<glyph unicode="&#x2011;" horiz-adv-x="1050" d="M156 545v71l82 105h657v-72l-82 -104h-657z" />
<glyph unicode="&#x2012;" horiz-adv-x="1050" d="M156 545v71l82 105h657v-72l-82 -104h-657z" />
<glyph unicode="&#x2013;" horiz-adv-x="1482" d="M82 586v94h1319v-94h-1319z" />
<glyph unicode="&#x2014;" horiz-adv-x="2134" d="M82 586v94h1970v-94h-1970z" />
<glyph unicode="&#x2018;" horiz-adv-x="745" d="M156 1194l403 500l88 -68h2q-104 -123 -149 -211t-56 -196l166 -99v-73l-366 -175z" />
<glyph unicode="&#x2019;" horiz-adv-x="757" d="M98 942q102 123 147.5 212t55.5 196l-166 96v74l367 174l88 -322l-404 -500z" />
<glyph unicode="&#x201a;" horiz-adv-x="745" d="M98 -471q102 123 147.5 211t55.5 194l-166 99v73l367 175l88 -322l-404 -500z" />
<glyph unicode="&#x201c;" horiz-adv-x="1298" d="M136 1194l403 500l88 -68h2q-104 -123 -149 -211t-56 -196l166 -99v-73l-366 -175zM688 1194l403 500l88 -68h2q-104 -123 -149 -211t-56 -196l166 -99v-73l-366 -175z" />
<glyph unicode="&#x201d;" horiz-adv-x="1310" d="M98 942q102 123 147.5 212t55.5 196l-166 96v74l367 174l88 -322l-404 -500zM651 942q102 123 147.5 212t55.5 196l-166 96v74l367 174l88 -322l-404 -500z" />
<glyph unicode="&#x201e;" horiz-adv-x="1298" d="M98 -471q102 123 147.5 211t55.5 194l-166 99v73l367 175l88 -322l-404 -500zM651 -471q102 123 147.5 211t55.5 194l-166 99v73l367 175l88 -322l-404 -500z" />
<glyph unicode="&#x2022;" horiz-adv-x="1064" d="M160 528q0 100 61.5 187.5t155.5 138.5t180 51q88 0 158.5 -43t109.5 -117.5t39 -166.5q0 -102 -62.5 -189.5t-156.5 -139.5t-182 -52q-86 0 -155.5 44t-108.5 119.5t-39 167.5z" />
<glyph unicode="&#x2026;" horiz-adv-x="2615" d="M305 145q0 49 30.5 93.5t78 70t90.5 25.5q67 0 110 -48t43 -118q0 -49 -30.5 -93t-77.5 -69.5t-92 -25.5q-66 0 -109 48t-43 117zM1133 145q0 49 30.5 93.5t78 70t90.5 25.5q67 0 110 -48t43 -118q0 -49 -30.5 -93t-77.5 -69.5t-92 -25.5q-66 0 -109 48t-43 117z M1960 145q0 49 30.5 93.5t78 70t90.5 25.5q67 0 110 -48t43 -118q0 -49 -30.5 -93t-77.5 -69.5t-92 -25.5q-66 0 -109 48t-43 117z" />
<glyph unicode="&#x202f;" horiz-adv-x="469" />
<glyph unicode="&#x2039;" horiz-adv-x="849" d="M98 549l533 495l82 -59l-258 -393l258 -479l-82 -62z" />
<glyph unicode="&#x203a;" horiz-adv-x="849" d="M139 111l258 393l-258 479l80 59l535 -495l-535 -498z" />
<glyph unicode="&#x205f;" horiz-adv-x="586" />
<glyph unicode="&#x20ac;" horiz-adv-x="1820" d="M2 602l49 94h228q-2 23 -3 68q0 68 13 131h-287l49 94h260q59 186 201.5 337t320 236t334.5 85q111 0 256.5 -31t212.5 -66v-405h-102q-182 317 -485 317q-115 0 -213.5 -60.5t-164 -168t-85.5 -244.5h696l-47 -94h-660v-31q0 -86 13 -166h557l-47 -94h-492 q53 -207 184.5 -329.5t339.5 -122.5q178 0 506 249l68 -108l-377 -293q-78 -27 -151.5 -36t-157.5 -9q-190 0 -345 81t-254.5 228.5t-129.5 337.5h-287z" />
<glyph unicode="&#x2122;" horiz-adv-x="2185" d="M133 1384v242l94 -16h604l95 16v-242l-74 -28l-121 180h-98v-485l119 -23l-41 -61h-381v53l96 61v455h-94l-125 -180zM983 1548l41 62h328l168 -400l178 400h327v-54l-96 -59v-444l117 -25l-41 -61h-358v53l75 49v344l-198 -446h-113l-209 465v-373l96 -31l-41 -61h-253 v53l96 61v432z" />
<glyph unicode="&#x25fc;" horiz-adv-x="1095" d="M0 0v1096h1096v-1096h-1096z" />
</font>
</defs>
</svg>
